<svg xmlns="http://www.w3.org/2000/svg" width="423.484" height="312.805" viewBox="0 0 423.484 312.805">
  <g id="_111" data-name="111" transform="translate(-772.426 -266.3)">
    <g id="Group_500" data-name="Group 500" transform="translate(743 191)">
      <g id="undraw_Accept_terms_re_lj38" transform="translate(0 65.351)">
        <path id="Path_46" data-name="Path 46" d="M62.68,84.072a9.6,9.6,0,0,1-.3-12.431c.291-.357.86.078.568.436a8.892,8.892,0,0,0,.3,11.562C63.56,83.982,62.987,84.413,62.68,84.072Z" transform="translate(-24.301 21.833)" fill="#fff"/>
        <path id="Path_47" data-name="Path 47" d="M58.351,84.843A18.508,18.508,0,0,0,71.21,80.771c.359-.29.79.282.432.571a19.251,19.251,0,0,1-13.389,4.21C57.792,85.52,57.893,84.811,58.351,84.843Z" transform="translate(-28.528 38.765)" fill="#fff"/>
        <path id="Path_52" data-name="Path 52" d="M61.66,89.052a18.508,18.508,0,0,0,12.718,4.491c.461-.016.461.7,0,.716a19.251,19.251,0,0,1-13.225-4.7c-.349-.3.159-.808.506-.507Z" transform="translate(-22.843 54.009)" fill="#fff"/>
        <path id="Path_55" data-name="Path 55" d="M193.08,100.459a64,64,0,0,1,24.692,30.674,27.56,27.56,0,0,1,1.931,8.417,15.809,15.809,0,0,1-1.9,8.1c-1.208,2.339-2.714,4.592-3.332,7.184a9.679,9.679,0,0,0,1.589,7.755c1.912,2.812,4.721,4.768,7.534,6.586,3.123,2.019,6.4,4.066,8.37,7.324.239.395.837,0,.6-.393-3.429-5.668-10.33-7.56-14.658-12.333-2.02-2.227-3.38-5.076-2.866-8.136.449-2.676,2-5,3.244-7.358a16.868,16.868,0,0,0,2.153-7.851,25.481,25.481,0,0,0-1.6-8.46,62.091,62.091,0,0,0-9.265-17.053,65.137,65.137,0,0,0-16.172-15.1c-.385-.252-.7.391-.319.642Z" transform="translate(220.292 73.922)" fill="#fff"/>
        <path id="Path_56" data-name="Path 56" d="M201.555,117.016a9.6,9.6,0,0,0,4.457-11.608c-.154-.434-.836-.215-.682.22a8.891,8.891,0,0,1-4.168,10.789C200.757,116.636,201.152,117.234,201.555,117.016Z" transform="translate(235.2 83.901)" fill="#fff"/>
        <path id="Path_57" data-name="Path 57" d="M209.321,121.605a18.507,18.507,0,0,1-10.742-8.156c-.24-.394-.839,0-.6.393a19.251,19.251,0,0,0,11.2,8.465c.445.125.588-.577.146-.7Z" transform="translate(229.543 98.86)" fill="#fff"/>
        <path id="Path_58" data-name="Path 58" d="M200.561,103.337a5.435,5.435,0,0,1-5.043,1.081c-.443-.13-.586.572-.146.7a6.091,6.091,0,0,0,5.582-1.183.37.37,0,0,0,.1-.5.36.36,0,0,0-.5-.1Z" transform="translate(224.346 80.41)" fill="#fff"/>
        <path id="Path_61" data-name="Path 61" d="M194.515,124.338a9.6,9.6,0,0,0-3.431-11.951c-.385-.254-.8.332-.412.586a8.892,8.892,0,0,1,3.168,11.124c-.192.419.484.658.674.242Z" transform="translate(215.889 97.087)" fill="#fff"/>
        <path id="Path_62" data-name="Path 62" d="M205.7,121.638a18.508,18.508,0,0,1-13.488-.045c-.429-.17-.67.5-.242.674a19.251,19.251,0,0,0,14.035.018c.43-.168.122-.815-.306-.648Z" transform="translate(218.155 114.127)" fill="#fff"/>
        <path id="Path_63" data-name="Path 63" d="M187.285,114.39a5.435,5.435,0,0,1-3.376,3.9c-.432.163-.123.809.306.648a6.091,6.091,0,0,0,3.744-4.305.37.37,0,0,0-.216-.458.36.36,0,0,0-.458.216Z" transform="translate(203.319 100.46)" fill="#fff"/>
        <path id="Path_64" data-name="Path 64" d="M256.748,116.518h-1.719V69.434a27.251,27.251,0,0,0-27.251-27.251H128.025a27.251,27.251,0,0,0-27.251,27.251h0v258.3a27.251,27.251,0,0,0,27.251,27.251h99.753a27.251,27.251,0,0,0,27.251-27.251V150.033h1.719Z" transform="translate(50.424 -32.234)" fill="#3f3d56"/>
        <path id="Path_65" data-name="Path 65" d="M244.352,65.026V322.952A20.347,20.347,0,0,1,224.005,343.3H123.767a20.348,20.348,0,0,1-20.349-20.348V65.026a20.348,20.348,0,0,1,20.348-20.349h12.166A9.667,9.667,0,0,0,144.882,58h57.15a9.672,9.672,0,0,0,8.95-13.32H224a20.348,20.348,0,0,1,20.349,20.348h0Z" transform="translate(55.299 -27.637)" fill="#f2f2f2"/>
        <rect id="Rectangle_999" data-name="Rectangle 999" width="31.095" height="1.392" transform="translate(166.313 41.661)" fill="#fff"/>
        <rect id="Rectangle_1000" data-name="Rectangle 1000" width="31.095" height="1.392" transform="translate(213.636 41.661)" fill="#fff"/>
        <path id="Path_66" data-name="Path 66" d="M212.746,115.312H111.382a2.6,2.6,0,1,1,0-5.2H212.746a2.6,2.6,0,0,1,0,5.2Z" transform="translate(65.187 93.006)" fill="#ccc"/>
        <path id="Path_67" data-name="Path 67" d="M212.746,121.675H111.382a2.6,2.6,0,1,1,0-5.2H212.746a2.6,2.6,0,0,1,0,5.2Z" transform="translate(65.187 104.738)" fill="#ccc"/>
        <path id="Path_68" data-name="Path 68" d="M212.746,128.038H111.382a2.6,2.6,0,1,1,0-5.2H212.746a2.6,2.6,0,0,1,0,5.2Z" transform="translate(65.187 116.469)" fill="#ccc"/>
        <rect id="Rectangle_1001" data-name="Rectangle 1001" width="31.095" height="1.392" transform="translate(260.959 41.661)" fill="#fff"/>
        <rect id="Rectangle_1002" data-name="Rectangle 1002" width="31.095" height="1.392" transform="translate(166.313 291.5)" fill="#fff"/>
        <rect id="Rectangle_1003" data-name="Rectangle 1003" width="31.095" height="1.392" transform="translate(213.636 291.5)" fill="#fff"/>
        <rect id="Rectangle_1004" data-name="Rectangle 1004" width="31.095" height="1.392" transform="translate(260.959 291.5)" fill="#fff"/>
        <rect id="Rectangle_1005" data-name="Rectangle 1005" width="5.567" height="29.925" transform="translate(148.306 59.591)" fill="#3f3d56"/>
        <rect id="Rectangle_1006" data-name="Rectangle 1006" width="5.567" height="17.398" transform="translate(148.306 92.995)" fill="#3f3d56"/>
        <rect id="Rectangle_1007" data-name="Rectangle 1007" width="5.567" height="17.398" transform="translate(148.306 113.874)" fill="#3f3d56"/>
        <circle id="Ellipse_22" data-name="Ellipse 22" cx="2.784" cy="2.784" r="2.784" transform="translate(199.109 18.531)" fill="#fff"/>
      </g>
    </g>
    <g id="Group_250" data-name="Group 250" transform="translate(931.99 322.621)">
      <path id="Path_159" data-name="Path 159" d="M400.646,605.871h72.328a4.079,4.079,0,0,0,4.03-4.128,4.146,4.146,0,0,0-.484-1.923l-36.146-68.048a4.021,4.021,0,0,0-5.482-1.668,4.075,4.075,0,0,0-1.647,1.668l-36.164,68.048a4.133,4.133,0,0,0,1.649,5.56A4.011,4.011,0,0,0,400.646,605.871Zm40.766-12.435h-9.2v-9.321h9.2Zm0-15.538h-9.2V559.252h9.2Z" transform="translate(-396.598 -529.614)" fill="#db4040"/>
      <path id="Path_160" data-name="Path 160" d="M400.646,605.871h72.328a4.079,4.079,0,0,0,4.03-4.128,4.146,4.146,0,0,0-.484-1.923l-36.146-68.048a4.021,4.021,0,0,0-5.482-1.668,4.075,4.075,0,0,0-1.647,1.668l-36.164,68.048a4.133,4.133,0,0,0,1.649,5.56A4.011,4.011,0,0,0,400.646,605.871Zm40.766-12.435h-9.2v-9.321h9.2Zm0-15.538h-9.2V559.252h9.2Z" transform="translate(-396.598 -529.614)" fill="#ff7022" opacity="0.1" style="isolation: isolate"/>
      <path id="Path_161" data-name="Path 161" d="M400.646,610.872h72.328a4.08,4.08,0,0,0,4.03-4.128,4.147,4.147,0,0,0-.484-1.923l-36.146-68.048a4.021,4.021,0,0,0-5.482-1.668,4.077,4.077,0,0,0-1.647,1.668l-36.164,68.048a4.134,4.134,0,0,0,1.649,5.561A4.012,4.012,0,0,0,400.646,610.872Zm40.766-12.434h-9.2v-9.321h9.2Zm0-15.538h-9.2V564.252h9.2Z" transform="translate(-396.598 -532.379)" fill="#f03"/>
    </g>
  </g>
</svg>
