<svg xmlns="http://www.w3.org/2000/svg" width="349.501" height="344.865" viewBox="0 0 349.501 344.865">
  <g id="Calling-amico" transform="translate(-29.626 -43.281)">
    <g id="freepik--Floor--inject-45" transform="translate(29.626 189.75)">
      <path id="Path_3490" data-name="Path 3490" d="M327.544,257.052c68.466,38.737,68.823,101.5.793,140.27s-178.658,38.729-247.124,0-68.831-101.5-.793-140.27S259.094,218.315,327.544,257.052Z" transform="translate(-29.626 -227.988)" fill="#f0f0f0"/>
    </g>
    <g id="freepik--Clouds--inject-45" transform="translate(56.995 43.281)">
      <path id="Path_3491" data-name="Path 3491" d="M116.348,50.063c-3.7,2.141-6.907,6.447-8.445,10.919a6.677,6.677,0,0,0-2.76.952l-.595.365a16.153,16.153,0,0,0-6.344,10.19,9.389,9.389,0,0,0,0,3.172.555.555,0,0,1-.254.515l-3.838,2.2A6.669,6.669,0,0,0,91.1,83.59c0,1.919,1.364,2.7,3.037,1.729L131.5,63.742a6.614,6.614,0,0,0,3.013-5.218c0-1.919-1.364-2.688-3.029-1.721l-6.122,3.529c-.19.111-.317,0-.246-.27a15.32,15.32,0,0,0,.682-5.511c-.4-5.059-4.147-7.137-8.723-4.861A6.286,6.286,0,0,0,116.348,50.063Z" transform="translate(-69.721 -44.418)" fill="#e6e6e6"/>
      <path id="Path_3492" data-name="Path 3492" d="M81.562,44.168a14.337,14.337,0,0,0-5.828,7.541,4.607,4.607,0,0,0-1.9.65,4.51,4.51,0,0,0-.412.262,11.1,11.1,0,0,0-4.385,7.034,6.487,6.487,0,0,0,0,2.181.381.381,0,0,1-.174.357l-2.641,1.523a4.6,4.6,0,0,0-2.078,3.6c0,1.324.944,1.856,2.093,1.189L92.021,53.613a4.6,4.6,0,0,0,2.078-3.6c0-1.324-.944-1.856-2.093-1.189l-4.187,2.434c-.135.079-.222,0-.174-.182a10.539,10.539,0,0,0,.468-3.806c-.278-3.489-2.863-4.924-6.043-3.354Z" transform="translate(-64.14 -43.281)" fill="#e6e6e6"/>
    </g>
    <g id="freepik--Shadows--inject-45" transform="translate(90.303 250.397)">
      <path id="Path_3493" data-name="Path 3493" d="M107.037,362.048l11,6.582a5.384,5.384,0,0,0,5.551,0l89.424-53.55a1.911,1.911,0,0,0,0-3.259l-11.03-6.582a5.384,5.384,0,0,0-5.551,0l-89.393,53.574a1.911,1.911,0,0,0,0,3.235Z" transform="translate(-106.143 -304.468)" fill="#e0e0e0"/>
      <path id="Path_3494" data-name="Path 3494" d="M348.77,354.671c18.476,10.674,18.58,27.968.222,38.634s-48.221,10.674-66.7,0-18.58-27.96-.222-38.634S330.294,344.005,348.77,354.671Z" transform="translate(-139.728 -313.205)" fill="#e0e0e0"/>
    </g>
    <g id="freepik--Plants--inject-45" transform="translate(65.402 236.432)">
      <path id="Path_3495" data-name="Path 3495" d="M92,300.039c-2.038-1.951-4.377-4.084-4.52-6.907a6.2,6.2,0,0,1,4.06-5.781,9.4,9.4,0,0,1,7.319.555,20.039,20.039,0,0,1,5.86,4.686,46.944,46.944,0,0,1,11.054,41.013,3.413,3.413,0,0,1-1.38,2.458c-1.364.722-2.918-.547-3.854-1.776a28.42,28.42,0,0,1-4.528-8.961c-.793-2.736-.444-5.749-1.475-8.326C102.015,310.681,96.853,304.678,92,300.039Z" transform="translate(-77.379 -286.858)" fill="#407bff"/>
      <path id="Path_3496" data-name="Path 3496" d="M92,300.039c-2.038-1.951-4.377-4.084-4.52-6.907a6.2,6.2,0,0,1,4.06-5.781,9.4,9.4,0,0,1,7.319.555,20.039,20.039,0,0,1,5.86,4.686,46.944,46.944,0,0,1,11.054,41.013,3.413,3.413,0,0,1-1.38,2.458c-1.364.722-2.918-.547-3.854-1.776a28.42,28.42,0,0,1-4.528-8.961c-.793-2.736-.444-5.749-1.475-8.326C102.015,310.681,96.853,304.678,92,300.039Z" transform="translate(-77.379 -286.858)" fill="#37905f"/>
      <path id="Path_3497" data-name="Path 3497" d="M114.509,333.108h0a.539.539,0,0,1-.539-.547A53.344,53.344,0,0,0,94,291.4a.555.555,0,0,1-.1-.793.563.563,0,0,1,.793-.087,54.422,54.422,0,0,1,20.38,42.028.547.547,0,0,1-.571.563Z" transform="translate(-78.684 -287.59)" fill="#fff"/>
      <path id="Path_3498" data-name="Path 3498" d="M103.882,360.136c-3.434,1.1-7.739.381-9.73-2.633-2.379-3.537-.88-8.992-4.012-11.895-1.752-1.586-4.33-1.76-6.653-2.236s-4.9-1.768-5.25-4.116c-.46-3.108,3.362-5.694,2.831-8.794s-4.758-4.012-6-6.851c-1.134-2.585.872-5.717,3.537-6.685s5.622-.3,8.271.682,5.226,2.284,8.033,2.633,6.3-.214,8.437,1.792c2.871,2.68,1.229,7.795,3.442,11.03,1.491,2.173,4.29,2.926,6.431,4.449a10.309,10.309,0,0,1,4.25,8.445c-.071,3.56-1.943,6.138-4.639,8.184C109.972,356.362,107.459,358.994,103.882,360.136Z" transform="translate(-74.742 -292.985)" fill="#32b86f"/>
      <path id="Path_3500" data-name="Path 3500" d="M103.765,336.806l-.04-.055c-.515-.745-1.047-1.483-1.586-2.189A39.506,39.506,0,0,0,82.395,321.43a.547.547,0,1,0-.3,1.047,38.4,38.4,0,0,1,19.2,12.767c.151.19.285.4.436.595-6.154-2.26-12.434-.975-15.78,1.721a.567.567,0,1,0,.714.88c3.315-2.672,10.158-3.862,16.359-.856a38.372,38.372,0,0,1,6.534,19.182.539.539,0,0,0,.539.508h0a.539.539,0,0,0,.515-.571,39.49,39.49,0,0,0-6.843-19.9Z" transform="translate(-76.171 -294.007)" fill="#fff"/>
      <path id="Path_3501" data-name="Path 3501" d="M369.459,322.61c1.657-1.586,3.553-3.315,3.664-5.6a5.012,5.012,0,0,0-3.291-4.687,7.581,7.581,0,0,0-5.939.452,16.026,16.026,0,0,0-4.758,3.8,38.063,38.063,0,0,0-8.977,33.305,2.815,2.815,0,0,0,1.126,2c1.11.587,2.379-.444,3.124-1.443a22.9,22.9,0,0,0,3.672-7.28c.666-2.212.365-4.663,1.2-6.748C361.331,331.253,365.518,326.376,369.459,322.61Z" transform="translate(-131.59 -292.046)" fill="#12b428"/>
      <path id="Path_3502" data-name="Path 3502" d="M352.888,349.458h0a.444.444,0,0,0,.444-.444,43.265,43.265,0,0,1,16.208-33.4.444.444,0,0,0-.547-.69,44.169,44.169,0,0,0-16.534,34.1.444.444,0,0,0,.428.436Z" transform="translate(-132.235 -292.655)" fill="#fff"/>
      <path id="Path_3503" data-name="Path 3503" d="M356.983,371.381c2.791.9,6.288.309,7.93-2.133,1.9-2.871.714-7.3,3.251-9.619,1.427-1.293,3.513-1.427,5.4-1.816s3.965-1.427,4.258-3.331c.373-2.53-2.728-4.623-2.292-7.137s3.854-3.251,4.869-5.551c.92-2.1-.714-4.647-2.871-5.424s-4.56-.246-6.709.547-4.242,1.856-6.518,2.133-5.107-.174-6.843,1.459c-2.331,2.173-1,6.344-2.8,8.953-1.205,1.76-3.473,2.379-5.21,3.6A8.35,8.35,0,0,0,346,359.922c.055,2.886,1.586,4.972,3.759,6.637C352.05,368.32,354.12,370.461,356.983,371.381Z" transform="translate(-130.898 -297.029)" fill="#37905f"/>
      <path id="Path_3505" data-name="Path 3505" d="M359.991,352.453v-.048c.42-.6.848-1.2,1.308-1.768A31.966,31.966,0,0,1,377.349,340a.441.441,0,1,1,.238.849,31.076,31.076,0,0,0-15.566,10.34c-.127.159-.238.325-.357.484,4.988-1.84,10.079-.793,12.8,1.4a.444.444,0,0,1-.278.793.42.42,0,0,1-.278-.1c-2.688-2.165-8.239-3.124-13.274-.69a31.188,31.188,0,0,0-5.337,15.582.444.444,0,0,1-.444.412h0a.436.436,0,0,1-.412-.468,31.973,31.973,0,0,1,5.551-16.137Z" transform="translate(-132.645 -297.855)" fill="#fff"/>
    </g>
    <g id="freepik--Character--inject-45" transform="translate(215.373 87.829)">
      <path id="Path_3520" data-name="Path 3520" d="M283.523,384.6a9.936,9.936,0,0,0,7.557,2.847,22.449,22.449,0,0,0,7.985-2.07c2.561-1.078,5.765-4.092,8.533-4.036a65.34,65.34,0,0,0,8.08-.563,44.19,44.19,0,0,0-1.15-11.221l-12.9-.349c-3.481,4.893-10.253,8.961-15.376,10.483a4.583,4.583,0,0,0-3.172,3.473.326.326,0,0,0,0,.087,5.789,5.789,0,0,0,.444,1.348Z" transform="translate(-267.843 -155.303)" fill="#945d14"/>
      <path id="Path_3521" data-name="Path 3521" d="M307.575,384.363c-2.767-.056-5.971,2.958-8.532,4.036a22.449,22.449,0,0,1-7.985,2.07,9.936,9.936,0,0,1-7.557-2.847,5.79,5.79,0,0,1-.444-1.348.326.326,0,0,1,0-.087,4.25,4.25,0,0,0,0,1.76,5.792,5.792,0,0,0,.444,1.348,9.9,9.9,0,0,0,7.557,2.847,22.441,22.441,0,0,0,7.985-2.062c2.561-1.078,5.765-4.092,8.532-4.036a59.048,59.048,0,0,0,7.93-.476c.063-.587.1-1.182.127-1.768A65.35,65.35,0,0,1,307.575,384.363Z" transform="translate(-267.819 -158.324)" fill="#945d14" opacity="0.69"/>
      <path id="Path_3522" data-name="Path 3522" d="M352.08,387.807a19.442,19.442,0,0,1-.389,4.013,9.333,9.333,0,0,1-3.576,5.844,11.308,11.308,0,0,1-5.686,1.586,12.346,12.346,0,0,1-5.194-.555,5.907,5.907,0,0,1-3.045-2.545s0,.048,0,.071a5.551,5.551,0,0,0,3.5,3.735,12.251,12.251,0,0,0,5.2.547,11.212,11.212,0,0,0,5.678-1.546,9.286,9.286,0,0,0,3.576-5.852,19.37,19.37,0,0,0,.389-4,6.844,6.844,0,0,1,2.1-4.9,11.574,11.574,0,0,0,.912-.967,2.379,2.379,0,0,0,.563-1.752,5.545,5.545,0,0,0-.079-.73c-.468.571-1.586,1.919-1.871,2.189A6.867,6.867,0,0,0,352.08,387.807Z" transform="translate(-278.424 -157.692)" fill="#945d14" opacity="0.69"/>
      <path id="Path_3523" data-name="Path 3523" d="M342.186,372a15.067,15.067,0,0,1-1.039,8.16,31.529,31.529,0,0,1-4.195,7.073,21.2,21.2,0,0,0-2.2,3.283,6.066,6.066,0,0,0-.619,3.79,5.907,5.907,0,0,0,3.045,2.546,12.347,12.347,0,0,0,5.194.555,11.308,11.308,0,0,0,5.686-1.586,9.333,9.333,0,0,0,3.576-5.844,19.442,19.442,0,0,0,.389-4.012,6.867,6.867,0,0,1,2.093-4.9c.285-.27,1.4-1.586,1.871-2.189a14.979,14.979,0,0,0-1.927-5.67Z" transform="translate(-278.396 -155.881)" fill="#945d14"/>
      <path id="Path_3524" data-name="Path 3524" d="M300.66,223l.975,68.244,3.172,47.769c7.93,5.154,13.719.944,13.719.944,3.021-22.632,3.426-36.548,1.784-45.993l1.507-36.826L326.3,295.4l7.613,46.873c8.16,5.424,13.925,0,13.925,0,0-17.35,1.507-36.747-3.172-49.26a294.506,294.506,0,0,0-2.2-69.3Z" transform="translate(-271.483 -125.035)" fill="#37474f"/>
      <path id="Path_3525" data-name="Path 3525" d="M322.556,247.334l1.665,14.067-.706,17.247-3.061-28.357c-7.137-2.847-8.025-6.851-8.025-6.851a21.41,21.41,0,0,0,10.126,3.894Z" transform="translate(-273.919 -129.266)" fill="#263238"/>
      <path id="Path_3526" data-name="Path 3526" d="M303.005,123.257l-1.816-.952h-.111a1.023,1.023,0,0,0-.944.048l-16.248,9.381a2.094,2.094,0,0,0-1.047,1.816v7.866a1.015,1.015,0,0,0,.428.841h0a.945.945,0,0,0,.2.1l1.76.936-.087-1.435,15.487-8.937a2.1,2.1,0,0,0,1.055-1.816v-6.851Z" transform="translate(-267.794 -104.17)" fill="#455a64"/>
      <path id="Path_3527" data-name="Path 3527" d="M302.964,134.085l-16.248,9.381a1.055,1.055,0,0,1-1.586-.9v-7.874a2.117,2.117,0,0,1,1.047-1.816l16.3-9.381a1.047,1.047,0,0,1,1.586.912v7.866A2.085,2.085,0,0,1,302.964,134.085Z" transform="translate(-268.268 -104.403)" fill="#455a64"/>
      <path id="Path_3528" data-name="Path 3528" d="M286.46,134.965a1.055,1.055,0,0,1,.523-.9l16.256-9.381v7.866a1.055,1.055,0,0,1-.523.912l-16.248,9.373Z" transform="translate(-268.543 -104.681)" fill="#fff"/>
      <path id="Path_3529" data-name="Path 3529" d="M295.851,148.43a2.815,2.815,0,0,1,1.055-1.261,7.327,7.327,0,0,0,2.99-3.687,20.355,20.355,0,0,0,.745-5,7.8,7.8,0,0,1,1.713-4.671c-2.886-1.166-4.06,1.459-5.107,5.662l-9.666,5.551.135.317a2.379,2.379,0,0,1,0,1.967l-2.815,5.717a9.833,9.833,0,0,0,9.516,1.071,48.44,48.44,0,0,1,1.435-5.662Z" transform="translate(-268.22 -106.513)" fill="#ffa8a7"/>
      <path id="Path_3530" data-name="Path 3530" d="M293.008,164.721c.508-2.054,1.118-4.758,1.515-7.137a12.473,12.473,0,0,1-10.856-1.285,55.643,55.643,0,0,0-3.077,6.011,14.068,14.068,0,0,0,12.418,2.411Z" transform="translate(-267.328 -111.227)" fill="#e0e0e0"/>
      <path id="Path_3531" data-name="Path 3531" d="M290.769,167.53s.4-1.412.9-3.426a14.068,14.068,0,0,1-12.418-2.434,63.89,63.89,0,0,0-5,19.943,17.033,17.033,0,0,0,.293,6.019,7.089,7.089,0,0,0,3.624,4.631c2.561,1.174,5.63.159,7.93-1.435,4.369-3,7.137-7.779,9.714-12.394l7.034-25.114C298.675,153.78,295.265,156.119,290.769,167.53Z" transform="translate(-265.984 -110.61)" fill="#f0f0f0"/>
      <path id="Path_3532" data-name="Path 3532" d="M294.017,171.24c-1.649,5.836-4.227,15.154-4.227,15.154C295.658,180.431,294.017,171.24,294.017,171.24Z" transform="translate(-269.232 -114.319)" opacity="0.1"/>
      <path id="Path_3533" data-name="Path 3533" d="M306.4,158a17.675,17.675,0,0,0-5.257,5.606c-2.3,3.965-2.974,8.58-3.6,13.1q-.666,4.758-1.324,9.516a70.066,70.066,0,0,0,4.187-6.812Z" transform="translate(-270.564 -111.578)" opacity="0.1"/>
      <path id="Path_3534" data-name="Path 3534" d="M315.707,152.35l-7.5.793c-6.146,5.416-9.318,16.779-7.993,29.34a164.415,164.415,0,0,1,.293,25.9c16.653,12.164,39.2,3.331,41.838.69l-2.133-15.423a10.777,10.777,0,0,1,.841-5.067c1.586-3.656,4.377-10.84,4.758-16.407a29.118,29.118,0,0,0-3.005-14.345l-10.9-4.758Z" transform="translate(-271.328 -110.409)" fill="#f0f0f0"/>
      <path id="Path_3535" data-name="Path 3535" d="M351.432,194.253a65.069,65.069,0,0,0,4.52-14.353c-1.546.936-3.172,1.856-3.822,3.394a27.255,27.255,0,0,0-1.546,15.717,10.73,10.73,0,0,1,.849-4.758Z" transform="translate(-281.71 -116.112)" opacity="0.1"/>
      <path id="Path_3536" data-name="Path 3536" d="M315.6,166.14a81.245,81.245,0,0,0-6.177,29.34l3.085,6.637,4.845-6.344a249.728,249.728,0,0,1,.579-29.174Z" transform="translate(-273.296 -113.264)" fill="#ffeb36"/>
      <path id="Path_3537" data-name="Path 3537" d="M316.855,159.26a22.526,22.526,0,0,0,.27,5.456,4.33,4.33,0,0,0,2.331.428,18.961,18.961,0,0,0,3.743-4.528l-3.743-1.356Z" transform="translate(-274.823 -111.839)" fill="#ffeb36"/>
      <path id="Path_3538" data-name="Path 3538" d="M320.15,157.078c3.227,1.189,6.1,6.939,6.1,6.939,8.485-7.2,9.809-11.7,9.809-11.7-2.181-3.1-4.56-3.6-4.56-3.6Z" transform="translate(-275.518 -109.657)" fill="#e0e0e0"/>
      <path id="Path_3539" data-name="Path 3539" d="M318.931,157.4c-2.466.071-4.647,3.5-4.647,3.5-.4-6.011,4.647-10.642,4.647-10.642Z" transform="translate(-274.299 -109.976)" fill="#e0e0e0"/>
      <path id="Path_3540" data-name="Path 3540" d="M331.7,140.23l-11.546,4.123v4.274a18.9,18.9,0,0,0,7.319-2.657A11.236,11.236,0,0,0,331.7,140.23Z" transform="translate(-275.518 -107.9)" fill="#f28f8f"/>
      <path id="Path_3541" data-name="Path 3541" d="M331.7,140.168a11.237,11.237,0,0,1-4.227,5.741,18.905,18.905,0,0,1-7.319,2.656v6.693s12.2-5.479,12.2-8.057V139.93Z" transform="translate(-275.518 -107.838)" fill="#ffa8a7"/>
      <path id="Path_3542" data-name="Path 3542" d="M304.976,114.86a6.97,6.97,0,0,1-6.344-3.568.96.96,0,0,1,1.039-1.38,7.565,7.565,0,0,0,2.672,0,12.688,12.688,0,0,1-2.49-9.436,1.2,1.2,0,0,1,1.7-.9,23.448,23.448,0,0,0,11.855,2.379c2.181-.151,4.33-.619,6.51-.793a12.069,12.069,0,0,1,6.4.975,6.082,6.082,0,0,1,3.489,5.154,3.005,3.005,0,0,1,2.165-1.253,3.338,3.338,0,0,1,2.522.745c-1.261.7-2.49,1.4-3.751,2.086,1.293-.46,2.918.547,3.56,1.76a8.676,8.676,0,0,1,.69,4.012,31.237,31.237,0,0,1-.246,5.448,10.46,10.46,0,0,1-2.062,5,7.93,7.93,0,0,1-3.759,2.545,10.245,10.245,0,0,1-6.09-.2,24.17,24.17,0,0,1-5.551-2.76,86.76,86.76,0,0,1-12.315-9.817Z" transform="translate(-271.041 -99.459)" fill="#263238"/>
      <path id="Path_3543" data-name="Path 3543" d="M306.159,114.245a41.893,41.893,0,0,0,2.379,22.4,7.986,7.986,0,0,0,3.037,4.219c1.53.88,3.6.722,5.432.444a27.5,27.5,0,0,0,8.58-2.379,11.7,11.7,0,0,0,5.939-6.4,5.139,5.139,0,0,0,5.2-2.038,9.73,9.73,0,0,0,1.689-5.686c0-1.285-.238-2.8-1.4-3.362a3.152,3.152,0,0,0-3.291.793,9.849,9.849,0,0,0-3.172,4.805c-.849-3.124-2.173-6.146-3.021-9.278a5.256,5.256,0,0,0-1.824-3.267c-1.308-.841-3.021-.357-4.536,0a29.927,29.927,0,0,1-15.019-.254Z" transform="translate(-272.501 -102.476)" fill="#ffa8a7"/>
      <path id="Path_3544" data-name="Path 3544" d="M316.864,126.28l-3.664,6.169,4.369.817Z" transform="translate(-274.079 -105.012)" fill="#f28f8f"/>
      <path id="Path_3545" data-name="Path 3545" d="M323.133,137.77l-3.323,1.586a2.181,2.181,0,0,0,2.522.722,1.975,1.975,0,0,0,.8-2.308Z" transform="translate(-275.447 -107.39)" fill="#f28f8f"/>
      <path id="Path_3546" data-name="Path 3546" d="M323.133,137.77l-3.323,1.586a2.181,2.181,0,0,0,2.522.722,1.975,1.975,0,0,0,.8-2.308Z" transform="translate(-275.447 -107.39)" opacity="0.3"/>
      <path id="Path_3547" data-name="Path 3547" d="M321.55,140.356a2.03,2.03,0,0,0,1.158-.1,1.776,1.776,0,0,0,.88-1.752,2.094,2.094,0,0,0-1.3.452A2.117,2.117,0,0,0,321.55,140.356Z" transform="translate(-275.807 -107.542)" fill="#f28f8f"/>
      <path id="Path_3548" data-name="Path 3548" d="M325.146,126.3a1.26,1.26,0,1,1-1.38-1.118A1.255,1.255,0,0,1,325.146,126.3Z" transform="translate(-276.033 -104.782)" fill="#263238"/>
      <path id="Path_3549" data-name="Path 3549" d="M311.887,127.124a1.253,1.253,0,1,1-1.38-1.126A1.253,1.253,0,0,1,311.887,127.124Z" transform="translate(-273.289 -104.952)" fill="#263238"/>
      <path id="Path_3550" data-name="Path 3550" d="M309.655,121.249l-2.569,2.189a1.784,1.784,0,0,1,.341-2.006A2.109,2.109,0,0,1,309.655,121.249Z" transform="translate(-272.778 -103.921)" fill="#263238"/>
      <path id="Path_3551" data-name="Path 3551" d="M323.83,119.639c.983.547,1.967,1.094,2.958,1.634a1.792,1.792,0,0,0-.737-1.9,2.141,2.141,0,0,0-2.22.27Z" transform="translate(-276.279 -103.541)" fill="#263238"/>
      <path id="Path_3552" data-name="Path 3552" d="M386.12,189.652l3.965-1.967a7.073,7.073,0,0,0,2.974-2.775l1.245-2.133a8.723,8.723,0,0,1,3.648-3.394,29.7,29.7,0,0,0,6.344-4.2h0a3.307,3.307,0,0,1-.508,4.139,23.789,23.789,0,0,1-2.6,2.07l1.911.484a6.8,6.8,0,0,0,4.163-.254l5.456-2.117a.952.952,0,0,1,1.277,1.047,21.6,21.6,0,0,1-2.7,6.843,8.152,8.152,0,0,1-5.551,3.894c-2.783.523-5.48.936-7.01,1.15a8.484,8.484,0,0,0-2.522.793l-5.852,2.91Z" transform="translate(-289.175 -115.135)" fill="#ffa8a7"/>
      <path id="Path_3553" data-name="Path 3553" d="M375.4,192.478a9.912,9.912,0,0,1-.7-5.186l-7.5,3.553a156.462,156.462,0,0,1-3.172-16.557c-.888-7.525-.69-12.585-10.372-15.067l-1.023,19.824s1.189,24.186,8.128,26.866c5.741,2.212,9.793-3.251,18.556-8.913a9.9,9.9,0,0,1-3.917-4.52Z" transform="translate(-282.242 -111.831)" fill="#f0f0f0"/>
      <path id="Path_3554" data-name="Path 3554" d="M364.684,203.454c.262-1.126,2.109-3.7,5.02-4.956,0,0-.222-.88-.547-2.308C367.65,196.935,363.939,199.211,364.684,203.454Z" transform="translate(-284.717 -119.485)" opacity="0.1"/>
      <path id="Path_3555" data-name="Path 3555" d="M387.144,190.6l-6.709,3.172a9.754,9.754,0,0,0,4.647,9.706A61.478,61.478,0,0,1,391.2,200S387.636,197.142,387.144,190.6Z" transform="translate(-287.979 -118.327)" fill="#e0e0e0"/>
    </g>
    <g id="freepik--speech-bubble--inject-45" transform="translate(291.355 59.675)">
      <path id="Path_3556" data-name="Path 3556" d="M410.336,67.512a1.007,1.007,0,0,0-.515-.88h0l-4.583-2.545h-.04a.991.991,0,0,0-.983,0l-31.339,18.1a3.085,3.085,0,0,0-1.53,2.656V96.487L360.5,107.708c-.967,1.007-1.071,2.522-.317,2.76l4.322,2.379a.674.674,0,0,0,.595.19l6.3-.793v8.548a.991.991,0,0,0,.5.872h0l4.552,2.53h.111a1.007,1.007,0,0,0,.936-.04l31.339-18.1a3.045,3.045,0,0,0,1.53-2.656Zm-33.591,17.8-.1.119Zm-.293.381-.079.111Zm-.436,1.023a.789.789,0,0,0,0,.135.792.792,0,0,1,0-.135Zm.96-1.586a1.182,1.182,0,0,1,.111-.1,1.18,1.18,0,0,0-.111.055Z" transform="translate(-359.684 -63.955)" fill="#407bff"/>
      <path id="Path_3557" data-name="Path 3557" d="M405.33,82.456a1.182,1.182,0,0,0-.365.285,1.006,1.006,0,0,0-.182.325,16.2,16.2,0,0,0-.872,2.125c-.262.642-.508,1.285-.73,1.935a1.584,1.584,0,0,0-.135.365,2.378,2.378,0,0,0-.174.484c-.143.365-.285.722-.42,1.086-.055.1-.1.2-.151.3a6.079,6.079,0,0,0-.349.936.856.856,0,0,0,.1.848,2.712,2.712,0,0,0,1.221.666l.119.04.381.1.658.325.127.079c.04.056.087.1.127.151a.793.793,0,0,1,.1.19.713.713,0,0,1,0,.325c-.04.159-.079.325-.111.484s-.2.539-.293.793l-.143.349-.492,1.158c-.167.373-.285.682-.4.991a5.766,5.766,0,0,0-.3.682l-.167.341c-.135.285-.278.571-.412.864l-.119.254-.444.793-.167.317-.515.9-.135.23-.508.967-.159.238-1.19,1.729-.476.642-.135.182-1.451,1.84-.555.523a1.442,1.442,0,0,1-.373.317.563.563,0,0,1-.595,0l-.357-.182c0-.056-.048-.063-.087-.071a10.88,10.88,0,0,0-1.586-1.158.658.658,0,0,0-.706,0,1.188,1.188,0,0,0-.182.135,3.044,3.044,0,0,0-.611.69.317.317,0,0,0-.135.167c-.436.611-.92,1.158-1.372,1.745s-.833.975-1.237,1.483c-.23.262-.452.531-.666.793s-.484.595-.714.92a2.2,2.2,0,0,0-.246.341,1.189,1.189,0,0,0-.285.975,3.967,3.967,0,0,0,.055.634,2.76,2.76,0,0,0,.167.793,1.728,1.728,0,0,0,.143.484,1.3,1.3,0,0,0,.079.143.254.254,0,0,0,0,.111.716.716,0,0,0,.087.127.428.428,0,0,0,.23.262.722.722,0,0,0,.285.23l.2.079h.135l.167.063h.079a.65.65,0,0,0,.278,0,.135.135,0,0,0,.135,0,.738.738,0,0,0,.349,0,.888.888,0,0,0,.381,0,1.261,1.261,0,0,0,.381,0h.23a2.538,2.538,0,0,0,.531-.111h.087l.19-.048a.325.325,0,0,0,.135-.055l.2-.071a3.751,3.751,0,0,0,.579-.222l.159-.079.127-.071a3.112,3.112,0,0,0,.325-.206,4.154,4.154,0,0,0,.373-.246,5.078,5.078,0,0,0,.412-.309q.174-.119.357-.262l.143-.127.071-.063.2-.167a7.784,7.784,0,0,0,.587-.563,3.491,3.491,0,0,0,.428-.412.4.4,0,0,0,.119-.135,7.677,7.677,0,0,0,.793-.793,7.143,7.143,0,0,0,.6-.595,4.079,4.079,0,0,0,.444-.46l.246-.254a.666.666,0,0,0,.182-.206.206.206,0,0,0,.087-.1l.135-.127a3.171,3.171,0,0,0,.206-.254,5.483,5.483,0,0,0,.4-.452l.127-.159.127-.159a9.683,9.683,0,0,0,.706-.872,1.816,1.816,0,0,0,.3-.389,4.463,4.463,0,0,0,.4-.531,7.75,7.75,0,0,0,.563-.793c.111-.143.159-.214.214-.278l.143-.206c.1-.143.19-.285.285-.436l.182-.246a2.878,2.878,0,0,0,.159-.262,2.718,2.718,0,0,0,.309-.476,5.8,5.8,0,0,0,.412-.634,1.579,1.579,0,0,0,.127-.19.592.592,0,0,0,.056-.1l.056-.1.135-.19c.127-.2.246-.4.357-.611l.159-.262.5-.864a.992.992,0,0,0,.167-.278c.127-.206.246-.412.365-.634,0-.071.071-.143.111-.214a1.587,1.587,0,0,0,.167-.309l.428-.793c.071-.151.151-.293.222-.444a3.827,3.827,0,0,0,.309-.626c.341-.626.642-1.261.92-1.911l.127-.293a4.962,4.962,0,0,0,.3-.706,23.416,23.416,0,0,0,.864-2.228l.071-.19a11.9,11.9,0,0,0,.42-1.308c.174-.539.317-1.071.452-1.586.048-.174.1-.349.135-.531a.254.254,0,0,0,.048-.174,1.128,1.128,0,0,0,0-.127l.063-.238a15.6,15.6,0,0,0,.46-1.967v-.1a.356.356,0,0,0,0-.174v-.285a1.678,1.678,0,0,1,0-.2,4.535,4.535,0,0,0,.071-.848v-.349a.5.5,0,0,0,0-.246v-.135a2.3,2.3,0,0,0-.127-.73,3.813,3.813,0,0,0-.333-1.015,3.918,3.918,0,0,0-.856-1.4.92.92,0,0,0-.4-.333s-.04-.063-.087-.056a.706.706,0,0,0-.46-.143,3.528,3.528,0,0,0-1.459.254l-.167.071a1.793,1.793,0,0,0-.412.159l-.079.048C405.552,82.33,405.433,82.377,405.33,82.456Z" transform="translate(-365.431 -67.624)" fill="#fff"/>
      <path id="Path_3558" data-name="Path 3558" d="M379.118,135.859a1,1,0,0,0,.484.864l-4.552-2.53h0a.991.991,0,0,1-.5-.872v-8.548l4.576-.563Z" transform="translate(-362.762 -76.429)" opacity="0.1"/>
      <path id="Path_3559" data-name="Path 3559" d="M375.991,82.182l31.346-18.1a.991.991,0,0,1,.983,0h.04l4.583,2.545h0a1.031,1.031,0,0,0-1.015,0l-31.346,18.1a3.069,3.069,0,0,0-1.3,1.467l-4.552-2.625a3.045,3.045,0,0,1,1.261-1.388Z" transform="translate(-362.799 -63.955)" fill="#fff" opacity="0.2"/>
      <path id="Path_3560" data-name="Path 3560" d="M374.43,101.632V89.983a3.037,3.037,0,0,1,.27-1.253l4.52,2.593a3.172,3.172,0,0,0-.23,1.182v11.649Z" transform="translate(-362.737 -69.084)" fill="#fff" opacity="0.1"/>
      <path id="Path_3561" data-name="Path 3561" d="M360.538,116.2,371.386,105l4.591,2.553h0l-10.848,11.213c-.841.872-1.031,2.117-.587,2.6l-4.322-2.379C359.467,118.726,359.57,117.212,360.538,116.2Z" transform="translate(-359.692 -72.452)" fill="#fff" opacity="0.05"/>
    </g>
    <g id="freepik--Device--inject-45" transform="translate(95.47 49.829)">
      <path id="Path_3562" data-name="Path 3562" d="M209.594,58.1h0c-.6-2.284-4.877-6.637-9.127-6.55a3.449,3.449,0,0,0-1.2.262l-82.6,51.076a8.326,8.326,0,0,0-3.172,3.7,9.175,9.175,0,0,0-.793,3.775V304.589c0,4.948,5.25,9.666,10.182,7.4h0a2.787,2.787,0,0,0,.317-.143l82.613-51.171a8.723,8.723,0,0,0,3.965-7.462V59.043A2.22,2.22,0,0,0,209.594,58.1Z" transform="translate(-112.668 -51.54)" fill="#37474f"/>
      <path id="Path_3563" data-name="Path 3563" d="M127.2,138.174a4.369,4.369,0,0,1,2-3.735L205.9,87a1.982,1.982,0,0,1,2.95,1.863V245.5a4.361,4.361,0,0,1-2,3.727l-76.7,47.515a1.982,1.982,0,0,1-2.95-1.863Z" transform="translate(-115.669 -58.828)" fill="#407bff"/>
      <path id="Path_3564" data-name="Path 3564" d="M112.66,124.735V318.967c0,4.948,5.25,9.666,10.182,7.4h0a2,2,0,0,1-2.641-2.006V130.1a9.118,9.118,0,0,1,1.34-4.757L113.485,121a9.175,9.175,0,0,0-.825,3.735Z" transform="translate(-112.66 -65.918)" fill="#263238"/>
      <path id="Path_3565" data-name="Path 3565" d="M200.682,51.54a3.449,3.449,0,0,0-1.2.262l-82.613,51.084a8.326,8.326,0,0,0-3.172,3.7l8.088,4.393a8.144,8.144,0,0,1,2.656-2.72L207.057,57.17a1.9,1.9,0,0,1,2.744.928h0C209.206,55.806,204.932,51.452,200.682,51.54Z" transform="translate(-112.875 -51.538)" fill="#455a64"/>
      <path id="Path_3566" data-name="Path 3566" d="M187.017,99.039c.587-.365,1.063-.079,1.063.642a2.585,2.585,0,0,1-1.055,1.99l-16.209,10.174c-.579.365-1.047.056-1.047-.666a2.546,2.546,0,0,1,1.039-1.967Z" transform="translate(-124.483 -61.339)" fill="#263238"/>
      <path id="Path_3567" data-name="Path 3567" d="M165.563,115.159c.579-.365,1.047-.071,1.047.65a2.561,2.561,0,0,1-1.047,1.982c-.579.365-1.055.071-1.063-.658a2.569,2.569,0,0,1,1.063-1.975Z" transform="translate(-123.392 -64.677)" fill="#263238"/>
      <path id="Path_3568" data-name="Path 3568" d="M178.369,97.138c1.158-.73,2.093-.151,2.093,1.3a5.139,5.139,0,0,1-2.078,3.965c-1.166.722-2.125.127-2.125-1.316a5.115,5.115,0,0,1,2.109-3.949Z" transform="translate(-125.827 -60.913)" fill="#263238"/>
      <path id="Path_3569" data-name="Path 3569" d="M177.808,327.643c2.379-1.483,4.266-.3,4.274,2.649a10.463,10.463,0,0,1-4.25,8.057c-2.363,1.483-4.314.27-4.322-2.68a10.444,10.444,0,0,1,4.3-8.025Z" transform="translate(-125.257 -108.565)" fill="#263238"/>
      <path id="Path_3570" data-name="Path 3570" d="M181.674,189.588a2.148,2.148,0,0,0-.547.452,1.586,1.586,0,0,0-.278.515,26.112,26.112,0,0,0-1.332,3.354c-.4,1.007-.793,2.022-1.1,3.037a2.379,2.379,0,0,0-.206.579,4.036,4.036,0,0,0-.27.793l-.642,1.7c-.071.167-.151.325-.222.484a9.637,9.637,0,0,0-.523,1.475,1.411,1.411,0,0,0,.135,1.332,4.266,4.266,0,0,0,1.856,1.055l.19.056c.19.063.381.111.571.167l1,.508.19.135a2.863,2.863,0,0,1,.2.238.833.833,0,0,1,.151.285,1.1,1.1,0,0,1,0,.515l-.167.793c-.143.428-.293.856-.444,1.277l-.214.555c-.222.595-.452,1.2-.682,1.792s-.436,1.078-.619,1.586a10.475,10.475,0,0,0-.46,1.063c-.079.182-.167.365-.246.539-.214.452-.42.9-.626,1.356l-.19.4-.666,1.316c-.079.167-.167.333-.254.5l-.793,1.427c-.063.119-.135.238-.206.357-.285.484-.571.975-.864,1.459l-.238.373c-.6.912-1.205,1.824-1.816,2.736l-.714,1.007-.2.278-2.212,2.894-.745.848a2.379,2.379,0,0,1-.563.5.856.856,0,0,1-.9.056l-.547-.3c0-.079-.071-.1-.127-.1a16.367,16.367,0,0,0-2.45-1.824.983.983,0,0,0-1.071,0,1.919,1.919,0,0,0-.278.206,5.472,5.472,0,0,0-.936,1.086.6.6,0,0,0-.19.278c-.666.96-1.4,1.816-2.086,2.736-.642.753-1.277,1.53-1.887,2.339-.349.412-.682.833-1,1.293a16.6,16.6,0,0,0-1.086,1.435,2.9,2.9,0,0,0-.373.547,1.911,1.911,0,0,0-.436,1.538,4.971,4.971,0,0,0,.079.991,4.456,4.456,0,0,0,.254,1.182,2.656,2.656,0,0,0,.222.793,1.935,1.935,0,0,0,.111.222.562.562,0,0,0,.04.174.928.928,0,0,0,.135.206.706.706,0,0,0,.349.412,1.079,1.079,0,0,0,.428.357,2.537,2.537,0,0,0,.309.127l.206.055a1.418,1.418,0,0,0,.254.1h.119a1.229,1.229,0,0,0,.42,0,.19.19,0,0,0,.2,0,1.086,1.086,0,0,0,.531,0,1.586,1.586,0,0,0,.579,0,1.887,1.887,0,0,0,.587-.056h.349a4.53,4.53,0,0,0,.793-.182h.119a1.894,1.894,0,0,0,.3-.071.682.682,0,0,0,.19-.087c.23-.071.27-.1.317-.111a6.574,6.574,0,0,0,.864-.349l.254-.127.182-.111a3.831,3.831,0,0,0,.492-.333l.579-.381a4.962,4.962,0,0,0,.611-.5,5.2,5.2,0,0,0,.555-.4c.071-.055.143-.127.214-.19l.1-.111.3-.262c.3-.278.6-.563.888-.88a5.152,5.152,0,0,0,.658-.658.5.5,0,0,0,.174-.206,13.615,13.615,0,0,0,1.166-1.205,12.923,12.923,0,0,0,.912-.944,5.89,5.89,0,0,0,.674-.722l.365-.4a1.237,1.237,0,0,0,.285-.317.388.388,0,0,0,.127-.151,2.624,2.624,0,0,0,.206-.214,3.079,3.079,0,0,0,.317-.389,9.077,9.077,0,0,0,.619-.714l.19-.254.2-.238c.365-.452.73-.888,1.063-1.388a2.949,2.949,0,0,0,.46-.6,6.511,6.511,0,0,0,.611-.841,13.482,13.482,0,0,0,.856-1.221c.167-.23.246-.333.317-.444s.159-.214.23-.325.285-.444.42-.674l.278-.389a4.547,4.547,0,0,0,.254-.42,4.759,4.759,0,0,0,.468-.745,9.244,9.244,0,0,0,.619-1.007,1.468,1.468,0,0,0,.2-.293l.087-.151a1.585,1.585,0,0,0,.079-.167c.071-.1.135-.2.2-.3a9.43,9.43,0,0,0,.547-.952l.246-.412.793-1.364a1.864,1.864,0,0,0,.246-.444c.2-.317.381-.65.555-.991l.167-.341a3.284,3.284,0,0,0,.254-.484l.65-1.237c.111-.238.23-.468.341-.7a7,7,0,0,0,.476-.983c.515-.991.967-2,1.388-3.013l.19-.46a9.138,9.138,0,0,0,.468-1.126c.492-1.158.936-2.331,1.308-3.5a.829.829,0,0,1,.111-.293,17.133,17.133,0,0,0,.626-2.07c.278-.848.492-1.689.7-2.522.063-.285.135-.563.206-.841a.563.563,0,0,0,.071-.285.863.863,0,0,1,.056-.19l.1-.373a24.479,24.479,0,0,0,.7-3.108v-.159a.484.484,0,0,0,0-.27v-.167a.771.771,0,0,1,.04-.293v-.3a7.14,7.14,0,0,0,.111-1.332c0-.182,0-.373,0-.555a1.023,1.023,0,0,0,0-.389,1.8,1.8,0,0,1,0-.214,3.91,3.91,0,0,0-.2-1.15,5.789,5.789,0,0,0-.508-1.586,6.28,6.28,0,0,0-1.293-2.2,1.388,1.388,0,0,0-.618-.515.1.1,0,0,0-.135-.087,1.055,1.055,0,0,0-.7-.23,5.075,5.075,0,0,0-2.212.4l-.254.1a3.316,3.316,0,0,0-.626.254l-.119.079A1.2,1.2,0,0,0,181.674,189.588Z" transform="translate(-121.328 -79.901)" fill="#fff"/>
    </g>
  </g>
</svg>
