<svg xmlns="http://www.w3.org/2000/svg" width="442.882" height="330" viewBox="0 0 442.882 330">
  <g id="Login-rafiki" transform="translate(0 -48.717)">
    <g id="freepik--background-complete--inject-1">
      <rect id="Rectangle_1373" data-name="Rectangle 1373" width="442.882" height="0.221" transform="translate(0 338.716)" fill="#ebebeb"/>
      <rect id="Rectangle_1374" data-name="Rectangle 1374" width="19.203" height="0.221" transform="translate(379.302 352.968)" fill="#ebebeb"/>
      <rect id="Rectangle_1375" data-name="Rectangle 1375" width="30.213" height="0.221" transform="translate(275.083 348.38)" fill="#ebebeb"/>
      <rect id="Rectangle_1376" data-name="Rectangle 1376" width="39.443" height="0.221" transform="translate(351.285 344.748)" fill="#ebebeb"/>
      <rect id="Rectangle_1377" data-name="Rectangle 1377" width="9.867" height="0.221" transform="translate(143.387 349.212)" fill="#ebebeb"/>
      <rect id="Rectangle_1378" data-name="Rectangle 1378" width="34.004" height="0.221" transform="translate(101.491 349.212)" fill="#ebebeb"/>
      <rect id="Rectangle_1379" data-name="Rectangle 1379" width="24.536" height="0.221" transform="translate(58.735 345.474)" fill="#ebebeb"/>
      <path id="Path_3110" data-name="Path 3110" d="M209.926,299.211H38.894a5.058,5.058,0,0,1-5.049-5.058V53.73a5.058,5.058,0,0,1,5.049-5.013H209.926a5.058,5.058,0,0,1,5.058,5.058V294.153A5.058,5.058,0,0,1,209.926,299.211ZM38.894,48.894a4.836,4.836,0,0,0-4.827,4.836V294.153a4.836,4.836,0,0,0,4.827,4.836H209.926a4.845,4.845,0,0,0,4.836-4.836V53.73a4.845,4.845,0,0,0-4.836-4.836Z" fill="#ebebeb"/>
      <path id="Path_3111" data-name="Path 3111" d="M401.525,299.211H230.484a5.067,5.067,0,0,1-5.058-5.058V53.73a5.067,5.067,0,0,1,5.058-5.013H401.525a5.058,5.058,0,0,1,5.04,5.013V294.153A5.058,5.058,0,0,1,401.525,299.211ZM230.484,48.894a4.845,4.845,0,0,0-4.836,4.836V294.153a4.845,4.845,0,0,0,4.836,4.836H401.525a4.845,4.845,0,0,0,4.836-4.836V53.73a4.845,4.845,0,0,0-4.836-4.836Z" fill="#ebebeb"/>
      <path id="Path_3112" data-name="Path 3112" d="M101.863,154.681a18.521,18.521,0,0,0,0-37.043H99.586v37.043Z" fill="#e0e0e0"/>
      <circle id="Ellipse_91" data-name="Ellipse 91" cx="18.521" cy="18.521" r="18.521" transform="translate(81.047 117.638)" fill="#cf7c44"/>
      <path id="Path_3113" data-name="Path 3113" d="M98.718,138.48a24.8,24.8,0,0,1-24.8-24.8v-14.8a2.33,2.33,0,1,1,4.659,0v14.81A20.16,20.16,0,0,0,98.709,133.83a2.33,2.33,0,1,1,0,4.65Z" fill="#5f6c72"/>
      <path id="Path_3114" data-name="Path 3114" d="M55.653,111.916H96.858a4.3,4.3,0,0,0,4.163-5.4L97.434,93.005A4.3,4.3,0,0,0,93.28,89.8H59.231a4.314,4.314,0,0,0-4.163,3.206L51.525,106.5a4.3,4.3,0,0,0,4.128,5.421Z" fill="#ffeb36" opacity="0.88"/>
      <path id="Path_3115" data-name="Path 3115" d="M363.411,154.681a18.521,18.521,0,0,0,0-37.043h-2.276v37.043Z" fill="#e0e0e0"/>
      <circle id="Ellipse_92" data-name="Ellipse 92" cx="18.521" cy="18.521" r="18.521" transform="translate(342.613 117.638)" fill="#cf7c44"/>
      <path id="Path_3116" data-name="Path 3116" d="M360.284,138.48a24.8,24.8,0,0,1-24.8-24.8v-14.8a2.33,2.33,0,1,1,4.659,0v14.81a20.16,20.16,0,0,0,20.133,20.142,2.33,2.33,0,1,1,0,4.65Z" fill="#5f6c72"/>
      <path id="Path_3117" data-name="Path 3117" d="M317.218,111.916h41.206a4.3,4.3,0,0,0,4.163-5.4l-3.543-13.49a4.3,4.3,0,0,0-4.154-3.206H320.8a4.314,4.314,0,0,0-4.163,3.206l-3.543,13.49a4.3,4.3,0,0,0,4.128,5.4Z" fill="#ffeb36" opacity="0.88"/>
      <rect id="Rectangle_1380" data-name="Rectangle 1380" width="13.472" height="52.198" transform="translate(132.147 279.777) rotate(180)" fill="#e6e6e6"/>
      <path id="Path_3118" data-name="Path 3118" d="M82.155,279.768h44.7l6.75-61.091H88.9Z" fill="#f0f0f0"/>
      <path id="Path_3119" data-name="Path 3119" d="M77.309,279.768h46.184l6.75-61.091H84.068Z" fill="#f5f5f5"/>
      <path id="Path_3120" data-name="Path 3120" d="M120.154,274.959,125.84,223.5H87.4l-5.687,51.463Z" fill="#fff"/>
      <path id="Path_3121" data-name="Path 3121" d="M112.217,262.478l.275-2.064c1.426-12.914-6.634-24.421-17.1-24.421h0l-.239,2.1C93.723,251,101.783,262.5,112.262,262.5Z" fill="#f5f5f5"/>
      <rect id="Rectangle_1381" data-name="Rectangle 1381" width="39.718" height="58.948" transform="translate(92.057 338.716) rotate(180)" fill="#e6e6e6"/>
      <path id="Path_3122" data-name="Path 3122" d="M56.326,338.716H52.331V327.352h8.184Z" fill="#f0f0f0"/>
      <rect id="Rectangle_1382" data-name="Rectangle 1382" width="39.718" height="58.948" transform="translate(203.371 338.716) rotate(180)" fill="#e6e6e6"/>
      <rect id="Rectangle_1383" data-name="Rectangle 1383" width="114.804" height="51.968" transform="translate(167.135 331.745) rotate(180)" fill="#f0f0f0"/>
      <path id="Path_3123" data-name="Path 3123" d="M163.14,338.716h3.995V327.352H158.95Z" fill="#f0f0f0"/>
      <rect id="Rectangle_1384" data-name="Rectangle 1384" width="108.603" height="20.975" transform="translate(164.035 303.994) rotate(180)" fill="#e6e6e6"/>
      <path id="Path_3124" data-name="Path 3124" d="M102.492,296.731h14.482a22.888,22.888,0,0,0,16.635-7.157H85.857a22.914,22.914,0,0,0,16.635,7.157Z" fill="#f0f0f0"/>
      <rect id="Rectangle_1385" data-name="Rectangle 1385" width="108.603" height="20.975" transform="translate(164.035 328.352) rotate(180)" fill="#e6e6e6"/>
      <path id="Path_3125" data-name="Path 3125" d="M102.492,321.054h14.482a22.888,22.888,0,0,0,16.635-7.157H85.857a22.915,22.915,0,0,0,16.635,7.157Z" fill="#f0f0f0"/>
      <path id="Path_3126" data-name="Path 3126" d="M159.863,277.368h1.027c0-2.117,0-7.476.106-19.761.186-22.277.54-23.632.54-23.632l-2.445,10.284C157.542,255.64,159.544,267.084,159.863,277.368Z" fill="#e6e6e6"/>
      <path id="Path_3127" data-name="Path 3127" d="M157.834,242.7c-3.543-4.19-11.028-5.412-18.716-6.457-3.02-.407,7.928,6.493,13.286,11.391,4.163,3.809,6.82,4.863,7.972,8.654C160.961,251.557,160.863,246.34,157.834,242.7Z" fill="#e6e6e6"/>
      <path id="Path_3128" data-name="Path 3128" d="M162.5,250.21c3.543-4.19,11.028-5.4,18.716-6.448,3.02-.407-7.972,6.493-13.286,11.391-4.163,3.809-6.82,4.863-7.972,8.654C159.375,259.077,159.437,253.824,162.5,250.21Z" fill="#e6e6e6"/>
      <path id="Path_3129" data-name="Path 3129" d="M161,232.956c2.657-5.013,9.265-9.743,16.714-11.515,2.923-.7-6.776,9.247-10.461,15.669-2.861,4.978-6.652,10.842-7.246,15.058C159.119,243.86,158.357,238,161,232.956Z" fill="#e6e6e6"/>
      <path id="Path_3130" data-name="Path 3130" d="M160.677,279.768h0c-3.136,0-5.731-1.568-5.917-3.587l-.523-3.437h12.888l-.531,3.437C166.417,278.2,163.866,279.768,160.677,279.768Z" fill="#f0f0f0"/>
      <path id="Path_3131" data-name="Path 3131" d="M167.958,274.064H153.405l-.416-3.835h15.386Z" fill="#f0f0f0"/>
      <rect id="Rectangle_1386" data-name="Rectangle 1386" width="141.908" height="129.437" transform="translate(292.081 200.82) rotate(180)" fill="#e6e6e6"/>
      <rect id="Rectangle_1387" data-name="Rectangle 1387" width="143.706" height="129.437" transform="translate(290.69 200.82) rotate(180)" fill="#f5f5f5"/>
      <rect id="Rectangle_1388" data-name="Rectangle 1388" width="117.842" height="132.244" transform="translate(284.95 77.185) rotate(90)" fill="#fafafa"/>
      <path id="Path_3132" data-name="Path 3132" d="M268.732,195.027,216.684,77.185H199l52.047,117.842Z" fill="#fff"/>
      <path id="Path_3133" data-name="Path 3133" d="M246.038,195.027,193.991,77.185h-12.17l52.047,117.842Z" fill="#fff"/>
      <rect id="Rectangle_1389" data-name="Rectangle 1389" width="117.842" height="6.838" transform="translate(201.812 77.177) rotate(90)" fill="#e6e6e6"/>
      <rect id="Rectangle_1390" data-name="Rectangle 1390" width="117.842" height="6.838" transform="translate(247.27 77.177) rotate(90)" fill="#e6e6e6"/>
      <rect id="Rectangle_1391" data-name="Rectangle 1391" width="125.832" height="8.645" transform="translate(200.581 72.872) rotate(90)" fill="#f5f5f5"/>
      <rect id="Rectangle_1392" data-name="Rectangle 1392" width="125.832" height="8.645" transform="translate(246.038 72.872) rotate(90)" fill="#f5f5f5"/>
      <rect id="Rectangle_1393" data-name="Rectangle 1393" width="117.842" height="0.611" transform="translate(153.326 77.185) rotate(90)" fill="#e6e6e6"/>
      <path id="Path_3134" data-name="Path 3134" d="M144.574,63.926H298.307a.753.753,0,0,1,.744.744h0a.744.744,0,0,1-.744.735H144.574a.744.744,0,0,1-.744-.735h0a.753.753,0,0,1,.744-.744Z" fill="#e6e6e6"/>
      <path id="Path_3135" data-name="Path 3135" d="M292.08,68.806h0a1,1,0,0,0,.992-1V65.662a.992.992,0,0,0-.992-1h0a1,1,0,0,0-1,.992V67.8a1.01,1.01,0,0,0,1,1.01Z" fill="#e6e6e6"/>
      <path id="Path_3136" data-name="Path 3136" d="M155.717,68.806h0a1.01,1.01,0,0,0,1-1V65.662a1,1,0,0,0-1-1h0a.992.992,0,0,0-.992.992V67.8A1,1,0,0,0,155.717,68.806Z" fill="#e6e6e6"/>
      <rect id="Rectangle_1394" data-name="Rectangle 1394" width="143.609" height="101.367" transform="translate(288.413 166.027) rotate(180)" fill="#e0e0e0" opacity="0.6"/>
      <rect id="Rectangle_1395" data-name="Rectangle 1395" width="34.297" height="20.993" rx="4.765" transform="translate(271.885 230.272)" fill="#fafafa"/>
      <rect id="Rectangle_1396" data-name="Rectangle 1396" width="34.297" height="4.5" rx="1.603" transform="translate(271.885 226.392)" fill="#e6e6e6"/>
      <path id="Path_3137" data-name="Path 3137" d="M272.39,274.587s.452,14.766,17.653,14.766S307.7,274.587,307.7,274.587Z" fill="#f0f0f0"/>
      <path id="Path_3138" data-name="Path 3138" d="M311.612,274.587s.452,14.766,17.653,14.766,17.653-14.766,17.653-14.766Z" fill="#f0f0f0"/>
      <rect id="Rectangle_1397" data-name="Rectangle 1397" width="47.123" height="30.506" rx="6.555" transform="translate(297.829 220.768)" fill="#f0f0f0"/>
      <rect id="Rectangle_1398" data-name="Rectangle 1398" width="47.123" height="6.183" rx="2.197" transform="translate(297.829 215.435)" fill="#f5f5f5"/>
      <rect id="Rectangle_1399" data-name="Rectangle 1399" width="4.464" height="73.199" transform="translate(263.896 338.716) rotate(180)" fill="#e6e6e6"/>
      <rect id="Rectangle_1400" data-name="Rectangle 1400" width="24.172" height="14.243" transform="translate(364.164 251.265)" fill="#e6e6e6"/>
      <rect id="Rectangle_1401" data-name="Rectangle 1401" width="120.18" height="14.243" transform="translate(364.155 265.516) rotate(180)" fill="#f5f5f5"/>
      <rect id="Rectangle_1402" data-name="Rectangle 1402" width="24.172" height="14.243" transform="translate(364.164 289.308)" fill="#e6e6e6"/>
      <rect id="Rectangle_1403" data-name="Rectangle 1403" width="120.18" height="14.243" transform="translate(364.155 303.551) rotate(180)" fill="#f5f5f5"/>
      <rect id="Rectangle_1404" data-name="Rectangle 1404" width="4.464" height="73.199" transform="translate(384.076 338.716) rotate(180)" fill="#e6e6e6"/>
      <rect id="Rectangle_1405" data-name="Rectangle 1405" width="4.464" height="73.199" transform="translate(364.164 338.716) rotate(180)" fill="#f5f5f5"/>
      <rect id="Rectangle_1406" data-name="Rectangle 1406" width="4.464" height="73.199" transform="translate(248.439 338.716) rotate(180)" fill="#f5f5f5"/>
    </g>
    <g id="freepik--Shadow--inject-1">
      <ellipse id="freepik--path--inject-1" cx="171.741" cy="10.027" rx="171.741" ry="10.027" transform="translate(49.7 358.663)" fill="#f5f5f5"/>
    </g>
    <g id="freepik--Login--inject-1">
      <path id="Path_3139" data-name="Path 3139" d="M230.662,323.746h-113a7.2,7.2,0,0,1-7.086-6.767L100.446,120.738a6.351,6.351,0,0,1,6.413-6.758h113a7.192,7.192,0,0,1,7.086,6.758l10.115,196.241a6.36,6.36,0,0,1-6.4,6.767Z" fill="#407bff"/>
      <path id="Path_3140" data-name="Path 3140" d="M230.662,323.746h-113a7.2,7.2,0,0,1-7.086-6.767L100.446,120.738a6.351,6.351,0,0,1,6.413-6.758h113a7.192,7.192,0,0,1,7.086,6.758l10.115,196.241a6.36,6.36,0,0,1-6.4,6.767Z" fill="#fff" opacity="0.8"/>
      <rect id="Rectangle_1407" data-name="Rectangle 1407" width="12.498" height="0.886" transform="translate(196.205 107.585)" fill="#407bff"/>
      <rect id="Rectangle_1408" data-name="Rectangle 1408" width="4.579" height="0.886" transform="translate(187.295 107.585)" fill="#407bff"/>
      <path id="Path_3141" data-name="Path 3141" d="M235.524,311.293H127.461a6.882,6.882,0,0,1-6.8-6.457l-9.673-187.693a6.076,6.076,0,0,1,6.138-6.466H225.188a6.882,6.882,0,0,1,6.794,6.466l9.673,187.693a6.067,6.067,0,0,1-6.129,6.457Z" fill="#407bff"/>
      <path id="Path_3142" data-name="Path 3142" d="M235.524,306.979H127.461a2.586,2.586,0,0,1-2.489-2.374l-9.681-187.684A1.767,1.767,0,0,1,117.116,115H225.179a2.586,2.586,0,0,1,2.48,2.374l9.726,187.684a1.771,1.771,0,0,1-1.816,1.922ZM117.116,115.22a1.585,1.585,0,0,0-1.187.478,1.63,1.63,0,0,0-.416,1.213L125.185,304.6a2.365,2.365,0,0,0,2.268,2.161H235.516a1.541,1.541,0,0,0,1.178-.478,1.559,1.559,0,0,0,.416-1.213l-9.664-187.684a2.356,2.356,0,0,0-2.259-2.161Z" fill="#fff"/>
      <ellipse id="Ellipse_93" data-name="Ellipse 93" cx="31.888" cy="33.571" rx="31.888" ry="33.571" transform="matrix(0.698, -0.716, 0.716, 0.698, 127.387, 159.382)" fill="#fff" opacity="0.3"/>
      <path id="Path_3143" data-name="Path 3143" d="M200.183,159.978a25.43,25.43,0,0,1-2.542,12.613,24.863,24.863,0,0,1-22.56,13.862,28.123,28.123,0,0,1-23.986-13.862,27.264,27.264,0,0,1-3.844-12.613,24.881,24.881,0,0,1,25.1-26.467A28.176,28.176,0,0,1,200.183,159.978Z" fill="#fff"/>
      <path id="Path_3144" data-name="Path 3144" d="M197.614,172.591a24.863,24.863,0,0,1-22.56,13.862,28.123,28.123,0,0,1-23.986-13.862,40,40,0,0,1,22.906-7.086A43.526,43.526,0,0,1,197.614,172.591Z" fill="#407bff"/>
      <ellipse id="Ellipse_94" data-name="Ellipse 94" cx="11.488" cy="12.1" rx="11.488" ry="12.1" transform="matrix(0.698, -0.716, 0.716, 0.698, 156.541, 150.702)" fill="#407bff"/>
      <path id="Path_3145" data-name="Path 3145" d="M220.032,238.27H135.416a2.914,2.914,0,0,1-2.879-2.737l-.638-12.4a2.569,2.569,0,0,1,2.6-2.728h84.617a2.914,2.914,0,0,1,2.879,2.728l.638,12.4a2.569,2.569,0,0,1-2.6,2.737Z" fill="#fff"/>
      <path id="Path_3146" data-name="Path 3146" d="M194.124,213.558H158.782a2.914,2.914,0,0,1-2.888-2.746l-.133-2.657a2.569,2.569,0,0,1,2.6-2.737H193.69a2.914,2.914,0,0,1,2.879,2.737l.142,2.657a2.586,2.586,0,0,1-2.586,2.746Z" opacity="0.3"/>
      <path id="Path_3147" data-name="Path 3147" d="M207.269,297.891H154.327a4.969,4.969,0,0,1-4.9-4.659l-.31-6.112a4.429,4.429,0,0,1,4.429-4.659h52.924a4.969,4.969,0,0,1,4.9,4.659l.31,6.112a4.429,4.429,0,0,1-4.411,4.659Z" opacity="0.3"/>
      <path id="Path_3148" data-name="Path 3148" d="M221.583,268.262H136.957a2.923,2.923,0,0,1-2.879-2.737l-.638-12.4a2.578,2.578,0,0,1,2.6-2.737h84.617a2.914,2.914,0,0,1,2.879,2.737l.647,12.4a2.586,2.586,0,0,1-2.6,2.737Z" fill="#fff"/>
      <path id="Path_3149" data-name="Path 3149" d="M146.151,229.333a2.852,2.852,0,0,1-2.879,3.029,3.224,3.224,0,0,1-3.18-3.029,2.843,2.843,0,0,1,2.87-3.029,3.233,3.233,0,0,1,3.189,3.029Z" fill="#263238"/>
      <path id="Path_3150" data-name="Path 3150" d="M155.478,229.333a2.843,2.843,0,0,1-2.87,3.029,3.215,3.215,0,0,1-3.18-3.029,2.843,2.843,0,0,1,2.87-3.029A3.215,3.215,0,0,1,155.478,229.333Z" fill="#263238"/>
      <path id="Path_3151" data-name="Path 3151" d="M164.752,229.333a2.843,2.843,0,0,1-2.87,3.029,3.233,3.233,0,0,1-3.189-3.029,2.852,2.852,0,0,1,2.879-3.029A3.224,3.224,0,0,1,164.752,229.333Z" fill="#263238"/>
      <path id="Path_3152" data-name="Path 3152" d="M174.1,229.333a2.852,2.852,0,0,1-2.87,3.029,3.233,3.233,0,0,1-3.189-3.029,2.852,2.852,0,0,1,2.87-3.029,3.233,3.233,0,0,1,3.189,3.029Z" fill="#263238"/>
      <path id="Path_3153" data-name="Path 3153" d="M147.719,259.307a2.843,2.843,0,0,1-2.87,3.029,3.233,3.233,0,0,1-3.189-3.029,2.852,2.852,0,0,1,2.879-3.029A3.224,3.224,0,0,1,147.719,259.307Z" fill="#263238"/>
      <path id="Path_3154" data-name="Path 3154" d="M157.028,259.307a2.852,2.852,0,0,1-2.87,3.029,3.233,3.233,0,0,1-3.189-3.029,2.843,2.843,0,0,1,2.87-3.029,3.233,3.233,0,0,1,3.189,3.029Z" fill="#263238"/>
      <path id="Path_3155" data-name="Path 3155" d="M166.337,259.307a2.852,2.852,0,0,1-2.879,3.029,3.215,3.215,0,0,1-3.18-3.029,2.843,2.843,0,0,1,2.87-3.029,3.233,3.233,0,0,1,3.189,3.029Z" fill="#263238"/>
      <path id="Path_3156" data-name="Path 3156" d="M175.638,259.307a2.843,2.843,0,0,1-2.87,3.029,3.233,3.233,0,0,1-3.189-3.029,2.852,2.852,0,0,1,2.879-3.029,3.215,3.215,0,0,1,3.18,3.029Z" fill="#263238"/>
      <path id="Path_3157" data-name="Path 3157" d="M184.947,259.307a2.843,2.843,0,0,1-2.87,3.029,3.233,3.233,0,0,1-3.189-3.029,2.852,2.852,0,0,1,2.87-3.029,3.233,3.233,0,0,1,3.189,3.029Z" fill="#263238"/>
      <path id="Path_3158" data-name="Path 3158" d="M194.257,259.307a2.852,2.852,0,0,1-2.879,3.029,3.224,3.224,0,0,1-3.18-3.029,2.843,2.843,0,0,1,2.87-3.029,3.233,3.233,0,0,1,3.189,3.029Z" fill="#263238"/>
    </g>
    <g id="freepik--Character--inject-1">
      <path id="Path_3159" data-name="Path 3159" d="M294.959,156.444c.221.337.337.514.478.753l.4.655c.257.443.487.886.709,1.32.443.886.886,1.772,1.24,2.657a48.9,48.9,0,0,1,1.913,5.394,56.486,56.486,0,0,1,2.108,11.107l.062.7a4.057,4.057,0,0,1,0,.425v.469a11.331,11.331,0,0,1-.106,1.842,15.181,15.181,0,0,1-.886,3.3,22.862,22.862,0,0,1-3.065,5.315,37.989,37.989,0,0,1-8.246,7.8l-2.445-2.861a50.8,50.8,0,0,0,5.881-8.14,18.6,18.6,0,0,0,1.772-4.181,8.446,8.446,0,0,0,.292-1.9,4.151,4.151,0,0,0,0-.824V180.1a1.154,1.154,0,0,0,0-.248l-.106-.62a70.206,70.206,0,0,0-2.409-9.743c-.514-1.586-1.143-3.118-1.772-4.615-.31-.753-.664-1.488-1.019-2.2l-.549-1.045-.275-.487-.23-.39Z" fill="#803e3c"/>
      <path id="Path_3160" data-name="Path 3160" d="M286.722,198.207l3.206,6.776,2.542-5.731s-2.259-4.96-5.315-4.5Z" fill="#7f3e3b"/>
      <path id="Path_3161" data-name="Path 3161" d="M292.222,205.32l2.551-4.181-2.3-1.887-2.542,5.731Z" fill="#7f3e3b"/>
      <path id="Path_3166" data-name="Path 3166" d="M279.193,130.5c-.886,4.429-2.8,14,.275,16.945,0,0-1.2,4.429-9.38,4.429-9,0-4.3-4.429-4.3-4.429,4.907-1.169,4.783-4.819,3.924-8.238Z" fill="#7f3e3b"/>
      <path id="Path_3167" data-name="Path 3167" d="M264.205,120.118a.469.469,0,0,0,.151,0,.354.354,0,0,0,.159-.478,3.49,3.49,0,0,0-2.551-1.949.363.363,0,0,0-.39.31.354.354,0,0,0,.31.39h0a2.781,2.781,0,0,1,2,1.568.354.354,0,0,0,.319.159Z" fill="#263238"/>
      <path id="Path_3168" data-name="Path 3168" d="M261.522,124.007a16.173,16.173,0,0,1-2.586,3.543,2.578,2.578,0,0,0,2.064.655Z" fill="#630f0f"/>
      <path id="Path_3169" data-name="Path 3169" d="M262.186,123.006c-.071.593-.452,1.036-.833.992s-.647-.567-.576-1.16.452-1.036.886-.992S262.248,122.412,262.186,123.006Z" fill="#263238"/>
      <path id="Path_3170" data-name="Path 3170" d="M261.779,121.9l-1.364-.549S260.99,122.519,261.779,121.9Z" fill="#263238"/>
      <path id="Path_3171" data-name="Path 3171" d="M277.262,356.289l-7.228,1.683-4.393-16.617,7.228-1.683Z" fill="#7f3e3b"/>
      <path id="Path_3172" data-name="Path 3172" d="M288.351,361.143h-7.414l.576-17.175h7.423Z" fill="#7f3e3b"/>
      <path id="Path_3173" data-name="Path 3173" d="M280.344,360.284h8.335a.593.593,0,0,1,.593.514l.948,6.59a1.187,1.187,0,0,1-1.187,1.32c-2.905-.044-4.3-.221-7.972-.221-2.259,0-5.554.239-8.663.239s-3.286-3.082-1.984-3.357c5.811-1.258,6.732-2.976,8.689-4.624A1.922,1.922,0,0,1,280.344,360.284Z" fill="#f03" opacity="0.82"/>
      <path id="Path_3174" data-name="Path 3174" d="M269.4,356.865l7.573-3.481a.585.585,0,0,1,.744.213l3.623,5.6a1.2,1.2,0,0,1-.531,1.692c-2.657,1.169-4,1.6-7.334,3.136-2.046.939-6.2,3.1-9.017,4.429s-4.269-1.426-3.206-2.223c4.757-3.543,6.121-6.085,7.21-8.4A1.9,1.9,0,0,1,269.4,356.865Z" transform="translate(-0.767 -0.771)" fill="#f03" opacity="0.82"/>
      <path id="Path_3175" data-name="Path 3175" d="M265.64,341.355,268,350.266l7.139-2.028-2.259-8.565Z" opacity="0.2"/>
      <path id="Path_3176" data-name="Path 3176" d="M288.936,343.968h-7.423l-.292,8.858h7.423Z" opacity="0.2"/>
      <path id="Path_3177" data-name="Path 3177" d="M292.3,149.127c3.082.682,6.378,11.763,6.378,11.763l-8.716,9.274s-7.237-10.417-5.757-14.243C285.7,151.926,288.626,148.33,292.3,149.127Z" fill="#263238"/>
      <path id="Path_3178" data-name="Path 3178" d="M287.377,156.187c-1.559-1.426-2.613-1-3.331.133-.709,3.3,3.49,10.2,5.182,12.808C290.008,166.01,290.9,159.437,287.377,156.187Z" opacity="0.4"/>
      <path id="Path_3179" data-name="Path 3179" d="M253.249,149.349s-3.543,1.24,3.543,44.775h30.116c-.5-12.259-.523-19.823,5.315-45a88.823,88.823,0,0,0-12.8-1.683,95.133,95.133,0,0,0-13.676,0C259.91,147.984,253.249,149.349,253.249,149.349Z" fill="#263238"/>
      <path id="Path_3180" data-name="Path 3180" d="M252.974,166.054c.195,2.117.452,4.5.788,7.192,2.471-2.223,4.491-8.548,3.747-12.232A21.782,21.782,0,0,0,252.974,166.054Z" opacity="0.4"/>
      <path id="Path_3181" data-name="Path 3181" d="M256.2,159.437a131.15,131.15,0,0,1-5.483,12,73.746,73.746,0,0,1-7.086,11.515l-.567.7-.283.345c-.1.115-.177.221-.328.381a11.017,11.017,0,0,1-1.771,1.559,14.438,14.438,0,0,1-3.7,1.842,27.042,27.042,0,0,1-7.086,1.258,52.578,52.578,0,0,1-13.428-1.2l.487-3.72c2.037,0,4.172,0,6.2-.168a49.989,49.989,0,0,0,6.076-.673,23.916,23.916,0,0,0,5.439-1.524,8.122,8.122,0,0,0,1.958-1.187,4.046,4.046,0,0,0,.611-.638s.106-.142.177-.239l.2-.292.416-.585a87.818,87.818,0,0,0,5.926-10.727c1.772-3.764,3.543-7.671,5.164-11.515Z" fill="#803e3c"/>
      <path id="Path_3182" data-name="Path 3182" d="M253.249,149.349c-3.694.886-8.229,11.019-8.229,11.019l7.653,11.249s10.2-12.835,8.982-16.75C260.414,150.783,257.757,148.25,253.249,149.349Z" fill="#263238"/>
      <path id="Path_3183" data-name="Path 3183" d="M219.076,184.691l-6.386-2.95-.638,6.351s5.315,1.568,7.972,0Z" fill="#7f3e3b"/>
      <path id="Path_3184" data-name="Path 3184" d="M208.872,181.1l-.611,4.836,3.791,2.152.638-6.351Z" fill="#7f3e3b"/>
      <path id="Path_3185" data-name="Path 3185" d="M282.4,123.44c-1.355,7.237-1.772,10.337-5.917,13.623-6.2,4.943-14.837,1.7-15.669-5.793-.762-6.75,1.577-17.45,9.079-19.487A10.036,10.036,0,0,1,282.4,123.44Z" fill="#7f3e3b"/>
      <path id="Path_3186" data-name="Path 3186" d="M266.5,124.963c-.416,3.694-.576,13.286,7.538,13.588,9.929.363,12.906-8.122,12.02-11.515,5.173-4.207,5.917-11.444.106-16.98s-18.6-2.445-22.144,2.95C259.529,119.693,266.5,124.963,266.5,124.963Z" fill="#263238"/>
      <path id="Path_3187" data-name="Path 3187" d="M276.447,112.209c-.478-3.9-.106-6.581,3.543-6.581s8.627,1.32,10.452,5.049,1.975,9.566-3.118,8.973S277.022,116.868,276.447,112.209Z" fill="#40ff46"/>
      <path id="Path_3188" data-name="Path 3188" d="M282.1,111.27c-.886-4.641,3.268-17.715,13.357-18.6,4.677-.4,6.838,4.633,4.429,5.465,4.429-.053,7.263,5.8,3.136,6.679,3.26,2.09,2.454,6.377-2.2,8.486C297.36,114.892,283.294,117.7,282.1,111.27Z" fill="#263238"/>
      <path id="Path_3189" data-name="Path 3189" d="M292.878,116.256c-3.251,0-6.643-.478-8.751-1.887A4.331,4.331,0,0,1,282.045,111a.23.23,0,0,1,.2-.239.213.213,0,0,1,.239.2,3.951,3.951,0,0,0,1.887,3.038c4.013,2.657,13.286,1.772,16.174.886,2.5-.815,4.19-2.4,4.526-4.225a3.667,3.667,0,0,0-1.479-3.543.213.213,0,0,1,0-.31.221.221,0,0,1,.31,0,4.128,4.128,0,0,1,1.639,4.013c-.363,1.993-2.161,3.694-4.819,4.562a28.956,28.956,0,0,1-7.848.868Z" fill="#263238"/>
      <path id="Path_3190" data-name="Path 3190" d="M264.241,124.007a5.448,5.448,0,0,0-.948,3.995c.292,1.86,2.1,1.984,3.41.8s2.454-3.33,1.488-4.872a2.321,2.321,0,0,0-3.95.08Z" fill="#7f3e3b"/>
      <path id="Path_3191" data-name="Path 3191" d="M264.746,194.124s4.3,50.923,8.778,79.621c3.605,23.18,6.457,77.363,6.457,77.363H290.1s3.6-52.561,1.772-75.485c-4.633-58.017,5.7-62.747-4.934-81.49Z" fill="#ffe740"/>
      <path id="Path_3192" data-name="Path 3192" d="M277.483,213.372a49.426,49.426,0,0,0-9.557,14.42c1.178,11.444,2.578,24.146,4.066,35.271a97.77,97.77,0,0,0,5.492-49.691Z" opacity="0.4"/>
      <path id="Path_3193" data-name="Path 3193" d="M257.669,193.805s-9.345,55.617-10.815,80.684c3.667,23.18,18.672,72.181,18.672,72.181l9.2-3.339S269.635,289.9,264.1,275.278c12.463-41.959,21.621-52.57,18.955-81.154C276.668,194.124,257.669,193.805,257.669,193.805Z" fill="#ffe740"/>
      <path id="Path_3194" data-name="Path 3194" d="M264.294,349.115l12.436-3.375-.709-4.96-13.313,3.605Z" fill="#263238"/>
      <path id="Path_3195" data-name="Path 3195" d="M278.59,351.311h12.888l.673-4.517-13.632-.461Z" fill="#263238"/>
      <path id="Path_3196" data-name="Path 3196" d="M287.377,192.352l1.355,2.7c.106.213-.142.425-.487.425h-31.6c-.266,0-.5-.133-.514-.31l-.275-2.657c0-.186.221-.345.514-.345h30.515a.558.558,0,0,1,.5.186Z" fill="#407bff"/>
      <path id="Path_3197" data-name="Path 3197" d="M287.377,192.352l1.355,2.7c.106.213-.142.425-.487.425h-31.6c-.266,0-.5-.133-.514-.31l-.275-2.657c0-.186.221-.345.514-.345h30.515a.558.558,0,0,1,.5.186Z" opacity="0.5"/>
      <path id="Path_3198" data-name="Path 3198" d="M283.276,195.754h.815c.168,0,.292-.089.283-.186l-.39-3.543c0-.106-.151-.186-.31-.186h-.824c-.159,0-.283.08-.275.186l.381,3.543C282.975,195.683,283.117,195.754,283.276,195.754Z" fill="#407bff"/>
      <path id="Path_3199" data-name="Path 3199" d="M272.31,169.96a.461.461,0,0,1-.434-.328c-2.888-10.682-8.858-19.487-11.754-20.815a1.01,1.01,0,0,0-.753-.124.443.443,0,1,1-.363-.806,1.771,1.771,0,0,1,1.488.124c3.065,1.453,9.123,10.133,12.153,21.055,2.17,0,5.518-.292,6.333-.363,1.01-1.2,8.432-10.487,5.66-20.647a.434.434,0,0,1,.31-.54.443.443,0,0,1,.54.31c3.091,11.3-5.873,21.5-5.97,21.595a.408.408,0,0,1-.283.151C279.193,169.571,274.773,169.96,272.31,169.96Z" fill="#407bff"/>
      <path id="Path_3200" data-name="Path 3200" d="M286.987,176.214c-4.827-9.044-6.8-9.681-7.662-12.587a15.059,15.059,0,0,1,2.746-4.429c-.585-.168-1.842-.416-2.657-.567.089-.4.186-.788.275-1.169a8.45,8.45,0,0,0-2.657.124V156.7a11.515,11.515,0,0,0-3.428-.221q.151.629.292,1.275c-.886.168-2.232.443-2.879.629a12.754,12.754,0,0,1,2.7,4.934c-2.6,4.473-12.72,33.225,3.738,35.431S291.806,185.266,286.987,176.214Z" fill="#407bff"/>
      <path id="Path_3202" data-name="Path 3202" d="M273.045,162.458a5.57,5.57,0,0,0-.133,1.391c0,.328.886.549,1.869.647s5.111.257,4.978-.2.2-1.089.221-1.479-1.639-.407-3.029-.354S273.32,161.962,273.045,162.458Z" fill="#82a1e8"/>
      <path id="Path_3203" data-name="Path 3203" d="M263.47,195.754h.815c.159,0,.283-.089.275-.186l-.381-3.543c0-.106-.151-.186-.319-.186h-.788c-.159,0-.283.08-.275.186l.381,3.543C263.16,195.683,263.3,195.754,263.47,195.754Z" fill="#407bff"/>
    </g>
  </g>
</svg>
