<svg xmlns="http://www.w3.org/2000/svg" xmlns:xlink="http://www.w3.org/1999/xlink" width="1058" height="728" viewBox="0 0 1058 728">
  <defs>
    <clipPath id="clip-path">
      <rect id="Rectangle_119" data-name="Rectangle 119" width="1058" height="728" transform="translate(100 234)" fill="#fff" stroke="#707070" stroke-width="1"/>
    </clipPath>
  </defs>
  <g id="Mask_Group_4" data-name="Mask Group 4" transform="translate(-100 -234)" clip-path="url(#clip-path)">
    <g id="Presentation-amico" transform="translate(196.635 179.02)">
      <g id="freepik--Floor--inject-51">
        <path id="freepik--floor--inject-51-2" data-name="freepik--floor--inject-51" d="M150.449,722.96c155.7,80.029,408.063,80.029,563.8,0s155.7-209.765,0-289.776-408.063-80.011-563.8,0S-5.165,642.949,150.449,722.96Z" fill="#f5f5f5"/>
      </g>
      <g id="freepik--Shadows--inject-51">
        <path id="freepik--Shadow--inject-51" d="M578.365,633.272l86.864-50.138a10.434,10.434,0,0,1,8.609-.4l88.586,51.137c2.428,1.119,2.531,3.116.207,4.459L674.1,689.316a8.161,8.161,0,0,1-8.144-.413l-87.811-50.362a2.91,2.91,0,0,1,.224-5.269Z" fill="#e0e0e0"/>
        <ellipse id="freepik--shadow--inject-51-2" data-name="freepik--shadow--inject-51" cx="88.689" cy="42.27" rx="88.689" ry="42.27" transform="translate(350.108 506.308)" fill="#e0e0e0"/>
      </g>
      <g id="freepik--Board--inject-51">
        <path id="Path_1861" data-name="Path 1861" d="M270.544,481.738v-4.132L197.11,520.082l3.5,2.066Z" fill="#37474f"/>
        <path id="Path_1862" data-name="Path 1862" d="M179.066,202.086a1.016,1.016,0,0,1,.465,1.068L118.6,473.267l-1.722,7.662a4.666,4.666,0,0,1-2.428-.482h0l-4.081-2.359a1,1,0,0,1-.465-1.068l62.466-277.207a.981.981,0,0,1,1.446-.637Z" fill="#37474f"/>
        <path id="Path_1863" data-name="Path 1863" d="M186.607,198.4,123.831,476.934a1.722,1.722,0,0,1-.775,1.05l-4.081,2.393a4.236,4.236,0,0,1-2.118.517l1.722-7.662,61-270.819Z" fill="#455a64"/>
        <path id="Path_1864" data-name="Path 1864" d="M193.615,573.853v8.11a4.734,4.734,0,0,1-2.256-.516h0l-3.788-2.187a1.584,1.584,0,0,1-.913-1.309v-242L193.666,340Z" fill="#37474f"/>
        <path id="Path_1865" data-name="Path 1865" d="M200.622,335.972v241.98a1.6,1.6,0,0,1-.93,1.223l-3.771,2.187a4.511,4.511,0,0,1-2.29.551V340Z" fill="#455a64"/>
        <path id="Path_1866" data-name="Path 1866" d="M284.4,529.5a4.734,4.734,0,0,1-2.187-.637l-3.891-2.256a2,2,0,0,1-.964-1.343L235.643,307.631l7.008,4.046,40.255,210.058Z" fill="#37474f"/>
        <path id="Path_1867" data-name="Path 1867" d="M291.395,525.42h0a1.722,1.722,0,0,1-.964,1.326l-3.564,2.066-.172.1a4.735,4.735,0,0,1-2.29.551l-1.5-7.834L242.651,311.643l7.025-4.029,41.65,217.53h0Z" fill="#455a64"/>
        <path id="Path_1868" data-name="Path 1868" d="M198.195,531.584l79.34-45.8v-8.075l-79.34,45.8Z" fill="#455a64"/>
        <path id="Path_1869" data-name="Path 1869" d="M88.706,411.644v2.91a4.942,4.942,0,0,0,2.238,3.874L114.447,432a4.959,4.959,0,0,0,4.459,0L317.273,317.48a4.976,4.976,0,0,0,2.221-3.874V310.7a4.941,4.941,0,0,0-2.221-3.874l-23.5-13.568a4.89,4.89,0,0,0-4.477,0L90.945,407.77A4.924,4.924,0,0,0,88.706,411.644Z" fill="#ff9a40"/>
        <path id="Path_1870" data-name="Path 1870" d="M90.945,410.353l23.5,13.568a4.959,4.959,0,0,0,4.459,0L317.273,309.4a1.36,1.36,0,0,0,0-2.583l-23.5-13.568a4.89,4.89,0,0,0-4.477,0L90.945,407.77C89.7,408.476,89.7,409.63,90.945,410.353Z" fill="#fff" opacity="0.4"/>
        <path id="Path_1871" data-name="Path 1871" d="M116.668,424.454v8.075a4.6,4.6,0,0,1-2.221-.534l-23.5-13.6a4.976,4.976,0,0,1-2.238-3.874v-2.91a4.959,4.959,0,0,1,1.722-3.564,1.316,1.316,0,0,0,.448,2.273l23.5,13.568A4.648,4.648,0,0,0,116.668,424.454Z" opacity="0.1"/>
        <path id="Path_1872" data-name="Path 1872" d="M105.959,419.013l-6.543-3.771a8.936,8.936,0,0,1-3.977-6.439l-13.482-233.7a7.628,7.628,0,0,1,3.444-6.439L280.806,55.872a8.247,8.247,0,0,1,7.455,0l6.543,3.771a8.867,8.867,0,0,1,3.96,6.439l13.5,233.7a7.662,7.662,0,0,1-3.444,6.439L113.414,419.013a8.247,8.247,0,0,1-7.455,0Z" fill="#e0e0e0"/>
        <path id="Path_1873" data-name="Path 1873" d="M298.678,65.428c-.4-1.894-2.014-2.565-3.891-1.5L99.416,176.741a7.128,7.128,0,0,0-2.565,2.807l-14-8.075a7.3,7.3,0,0,1,2.583-2.738L280.806,55.872a8.265,8.265,0,0,1,7.438,0l6.577,3.788a8.953,8.953,0,0,1,3.857,5.768Z" fill="#fafafa"/>
        <path id="Path_1874" data-name="Path 1874" d="M95.938,183.2l13.5,233.681a2.428,2.428,0,0,0,3.977,2.135L308.785,306.219a7.662,7.662,0,0,0,3.444-6.44l-13.464-233.7a2.428,2.428,0,0,0-3.96-2.135L99.416,176.741a7.679,7.679,0,0,0-3.478,6.457Z" fill="#f0f0f0"/>
        <path id="Path_1875" data-name="Path 1875" d="M242.565,95.9v12.569a3.444,3.444,0,0,1-1.567,2.72L160.212,157.8a3.444,3.444,0,0,1-3.134,0l-3.84-2.238a3.444,3.444,0,0,1-1.55-2.7v-6.267l-13.946-8.075-6.887,4.029V128.2a3.444,3.444,0,0,1,1.567-2.7l80.786-46.66a3.444,3.444,0,0,1,3.134,0L241.05,93.183A3.444,3.444,0,0,1,242.565,95.9Z" fill="#263238"/>
        <path id="Path_1876" data-name="Path 1876" d="M242.565,95.9v12.569a3.444,3.444,0,0,1-1.567,2.7L160.212,157.8a3.34,3.34,0,0,1-1.567.362V142.03a3.289,3.289,0,0,0,1.567-.379l80.838-46.66c.758-.43.844-1.119.275-1.6A3.444,3.444,0,0,1,242.565,95.9Z" fill="#37474f"/>
        <path id="Path_1877" data-name="Path 1877" d="M132.233,127.309l24.845,14.342a3.444,3.444,0,0,0,3.134,0l80.838-46.66a.964.964,0,0,0,0-1.808L216.2,78.84a3.444,3.444,0,0,0-3.134,0L132.233,125.5a.947.947,0,0,0,0,1.808Z" fill="#455a64"/>
        <path id="Path_1878" data-name="Path 1878" d="M119.75,228.5c.964,16.667,13.671,23.3,28.392,14.807s25.827-28.892,24.9-45.576-13.671-23.3-28.409-14.79S118.8,211.779,119.75,228.5Z" fill="#ff9a40"/>
        <path id="Path_1879" data-name="Path 1879" d="M163.569,180.65l-17.218,32.473L144.63,182.94C151.775,178.842,158.4,178.256,163.569,180.65Z" opacity="0.1"/>
        <path id="Path_1880" data-name="Path 1880" d="M168.924,218.546l-22.573-5.424,17.218-32.473c5.424,2.531,9.074,8.471,9.573,17.1A47.073,47.073,0,0,1,168.924,218.546Z" opacity="0.2"/>
        <path id="Path_1881" data-name="Path 1881" d="M186.314,177.705l.155,2.652a1.463,1.463,0,0,0,2.376,1.291l90.428-52.187a4.614,4.614,0,0,0,2.083-3.874l-.138-2.652a1.464,1.464,0,0,0-2.393-1.291L188.415,173.9a4.614,4.614,0,0,0-2.1,3.805Z" fill="#37474f"/>
        <path id="Path_1882" data-name="Path 1882" d="M193.477,192.84l.258,4.373a3.082,3.082,0,0,1-1.395,2.583l-3.151,1.653a.964.964,0,0,1-1.584-.861l-.241-4.373a3.082,3.082,0,0,1,1.395-2.583l3.134-1.722a.964.964,0,0,1,1.584.93Z" fill="#ff9a40"/>
        <path id="Path_1883" data-name="Path 1883" d="M280.358,148.9l-77.188,44.508a1.464,1.464,0,0,1-2.376-1.291l-.138-2.652a4.6,4.6,0,0,1,2.083-3.874l77.119-44.508a1.464,1.464,0,0,1,2.376,1.291l.155,2.669A4.545,4.545,0,0,1,280.358,148.9Z" fill="#455a64"/>
        <path id="Path_1884" data-name="Path 1884" d="M194.355,212.365l.241,4.373a3.082,3.082,0,0,1-1.395,2.583l-3.134,1.808a.964.964,0,0,1-1.584-.861l-.241-4.373a3.082,3.082,0,0,1,1.395-2.583l3.134-1.722a.964.964,0,0,1,1.584.775Z" fill="#ff9a40"/>
        <path id="Path_1885" data-name="Path 1885" d="M194.355,212.365l.241,4.373a3.082,3.082,0,0,1-1.395,2.583l-3.134,1.808a.964.964,0,0,1-1.584-.861l-.241-4.373a3.082,3.082,0,0,1,1.395-2.583l3.134-1.722a.964.964,0,0,1,1.584.775Z" opacity="0.1"/>
        <path id="Path_1886" data-name="Path 1886" d="M281.236,168.511l-77.153,44.525a1.464,1.464,0,0,1-2.376-1.291l-.138-2.652a4.614,4.614,0,0,1,2.083-3.874l77.153-44.525a1.464,1.464,0,0,1,2.376,1.291l.155,2.669a4.6,4.6,0,0,1-2.1,3.857Z" fill="#455a64"/>
        <path id="Path_1887" data-name="Path 1887" d="M195.216,232.148l.258,4.356a3.082,3.082,0,0,1-1.395,2.583l-3.168,1.825a.981.981,0,0,1-1.584-.861l-.241-4.356a3.03,3.03,0,0,1,1.395-2.583l3.151-1.825a.964.964,0,0,1,1.584.861Z" fill="#ff9a40"/>
        <path id="Path_1888" data-name="Path 1888" d="M195.216,232.148l.258,4.356a3.082,3.082,0,0,1-1.395,2.583l-3.168,1.825a.981.981,0,0,1-1.584-.861l-.241-4.356a3.03,3.03,0,0,1,1.395-2.583l3.151-1.825a.964.964,0,0,1,1.584.861Z" opacity="0.2"/>
        <path id="Path_1889" data-name="Path 1889" d="M282.08,188.294,204.892,232.8a1.464,1.464,0,0,1-2.376-1.291l-.138-2.634A4.6,4.6,0,0,1,204.462,225L281.6,180.477a1.464,1.464,0,0,1,2.376,1.291l.155,2.652A4.614,4.614,0,0,1,282.08,188.294Z" fill="#455a64"/>
        <path id="Path_1890" data-name="Path 1890" d="M131.079,265.809l37.4-21.643a1.464,1.464,0,0,1,2.393,1.291l.362,6.25a4.6,4.6,0,0,1-2.083,3.874l-37.414,21.626a1.464,1.464,0,0,1-2.393-1.291l-.362-6.25a4.614,4.614,0,0,1,2.1-3.857Z" fill="#37474f"/>
        <path id="Path_1891" data-name="Path 1891" d="M123.28,316.412l54.959-31.732a1.464,1.464,0,0,1,2.376,1.291l.155,2.652a4.546,4.546,0,0,1-2.083,3.874l-54.959,31.732a1.464,1.464,0,0,1-2.376-1.291l-.155-2.686A4.546,4.546,0,0,1,123.28,316.412Z" fill="#455a64"/>
        <path id="Path_1892" data-name="Path 1892" d="M124.485,337.263l54.959-31.75a1.446,1.446,0,0,1,2.376,1.274l.155,2.669a4.58,4.58,0,0,1-2.083,3.874l-54.959,31.715a1.464,1.464,0,0,1-2.376-1.274l-.155-2.634A4.58,4.58,0,0,1,124.485,337.263Z" fill="#455a64"/>
        <path id="Path_1893" data-name="Path 1893" d="M125.69,358.131l54.959-31.784a1.464,1.464,0,0,1,2.376,1.291l.155,2.652a4.545,4.545,0,0,1-2.083,3.874l-54.959,31.715a1.464,1.464,0,0,1-2.376-1.291l-.155-2.6A4.614,4.614,0,0,1,125.69,358.131Z" fill="#455a64"/>
        <path id="Path_1894" data-name="Path 1894" d="M126.913,378.965l54.942-31.8a1.464,1.464,0,0,1,2.393,1.274l.155,2.669a4.649,4.649,0,0,1-2.1,3.874L127.412,386.7a1.464,1.464,0,0,1-2.393-1.291l-.138-2.565a4.6,4.6,0,0,1,2.032-3.874Z" fill="#455a64"/>
        <path id="Path_1895" data-name="Path 1895" d="M199.348,284.68l7.9-4.563a1.464,1.464,0,0,1,2.376,1.291l2.445,41.6a4.58,4.58,0,0,1-2.083,3.874l-7.9,4.546a1.464,1.464,0,0,1-2.393-1.274l-2.428-41.6a4.58,4.58,0,0,1,2.083-3.874Z" fill="#ff9a40"/>
        <path id="Path_1896" data-name="Path 1896" d="M202.533,339.191l7.9-4.563c1.24-.706,2.29-.413,2.359.672a4.115,4.115,0,0,1-2.135,3.237l-7.9,4.563c-1.222.723-2.29.43-2.342-.654A4.1,4.1,0,0,1,202.533,339.191Z" fill="#37474f"/>
        <path id="Path_1897" data-name="Path 1897" d="M227.482,288.864l7.9-4.563a1.464,1.464,0,0,1,2.393,1.291l1.274,21.8a4.6,4.6,0,0,1-2.083,3.874L229,315.827a1.464,1.464,0,0,1-2.393-1.291L225.4,292.7A4.6,4.6,0,0,1,227.482,288.864Z" fill="#ff9a40"/>
        <path id="Path_1898" data-name="Path 1898" d="M227.482,288.864l7.9-4.563a1.464,1.464,0,0,1,2.393,1.291l1.274,21.8a4.6,4.6,0,0,1-2.083,3.874L229,315.827a1.464,1.464,0,0,1-2.393-1.291L225.4,292.7A4.6,4.6,0,0,1,227.482,288.864Z" opacity="0.1"/>
        <path id="Path_1899" data-name="Path 1899" d="M229.514,323.7l7.9-4.563c1.24-.706,2.29-.413,2.342.672a4.081,4.081,0,0,1-2.118,3.237l-7.9,4.563c-1.24.706-2.29.413-2.342-.672a4.081,4.081,0,0,1,2.118-3.237Z" fill="#37474f"/>
        <path id="Path_1900" data-name="Path 1900" d="M252.723,241.515l7.9-4.563A1.464,1.464,0,0,1,263,238.243l3.03,53.547a4.615,4.615,0,0,1-2.083,3.874l-7.9,4.563a1.464,1.464,0,0,1-2.393-1.291l-3.013-53.547A4.58,4.58,0,0,1,252.723,241.515Z" fill="#ff9a40"/>
        <path id="Path_1901" data-name="Path 1901" d="M252.723,241.515l7.9-4.563A1.464,1.464,0,0,1,263,238.243l3.03,53.547a4.615,4.615,0,0,1-2.083,3.874l-7.9,4.563a1.464,1.464,0,0,1-2.393-1.291l-3.013-53.547A4.58,4.58,0,0,1,252.723,241.515Z" opacity="0.2"/>
        <path id="Path_1902" data-name="Path 1902" d="M256.546,308.044l7.9-4.563c1.222-.723,2.29-.43,2.342.654a4.1,4.1,0,0,1-2.118,3.254l-7.9,4.563c-1.24.706-2.29.413-2.359-.671a4.115,4.115,0,0,1,2.135-3.237Z" fill="#37474f"/>
        <path id="Path_1903" data-name="Path 1903" d="M281.081,249.555l7.9-4.563a1.464,1.464,0,0,1,2.376,1.291l1.722,29.907a4.563,4.563,0,0,1-2.1,3.857l-7.9,4.563a1.464,1.464,0,0,1-2.376-1.274l-1.722-29.907A4.614,4.614,0,0,1,281.081,249.555Z" fill="#ff9a40"/>
        <path id="Path_1904" data-name="Path 1904" d="M281.081,249.555l7.9-4.563a1.464,1.464,0,0,1,2.376,1.291l1.722,29.907a4.563,4.563,0,0,1-2.1,3.857l-7.9,4.563a1.464,1.464,0,0,1-2.376-1.274l-1.722-29.907A4.614,4.614,0,0,1,281.081,249.555Z" opacity="0.3"/>
        <path id="Path_1905" data-name="Path 1905" d="M283.475,292.428l7.9-4.563c1.222-.706,2.273-.413,2.342.672a4.115,4.115,0,0,1-2.118,3.237l-7.9,4.563c-1.24.723-2.29.413-2.359-.654a4.167,4.167,0,0,1,2.135-3.254Z" fill="#37474f"/>
      </g>
      <g id="freepik--character-2--inject-51">
        <path id="Path_1906" data-name="Path 1906" d="M477.055,327.638l13.43-7.9c.913,2.393,1.722,4.494,2.514,6.216s4.2,3.84,5.854,4.6c4.391,2.014,6.371,4.408,9.849,7.214,2.72,2.2,4.855,2.565,4.632,3.444a3.96,3.96,0,0,1-4.821,2.445,28.286,28.286,0,0,1-6.181-2.376,37.24,37.24,0,0,0,7.232,9.384c6.612,6.25,7.421,10.52-4.081,12.053-7.2,1-13.533-2.7-21.04-17.907a131.154,131.154,0,0,1-7.386-17.166Z" fill="#b16668"/>
        <path id="Path_1907" data-name="Path 1907" d="M457.84,194.252a92.02,92.02,0,0,1-5.51,12.466c-2.187,3.736-.344,63.344.758,68.338S476,328.861,476,328.861a18.285,18.285,0,0,0,17.08-5.32l-16.15-51.085L475.849,229S476.487,197.575,457.84,194.252Z" fill="#ff9a40"/>
        <path id="Path_1908" data-name="Path 1908" d="M457.84,194.252a92.02,92.02,0,0,1-5.51,12.466c-2.187,3.736-.344,63.344.758,68.338S476,328.861,476,328.861a18.285,18.285,0,0,0,17.08-5.32l-16.15-51.085L475.849,229S476.487,197.575,457.84,194.252Z" opacity="0.1"/>
        <rect id="Rectangle_1331" data-name="Rectangle 1331" width="16.133" height="27.617" transform="translate(405.618 538.195) rotate(180)" fill="#b16668"/>
        <path id="Path_1909" data-name="Path 1909" d="M455.446,517.293l16.116.551.809-29.219-16.925-.551Z" fill="#b16668"/>
        <path id="Path_1910" data-name="Path 1910" d="M391.758,313.485c0,15.5-1.068,105.029-1.068,105.029-.379,4.425-4.632,12.311-4.976,28.272-.482,23.141,3.082,77.67,3.082,77.67a21.213,21.213,0,0,0,17.958.362s12.672-77.136,15.5-100.036c2.514-20.007,11.226-73.382,11.226-73.382l12.466,67.528a92.062,92.062,0,0,0-2,25.62c.758,10.606,10.572,63.706,10.572,63.706a22.056,22.056,0,0,0,18.63,1.429s.964-83.334,1.136-92.976c.224-11.088-4.614-106.441-4.614-106.441Z" fill="#37474f"/>
        <path id="Path_1911" data-name="Path 1911" d="M405.618,530.31v-2.29c.861,0,1.395.826,1.722,2.91.241,1.481.465,2.6.947,4.563a55.266,55.266,0,0,0,2.824,8.247c2.273,5.63,4.184,7.714,9.418,14.291a61.024,61.024,0,0,1,5.01,5.768c.964,1.722,1.309,6.56-.344,7.662-6.1,4.063-15.341,4.167-21.884,2.255a13.189,13.189,0,0,1-9.487-10.675c-.241-1.481-.155-3-.327-4.494a21.28,21.28,0,0,0-4.046-9.367,28.082,28.082,0,0,1-3.082-5.165c-1.36-3.323-.276-7.059.585-10.331.758-2.858,1.567-5.992,2.531-5.734v1.722a12.792,12.792,0,0,0,8.075,2.72C399.919,532.5,405.635,532.031,405.618,530.31Z" fill="#263238"/>
        <path id="Path_1912" data-name="Path 1912" d="M471.769,512.868c.844,0,1.532,1.205,3.444,3.2a35.28,35.28,0,0,0,9.487,6.887c6.043,3.013,17.786,7.662,23.089,10.055,3.323,1.5,3.168,5.51-.258,7.8s-11.725,3.926-21.66,1.722c-5.424-1.222-12.483-6.233-16.942-5.957s-12.827.207-16.116-2.066-1.98-7.128-1.05-11.295c1.016-4.546,2.29-11.639,3.788-11.329v1.567c1.946,2.944,11.949,4.132,16.219,1.963Z" fill="#263238"/>
        <path id="Path_1913" data-name="Path 1913" d="M433.545,351.33a59.8,59.8,0,0,0,22.383-12.879s-4.339,8.11-17.218,15.668l6.233,60.125Z" fill="#263238"/>
        <path id="Path_1914" data-name="Path 1914" d="M419.719,195.336c-5.475,1.326-16.546,3.134-19.026,14.067-2.979,13.12-3.96,41.719-3.96,41.719l-1.016,63.706c11.105,8.075,51.912,12.483,75.276-4.58,0,0-2.858-76.4-2.858-88.276s-6.612-26.188-24.845-27.239Z" fill="#f5f5f5"/>
        <path id="Path_1915" data-name="Path 1915" d="M443.032,193.408s8.2,6.508,10.417,16.133,2.583,117.081,2.583,117.081,11.4-2.1,16.736-6.3c0,0-.689-84.8-1.722-98.813-1.722-21.264-1.464-27.394-27.945-29.632Z" fill="#ff9a40"/>
        <path id="Path_1916" data-name="Path 1916" d="M414.95,191.841s15.2,9.349,15.358,46.488c.155,32.163,1.222,88.19,1.222,88.19s-25.155,3.7-41.1-5.82c0,0-1.894-78.014-1.6-90.084.344-13.774,3.581-31.715,8.024-33.489A126.4,126.4,0,0,1,414.95,191.841Z" fill="#ff9a40"/>
        <path id="Path_1917" data-name="Path 1917" d="M380.049,217.547c-7.128,12.053-22.555,36.5-22.555,36.5-1.36-1.068-33.8-21.385-41.116-30.458a52.723,52.723,0,0,0-5.51-9.728c-2.789-3.65-5.682-7.214-8.609-10.727a3.271,3.271,0,0,0-.758-.706c-1.1-.654-2.565.31-2.927,1.532a6.405,6.405,0,0,0,.43,3.736c.517,1.584,2.135,3.788-.121,4.167a10.813,10.813,0,0,1-5.6-1.257c-2.858-1.24-5.682-2.6-8.437-4.063a12.706,12.706,0,0,0-5.647-2.014,7.231,7.231,0,0,0-6.577,4.993,10.8,10.8,0,0,0,1.033,8.506,21.61,21.61,0,0,0,5.923,6.457c5.045,3.908,11.725,5.7,17.838,7.318a27.428,27.428,0,0,1,8.609,4.029c4.873,3.444,30.252,25.035,42.408,33.919,11,8.058,14.1,4.907,20.524-1.6s30.631-37.1,30.631-37.1Z" fill="#b16668"/>
        <path id="Path_1918" data-name="Path 1918" d="M401.313,195.543c-16.495,4.821-15.393,10.658-26.378,28.2S356.6,249.228,356.6,249.228l-35.056-22.09A32.989,32.989,0,0,0,310.3,241.532s35.245,27.342,40.152,30.407c6.99,4.373,10.589,6.061,16.322,1.205s28.943-30.372,28.943-30.372C406.341,232.079,408.545,203.446,401.313,195.543Z" fill="#ff9a40"/>
        <path id="Path_1919" data-name="Path 1919" d="M401.313,195.543c-16.495,4.821-15.393,10.658-26.378,28.2S356.6,249.228,356.6,249.228l-35.056-22.09A32.989,32.989,0,0,0,310.3,241.532s35.245,27.342,40.152,30.407c6.99,4.373,10.589,6.061,16.322,1.205s28.943-30.372,28.943-30.372C406.341,232.079,408.545,203.446,401.313,195.543Z" opacity="0.1"/>
        <path id="Path_1920" data-name="Path 1920" d="M413.211,212.175l6.956,8.626-3.478,9.8,9.143,23.451L414.812,230.6l3.857-9.246Z" opacity="0.1"/>
        <path id="Path_1921" data-name="Path 1921" d="M462.3,209.4l-1.5,8.919,6.026,7.834-8.385,26.412,6.491-26.119-5.561-7.335Z" opacity="0.1"/>
        <circle id="Ellipse_89" data-name="Ellipse 89" cx="22.159" cy="22.159" r="22.159" transform="translate(414.486 142.319) rotate(-45)" fill="#263238"/>
        <path id="Path_1922" data-name="Path 1922" d="M407.512,158.094s3.581,16.873,5.028,19.646a7.61,7.61,0,0,0,4.408,3.564l-.275-11.88Z" fill="#263238"/>
        <path id="Path_1923" data-name="Path 1923" d="M412.006,133.92a8.264,8.264,0,0,0-6.887,2.41c-2.961,3.03-1.309,12.483,2.376,21.763l6.749.775Z" fill="#263238"/>
        <path id="Path_1924" data-name="Path 1924" d="M416.293,158.869c-1.36.809-3.289-1.722-4.959-3.547s-7.128-4.132-9.866,1.6,2.41,13.585,6.715,14.928c7.4,2.324,8.609-2.428,8.609-2.428l.534,27.549h0c5.165,6.56,16.65,14.291,22.831,13.189,4.959-.878,6.026-9.246,1.309-14.721v-8.127a47.024,47.024,0,0,0,9.986.517c5.441-.844,8.867-5.165,10.52-11.037,2.652-9.487,3.667-17.218,1.412-35.761-2.462-20.42-26.223-20.661-39.05-12.569S416.293,158.869,416.293,158.869Z" fill="#b16668"/>
        <path id="Path_1925" data-name="Path 1925" d="M416.293,161.159c-.672,0-3.271-4.3-4.959-5.837-2.342-2.135.671-21.4.671-21.4a9.366,9.366,0,0,1,1.618-10.331c3.2-3.444,7.679-7.834,22.228-6.112,10.331,1.222,21.643,4.459,30.768,0a15.5,15.5,0,0,1-5.406,16.477s-3.306,2.135-12.052,3.185-22.194-.207-24.1-.448c-2.514-.344-3.048,2.083-4.408,8.747C419.582,151.19,418.583,161.107,416.293,161.159Z" fill="#263238"/>
        <path id="Path_1926" data-name="Path 1926" d="M412.023,135.418l-8.2-4.408a4.511,4.511,0,0,1,6.2-2.049,4.873,4.873,0,0,1,2,6.457Z" fill="#263238"/>
        <path id="Path_1927" data-name="Path 1927" d="M441.362,187.313s-12.173-2.445-16.426-4.718a14.067,14.067,0,0,1-5.871-5.8,19.077,19.077,0,0,0,3.34,6.887c3.1,3.977,18.94,6.887,18.94,6.887Z" fill="#9a4a4d"/>
        <path id="Path_1928" data-name="Path 1928" d="M438.435,155.821a2.445,2.445,0,1,1-2.445-2.583,2.479,2.479,0,0,1,2.445,2.583Z" fill="#263238"/>
        <path id="Path_1929" data-name="Path 1929" d="M435.852,146.627l-5.165,2.875a3.116,3.116,0,0,1,1.205-4.15,2.927,2.927,0,0,1,3.96,1.274Z" fill="#263238"/>
        <path id="Path_1930" data-name="Path 1930" d="M440.26,172.661l5.561,2.1a2.944,2.944,0,0,1-3.788,1.842,3.116,3.116,0,0,1-1.773-3.943Z" fill="#9a4a4d"/>
        <path id="Path_1931" data-name="Path 1931" d="M460.164,148.659l-4.752-3.667a2.893,2.893,0,0,1,4.132-.637,3.151,3.151,0,0,1,.62,4.3Z" fill="#263238"/>
        <path id="Path_1932" data-name="Path 1932" d="M458.7,155.133a2.445,2.445,0,1,1-2.428-2.531,2.479,2.479,0,0,1,2.428,2.531Z" fill="#263238"/>
        <path id="Path_1933" data-name="Path 1933" d="M446.286,152.826l.792,14.652,7.662-2.6Z" fill="#9a4a4d"/>
        <path id="Path_1934" data-name="Path 1934" d="M448.938,208.474c-1.5,3.547-4.253,4.993-9.263,5.561a18.492,18.492,0,0,1-13.774-4.821l6.216-6.181,7.886,5.94.671-6.629Z" fill="#ff9a40"/>
        <path id="Path_1935" data-name="Path 1935" d="M448.938,208.474c-1.5,3.547-4.253,4.993-9.263,5.561a18.492,18.492,0,0,1-13.774-4.821l6.216-6.181,7.886,5.94.671-6.629Z" opacity="0.1"/>
        <path id="Path_1936" data-name="Path 1936" d="M445.012,206.614a16.53,16.53,0,0,1,.826,6.663,11.415,11.415,0,0,1-2.221,5.544,6.1,6.1,0,0,1-5.372.585,14.7,14.7,0,0,1-5.165-11.123l6.887.775Z" fill="#ff9a40"/>
        <path id="Path_1937" data-name="Path 1937" d="M443.618,218.667s8.092,44.766,8.42,48.21-4.649,16.426-7.731,16.529-9.143-11.484-9.246-14.756,3.185-49.467,3.185-49.467Z" fill="#ff9a40"/>
        <path id="Path_1938" data-name="Path 1938" d="M438.246,219.321a5.406,5.406,0,0,0,5.372-.585l.121.706a6.164,6.164,0,0,1-5.579,1.119Z" opacity="0.1"/>
        <path id="Path_1939" data-name="Path 1939" d="M439.95,208.973,417.137,191.6l-.1-5.165s-5.3,2-6.491,11.364a40.359,40.359,0,0,0,17.786,18.94l4.787-8.609Z" fill="#e0e0e0"/>
        <path id="Path_1940" data-name="Path 1940" d="M441.362,188.811a11.4,11.4,0,0,1,7.352,4.528c2.273,3.753,1.722,18.148,1.722,18.148l-5.424-4.873-5.062,2.445c.482-4.8,1.429-13.533,1.429-13.533Z" fill="#e0e0e0"/>
      </g>
      <g id="freepik--character-1--inject-51">
        <g id="freepik--Legs--inject-51">
          <path id="Path_1941" data-name="Path 1941" d="M582.635,595.152c.913,1.222,1.085,4.012,2,7.782s1.24,6.7.62,8.609a14.359,14.359,0,0,1-9.642,7.541,19.043,19.043,0,0,1-13.482-2.91c-5.923-3.547-8.247-6.25-21.763-7.232a31.836,31.836,0,0,1-18.94-7.834c-5.165-4.632-3.96-12.844,5.062-12.793,10.83,0,26.016,1.963,40.7,0Z" fill="#263238"/>
          <path id="Path_1942" data-name="Path 1942" d="M635.011,578.158c.913,1.222,1.085,4.012,2,7.782s1.24,6.7.62,8.609a14.36,14.36,0,0,1-9.642,7.541,19.043,19.043,0,0,1-13.482-2.91c-5.923-3.547-8.247-6.25-21.763-7.232a31.836,31.836,0,0,1-18.94-7.834c-5.165-4.632-3.96-12.844,5.062-12.793,10.83,0,26.016,1.963,40.7,0Z" fill="#263238"/>
          <path id="Path_1943" data-name="Path 1943" d="M635.046,566.777v13.258s-1.825,4.408-9.384,4.683a11.433,11.433,0,0,1-10.038-4.787V566.777Z" fill="#ffa8a7"/>
          <path id="Path_1944" data-name="Path 1944" d="M609.718,480.033c-.1,16.495,4.632,92.563,4.632,92.563s6.749,8.523,21.4,0l4.976-84.367Z" fill="#37474f"/>
          <path id="Path_1945" data-name="Path 1945" d="M585.286,584.1l-2.652,13.258s-1.825,4.408-9.384,4.683a11.347,11.347,0,0,1-10.021-4.8L564.3,582Z" fill="#ffa8a7"/>
          <path id="Path_1946" data-name="Path 1946" d="M570.22,502.761c-1.395,7.61-7.077,83.885-7.077,83.885s7.49,10.434,22.142,1.894L600.9,514.107Z" fill="#37474f"/>
        </g>
        <path id="Path_1947" data-name="Path 1947" d="M610.321,532.031v105.39a3.065,3.065,0,0,1-1.395,2.41l-3.771,2.187a3.168,3.168,0,0,1-2.789,0l-3.771-2.169a3.168,3.168,0,0,1-1.395-2.428V532.031a4.752,4.752,0,0,1,4.735-4.752h3.65a4.752,4.752,0,0,1,4.735,4.752Z" fill="#455a64"/>
        <path id="Path_1948" data-name="Path 1948" d="M600.489,527.245h0a3.289,3.289,0,0,1,3.271,3.289V641.175c0,.878-.62,1.24-1.395.809l-3.822-2.2a3,3,0,0,1-1.343-2.342V530.533A3.289,3.289,0,0,1,600.489,527.245Z" fill="#263238"/>
        <path id="Path_1949" data-name="Path 1949" d="M737.079,532.031v105.39a3.082,3.082,0,0,0,1.412,2.411l3.753,2.187a3.22,3.22,0,0,0,2.807,0l3.753-2.169a3.117,3.117,0,0,0,1.395-2.428V532.031a4.752,4.752,0,0,0-4.735-4.752h-3.65A4.752,4.752,0,0,0,737.079,532.031Z" fill="#455a64"/>
        <path id="Path_1950" data-name="Path 1950" d="M746.927,527.245h0a3.306,3.306,0,0,0-3.289,3.289V641.175c0,.878.637,1.24,1.395.809l3.822-2.2a3,3,0,0,0,1.343-2.342V530.533a3.289,3.289,0,0,0-3.271-3.289Z" fill="#263238"/>
        <path id="Path_1951" data-name="Path 1951" d="M680.26,569.239V677.711a3.082,3.082,0,0,1-1.395,2.428l-3.771,2.169a3.065,3.065,0,0,1-2.789,0l-3.771-2.169a3.134,3.134,0,0,1-1.395-2.428V569.239a1.619,1.619,0,0,1,1.618-1.6h9.883a1.619,1.619,0,0,1,1.619,1.6Z" fill="#455a64"/>
        <path id="Path_1952" data-name="Path 1952" d="M668.758,567.638h3.323a1.619,1.619,0,0,1,1.619,1.6V681.551c0,.9-.62,1.257-1.395.809l-3.771-2.169a3.133,3.133,0,0,1-1.395-2.428V569.291a1.619,1.619,0,0,1,1.618-1.653Z" fill="#263238"/>
        <path id="Path_1953" data-name="Path 1953" d="M588.85,534.528v1.464a9.435,9.435,0,0,0,3.444,6.887l77.825,44.646a7.249,7.249,0,0,0,7.232.362l78.513-45.231a8.265,8.265,0,0,0,3.719-6.457v-1.481a7.352,7.352,0,0,0-3.908-6.112l-78.462-45.3a9.332,9.332,0,0,0-7.645.344l-76.947,44.422A8.265,8.265,0,0,0,588.85,534.528Z" fill="#ff9a40"/>
        <g id="Group_489" data-name="Group 489" opacity="0.4">
          <path id="Path_1954" data-name="Path 1954" d="M592.621,528.071l76.947-44.422a9.332,9.332,0,0,1,7.645-.344l78.462,45.283c2.152,1,2.238,2.772.189,3.96L677.436,577.71a7.248,7.248,0,0,1-7.232-.379L592.38,532.737a2.583,2.583,0,0,1,.241-4.666Z" fill="#fff"/>
        </g>
        <g id="freepik--Character--inject-51">
          <path id="Path_1955" data-name="Path 1955" d="M603.606,362.918l-51.619,26.929,25.655,70.128,48.158-26.98Z" fill="#ff9a40"/>
          <path id="Path_1956" data-name="Path 1956" d="M601.23,369.77l-43.3,22.607,22.71,60.28,40.41-22.624Z" fill="#f5f5f5"/>
          <path id="Path_1957" data-name="Path 1957" d="M592.1,376.279l-.844-2.135c-.465-1.188-4.063-.482-8.058,1.567l-7.61,3.943c-3.995,2.049-6.887,4.683-6.388,5.871l.844,2.135Z" opacity="0.15"/>
          <path id="Path_1958" data-name="Path 1958" d="M591.261,367.7c-.293-.74-1.86-.62-3.444.275l-3,1.6s-1.842-4.632-8.7-1.429-5.3,8.609-5.3,8.609l-3.168,1.722c-1.722.964-3,2.359-2.789,3.1l.379,1.377,26.6-13.878Z" fill="#37474f"/>
          <path id="Path_1959" data-name="Path 1959" d="M588.385,370.821c-2.462,1.205-3.444,1.722-2.72,3.616.809,2.1,1.567,3.6,1.567,3.6l-11.76,6.147s-.981-2.652-1.412-3.685-1.291-1.5-3.168-.534l-.689-.723,18.544-9.47Z" fill="#263238"/>
          <path id="Path_1960" data-name="Path 1960" d="M592.6,376.4l-.844-2.152c-.465-1.188-4.063-.482-8.041,1.584l-7.628,3.926c-3.977,2.066-6.887,4.683-6.371,5.871l.844,2.152Z" fill="#37474f"/>
          <path id="Path_1961" data-name="Path 1961" d="M736.08,500.23s-68.372-20.661-80.252-23.881-34.694-8.729-41.323-5.751-10.038,6.457-10.658,16.064c-.121,1.808,0,10.606,0,10.606S636.888,507.5,663.972,507.5,736.08,500.23,736.08,500.23Z" fill="#263238"/>
          <path id="Path_1962" data-name="Path 1962" d="M678.366,384.01l-.5,24.914,24.019,7.937,3.289-33.867Z" fill="#ffa8a7"/>
          <path id="Path_1963" data-name="Path 1963" d="M659.443,360.094s-5.286,9.246-4.425,10.055,5.32,1.429,5.32,1.429Z" fill="#f28f8f"/>
          <path id="Path_1964" data-name="Path 1964" d="M672.236,329.67c-5.165,3.581-10.727,10.21-12.862,29.494-2.324,21.143,2.738,27.945,5.165,29.7,3.444,2.617,17.442,2.187,22.383-.1,6.233-2.875,18.44-10.675,23.606-22.383,6.1-13.774,5.475-30.872-4.339-36.33C692.329,322.387,676.661,326.622,672.236,329.67Z" fill="#ffa8a7"/>
          <path id="Path_1965" data-name="Path 1965" d="M663.438,337.332a36.156,36.156,0,0,0,9.849,7.972c2.393,3.788-1.446,14.222,3.805,16.753,0,0,2.41-7.9,9.091-6.594s7.266,9.969,2.772,15.031-8.385,2.875-8.385,2.875a15.5,15.5,0,0,0,6.043,13.878,19.542,19.542,0,0,0,17.958,2.083c4.546-1.722,12.156-8.075,16.409-16.512,8.97-17.855,11.054-32.507-.362-37.879-.9-8.454-4.425-11.829-11.9-13.895-16.047-4.442-29.047,5.441-42.58,2.652C659.082,322.18,659.443,332.494,663.438,337.332Z" fill="#263238"/>
          <path id="Path_1966" data-name="Path 1966" d="M708.79,328.757l8.316-3.564a4.528,4.528,0,1,0-8.316,3.564Z" fill="#263238"/>
          <path id="Path_1967" data-name="Path 1967" d="M733.79,492.224c0,13.137,1.722,27.307-3.805,36.932-5.286,9.315-28.6,28.719-56.543,24.019-18.251-3.082-77.239-25.551-77.239-25.551s-26.1-9.659-26.223-16.529c0-1.722-.172-3.444,0-5.165.551-9.143,4.253-18.94,23.347-18.475,20.868.551,82.783,10.692,82.783,10.692Z" fill="#37474f"/>
          <path id="Path_1968" data-name="Path 1968" d="M731.638,409.337c-2.255-6.887-11.553-16.546-20.265-14.928-16,2.979-33.489,8.161-38.138,9.521h0s2.083,35.262-16.013,45.937l-.637,61.984s1.309,4.425,8.213,8.815c7.473,4.752,21.935,6.887,40.118,1.911,24.432-6.629,28.874-20.661,28.874-20.661s-.189-41.564,0-60.572C733.962,424.144,733.187,414.055,731.638,409.337Z" fill="#f0f0f0"/>
          <path id="Path_1969" data-name="Path 1969" d="M657.136,458.15s9.074-9.4,12.414-20.782c0,0,.5,16.96-12.466,25.947Z" fill="#e0e0e0"/>
          <path id="Path_1970" data-name="Path 1970" d="M673.218,403.931c-9.883,2.961-15.892,3.444-26.808,20.283s-35.607,48.21-37.965,52.256c-3.289,5.561-3.908,14.015-1.068,19.129,2.652,4.787,9.022,1.963,19.852-7.524,10.468-9.194,32.559-34.436,32.559-34.436A178.344,178.344,0,0,0,673.218,403.931Z" fill="#ffa8a7"/>
          <path id="Path_1971" data-name="Path 1971" d="M673.218,403.931a75.3,75.3,0,0,0-14.274,4.528,25.827,25.827,0,0,0-12.173,8.4c-8.867,11.846-20.3,31.87-20.3,31.87s2.032,15.5,21.126,21.006l9.384-11.433a56.681,56.681,0,0,0,10.124-15.083C671.5,433.769,676.334,418.772,673.218,403.931Z" fill="#f0f0f0"/>
          <path id="Path_1972" data-name="Path 1972" d="M610.717,497.957c-9.143-1.1-28.857-28.737-34.918-38.189a67.425,67.425,0,0,0-18.492-19.491c-9.659-7.145-8.264-18.13-4.046-28.186,1.464-3.444,6.422-1.222,6.422-1.222l1.722,4.787,3.03,8.265c2.049,1.894,3.2,2.514,3.34,1.946.258-1.068-1.5-5.51-1.446-10.141,0-5.579,3.943-1.911,5.165,0a67.711,67.711,0,0,1,4.115,9.194c1.946,4.993,1.154,10.038,3.444,13.447s34.195,33.885,34.195,33.885Z" fill="#ffa8a7"/>
        </g>
        <path id="Path_1973" data-name="Path 1973" d="M693.879,500.333v69.474a1.567,1.567,0,0,0,.689,1.222l1.894,1.085a1.533,1.533,0,0,0,1.395,0l1.877-1.085a1.549,1.549,0,0,0,.706-1.222V500.333a2.376,2.376,0,0,0-2.376-2.376h-1.825a2.359,2.359,0,0,0-2.359,2.376Z" fill="#263238"/>
        <path id="Path_1974" data-name="Path 1974" d="M698.838,497.957h0a1.722,1.722,0,0,0-1.722,1.722v71.953c0,.448.327.637.706.413l1.911-1.1a1.532,1.532,0,0,0,.672-1.171V499.524a1.722,1.722,0,0,0-1.567-1.567Z" fill="#455a64"/>
        <path id="Path_1975" data-name="Path 1975" d="M728.883,480.55v69.474a1.567,1.567,0,0,0,.689,1.222l1.894,1.085a1.533,1.533,0,0,0,1.395,0l1.877-1.085a1.584,1.584,0,0,0,.706-1.222V480.55a2.376,2.376,0,0,0-2.376-2.376h-1.825a2.359,2.359,0,0,0-2.359,2.376Z" fill="#263238"/>
        <path id="Path_1976" data-name="Path 1976" d="M733.79,478.174h0a1.722,1.722,0,0,0-1.636,1.636v72.108c0,.448.327.637.706.413l1.911-1.1a1.532,1.532,0,0,0,.672-1.171V479.81A1.722,1.722,0,0,0,733.79,478.174Z" fill="#455a64"/>
        <path id="Path_1977" data-name="Path 1977" d="M749.648,422.646a9,9,0,0,0-7.4-.224L680.1,451.107a6.887,6.887,0,0,0-2.738,2.479l-.293.482c-.138.275-.275.551-.4.844a6.164,6.164,0,0,0-.482,2.307v46.006a8.024,8.024,0,0,0,3.444,6.336,9.108,9.108,0,0,0,7.008.362,1.877,1.877,0,0,0,.4-.155l3.082-1.429,59.04-27.273a7.3,7.3,0,0,0,3.908-6.1V428.965a8.006,8.006,0,0,0-3.426-6.319Z" fill="#ff9a40"/>
        <path id="Path_1978" data-name="Path 1978" d="M753.143,428.965a2.548,2.548,0,0,0-3.908-2.5l-62.122,28.685a7.008,7.008,0,0,0-2.738,2.5l-6.99-4.046a6.887,6.887,0,0,1,2.72-2.5l62.122-28.7a9.005,9.005,0,0,1,7.4.224A8.006,8.006,0,0,1,753.143,428.965Z" fill="#fff" opacity="0.4"/>
        <path id="Path_1979" data-name="Path 1979" d="M686.716,509.941a9.108,9.108,0,0,1-7.008-.362,8.024,8.024,0,0,1-3.444-6.336V457.237a6.164,6.164,0,0,1,.482-2.307c.12-.293.258-.568.4-.844l.293-.482,6.99,4.046a6.887,6.887,0,0,0-1.171,3.616v46.023a2.5,2.5,0,0,0,3.461,2.652Z" opacity="0.1"/>
      </g>
    </g>
  </g>
</svg>
