<svg xmlns="http://www.w3.org/2000/svg" width="365.274" height="376.07" viewBox="0 0 365.274 376.07">
  <g id="Mobile_login-cuate" data-name="Mobile login-cuate" transform="translate(-46.98 -40.91)">
    <g id="freepik--background-complete--inject-5" transform="translate(46.98 40.91)">
      <rect id="Rectangle_1345" data-name="Rectangle 1345" width="122.412" height="186.731" transform="translate(122.412 186.74) rotate(180)" fill="#ebebeb"/>
      <rect id="Rectangle_1346" data-name="Rectangle 1346" width="51.741" height="83.059" transform="translate(122.406 90.536) rotate(180)" fill="#fff"/>
      <rect id="Rectangle_1347" data-name="Rectangle 1347" width="51.741" height="83.059" transform="translate(65.021 90.536) rotate(180)" fill="#fff"/>
      <rect id="Rectangle_1348" data-name="Rectangle 1348" width="51.741" height="83.059" transform="translate(122.406 178.994) rotate(180)" fill="#fff"/>
      <rect id="Rectangle_1349" data-name="Rectangle 1349" width="51.741" height="83.059" transform="translate(65.021 178.994) rotate(180)" fill="#fff"/>
      <path id="Path_2321" data-name="Path 2321" d="M94.2,40.91H46.98V308.064H74.313L55.239,172.121Z" transform="translate(-46.98 -40.91)" fill="#dbdbdb"/>
      <path id="Path_2322" data-name="Path 2322" d="M86.9,48.94,79.412,79.988l-7.62,31.021-15.25,62.025.009-.153L63.6,237.7l3.527,32.416L70.5,302.544l-3.815-32.38-3.68-32.4L55.66,172.98V172.9l.018-.081,15.538-61.953,7.773-30.976Z" transform="translate(-47.851 -41.715)" fill="#ebebeb"/>
      <path id="Path_2323" data-name="Path 2323" d="M50.06,55.03l.216,26.793.126,26.793L50.51,162.2,50.4,215.778l-.126,26.793-.216,26.793-.225-26.793-.126-26.793-.1-53.577.108-53.586.126-26.793Z" transform="translate(-47.244 -42.326)" fill="#ebebeb"/>
      <path id="Path_2324" data-name="Path 2324" d="M59.126,60.61,57.659,89.085,56.067,117.56,52.9,174.493h0c.315,10.58.522,21.152.783,31.723l.747,31.723.747,31.723.6,31.732L54.7,269.689l-.9-31.723-.9-31.714c-.288-10.58-.639-21.152-.9-31.723h0l3.491-56.923,1.754-28.457Z" transform="translate(-47.484 -42.886)" fill="#ebebeb"/>
      <path id="Path_2325" data-name="Path 2325" d="M65.431,299.233,62.336,268.5l-2.978-30.751c-1.916-20.5-3.914-41-5.758-61.512v-.117l8.754-47.872,4.435-23.914,4.5-23.914-4.13,23.986-4.2,23.959-8.52,47.944v-.117c1.961,20.5,3.77,41.017,5.659,61.53l2.7,30.769Z" transform="translate(-47.644 -44.873)" fill="#ebebeb"/>
      <rect id="Rectangle_1350" data-name="Rectangle 1350" width="10.661" height="6.226" transform="translate(10.661 134.939) rotate(180)" fill="#dbdbdb"/>
      <path id="Path_2326" data-name="Path 2326" d="M130.56,40.91h47.225V308.064H150.452l19.073-135.943Z" transform="translate(-55.37 -40.91)" fill="#dbdbdb"/>
      <path id="Path_2327" data-name="Path 2327" d="M139.65,48.94l7.908,30.949,7.773,30.976,15.538,61.953.027.081-.009.081-7.35,64.787-3.68,32.4-3.815,32.38,3.374-32.425,3.527-32.416L170,172.881l.009.153-15.25-62.025-7.62-31.021Z" transform="translate(-56.283 -41.715)" fill="#ebebeb"/>
      <path id="Path_2328" data-name="Path 2328" d="M179.87,55.03l.225,26.793.126,26.793.1,53.586-.1,53.577-.126,26.793-.225,26.793-.216-26.793-.126-26.793L179.42,162.2l.108-53.586.126-26.793Z" transform="translate(-60.274 -42.326)" fill="#ebebeb"/>
      <path id="Path_2329" data-name="Path 2329" d="M170.12,60.61l1.871,28.457,1.8,28.457,3.419,56.923h0c-.234,10.571-.585,21.143-.9,31.723l-.9,31.714-.9,31.8L173.458,301.4l.6-31.732.747-31.723.747-31.723c.27-10.571.468-21.143.783-31.723h0l-3.2-56.932-1.592-28.475Z" transform="translate(-59.341 -42.886)" fill="#ebebeb"/>
      <path id="Path_2330" data-name="Path 2330" d="M162.623,299.232l2.618-30.778,2.7-30.769c1.889-20.513,3.7-41.026,5.659-61.53v.153l-8.529-47.944-4.2-23.968L156.73,80.41l4.5,23.914,4.444,23.923,8.754,47.872v.117c-1.853,20.513-3.842,41.008-5.758,61.512l-3,30.751Z" transform="translate(-57.997 -44.872)" fill="#ebebeb"/>
      <rect id="Rectangle_1351" data-name="Rectangle 1351" width="10.661" height="6.226" transform="translate(111.742 128.704)" fill="#dbdbdb"/>
      <path id="Path_2331" data-name="Path 2331" d="M336.85,269.18v123.5h74.674V269.18ZM404.723,347.1h-61.1V314.947h61.1Zm0-39.811h-61.1V275.145h61.1Z" transform="translate(-76.084 -64.474)" fill="#ebebeb"/>
      <rect id="Rectangle_1352" data-name="Rectangle 1352" width="29.852" height="123.491" transform="translate(335.422 204.706)" fill="#dbdbdb"/>
      <rect id="Rectangle_1353" data-name="Rectangle 1353" width="14.521" height="32.146" transform="translate(267.547 210.863)" fill="#dbdbdb"/>
      <path id="Path_2332" data-name="Path 2332" d="M405.921,394.812H344.31V363.26h61.611Zm-60.711-.9h59.811V364.16H345.21Z" transform="translate(-76.832 -73.911)" fill="#dbdbdb"/>
      <rect id="Rectangle_1354" data-name="Rectangle 1354" width="12.056" height="6.1" transform="translate(289.714 298.418)" fill="#dbdbdb"/>
      <path id="Path_2333" data-name="Path 2333" d="M385.445,379.442H372.48V373.36h12.965Zm-12.065-.9h11.165V374.26H373.38Z" transform="translate(-79.658 -74.924)" fill="#dbdbdb"/>
      <rect id="Rectangle_1355" data-name="Rectangle 1355" width="14.521" height="32.146" transform="translate(267.547 250.483)" fill="#dbdbdb"/>
      <path id="Path_2334" data-name="Path 2334" d="M418.8,211.646c8.547,8.367,9.978,21.3,8.178,32.641-.045.261-.441.189-.441-.054,0-2.582.072-5.137.063-7.683l-.126-.342a17.2,17.2,0,0,1-5.551-5.965c-1.431-2.807-1.988-5.974-3.086-8.907-.1-.279.2-.2.4-.054,5.2,3.833,6.856,7.962,8.349,13.5a45.591,45.591,0,0,0-.9-8.583,29.31,29.31,0,0,0-7.1-14.3.166.166,0,1,1,.216-.252Z" transform="translate(-84.206 -58.378)" fill="#a6a6a6"/>
      <path id="Path_2335" data-name="Path 2335" d="M416.256,211.868c-1.466.054-2.384,2.4-3.536,3.086a1.1,1.1,0,0,1-1.619-.252c-1.134-1.583.423-3.545,1.889-4.633a16.38,16.38,0,0,1-3.05,1.4,1.071,1.071,0,0,1-1.377-.828c-.495-2.159,2.213-3.122,4.076-3.167-.9-.63-3.491-2.33-2.114-3.167s4.417,1.592,5.4,2.393c1.457,1.179,3.194,2.942,3.257,4.786C419.27,213.649,417.389,212.318,416.256,211.868Z" transform="translate(-83.272 -57.591)" fill="#dbdbdb"/>
      <path id="Path_2336" data-name="Path 2336" d="M416.922,212.449c-1.88-.855-5.5.378-5.8-.333-.621-1.449,2.267-2.438,3.824-2.636-1.44-.387-4.184-1.008-4.1-2.384.108-1.691,4.22-.243,6.3,1.359,2.627,2.006,2.609,3.95,2.177,4.337C418.721,213.321,417.228,212.593,416.922,212.449Z" transform="translate(-83.506 -57.812)" fill="#ebebeb"/>
      <path id="Path_2337" data-name="Path 2337" d="M439.446,210.725c-8.853,8.034-10.8,20.909-9.411,32.308,0,.261.432.207.441,0,.1-2.582.117-5.137.225-7.683.054-.117.09-.225.144-.342a17.094,17.094,0,0,0,5.776-5.749c1.529-2.753,2.213-5.893,3.419-8.781.108-.279-.2-.207-.4-.063-5.335,3.6-7.153,7.692-8.853,13.144a45.537,45.537,0,0,1,1.233-8.547,29.248,29.248,0,0,1,7.638-14.017C439.806,210.815,439.6,210.581,439.446,210.725Z" transform="translate(-85.391 -58.283)" fill="#a6a6a6"/>
      <path id="Path_2338" data-name="Path 2338" d="M441.955,211.04c1.466.108,2.3,2.483,3.419,3.212a1.089,1.089,0,0,0,1.628-.189c1.2-1.538-.279-3.6-1.709-4.705a16.172,16.172,0,0,0,3,1.52,1.062,1.062,0,0,0,1.4-.774c.576-2.141-2.087-3.2-3.95-3.32.9-.585,3.6-2.2,2.231-3.077s-4.5,1.422-5.5,2.186c-1.493,1.125-3.293,2.816-3.428,4.66C438.878,212.7,440.8,211.445,441.955,211.04Z" transform="translate(-86.335 -57.527)" fill="#dbdbdb"/>
      <path id="Path_2339" data-name="Path 2339" d="M441.515,211.6c1.907-.783,5.47.585,5.8-.117.675-1.422-2.168-2.519-3.716-2.771,1.448-.333,4.22-.846,4.184-2.231,0-1.7-4.2-.4-6.3,1.116-2.7,1.907-2.753,3.851-2.339,4.256C439.68,212.4,441.191,211.735,441.515,211.6Z" transform="translate(-86.327 -57.744)" fill="#ebebeb"/>
      <path id="Path_2340" data-name="Path 2340" d="M429.7,230.957a87.391,87.391,0,0,1-2.744,12.713.317.317,0,0,1-.621-.126c.576-3.923,1.637-7.764,2.222-11.7a58.724,58.724,0,0,0,.72-11.966c-.378-6.595-2.168-13.612-6.469-18.777-.1-.126.1-.3.2-.18,8.619,10.05,7.251,22.366,7.242,23.473,1.224-4.157,2.474-8.925,7.09-13.162.2-.189.36-.1.324.216-.828,7.71-2.969,11.741-7.44,15.871C430.049,228.546,429.9,229.779,429.7,230.957Z" transform="translate(-84.704 -57.293)" fill="#a6a6a6"/>
      <path id="Path_2341" data-name="Path 2341" d="M421.854,201.214c-1.547-.684-3.689,1.287-5.227,1.422a1.26,1.26,0,0,1-1.547-1.08c-.387-2.213,2.213-3.455,4.283-3.86-1.3-.072-2.582.27-3.86-.072a1.233,1.233,0,0,1-1.017-1.547c.576-2.492,3.869-2.123,5.821-1.242-.621-1.1-2.447-4.166-.6-4.345s3.788,3.878,4.409,5.209c.9,1.952,1.8,4.66.972,6.6C424.085,204.578,422.8,202.257,421.854,201.214Z" transform="translate(-83.867 -56.197)" fill="#dbdbdb"/>
      <path id="Path_2342" data-name="Path 2342" d="M422.348,202.065c-1.521-1.8-5.893-2.375-5.848-3.266.081-1.8,3.6-1.395,5.29-.81-1.3-1.125-3.833-3.149-3.05-4.5.954-1.7,4.5,1.88,5.848,4.579,1.709,3.41.72,5.4.072,5.6C423.742,203.873,422.573,202.371,422.348,202.065Z" transform="translate(-84.074 -56.458)" fill="#ebebeb"/>
      <path id="Path_2343" data-name="Path 2343" d="M434.624,236.9l3.8,29.042H415.29c.477-2.573,4.786-29.078,4.786-29.078Z" transform="translate(-83.952 -60.957)" fill="#ebebeb"/>
    </g>
    <g id="freepik--Shadow--inject-5" transform="translate(51.218 380.237)">
      <path id="Path_2344" data-name="Path 2344" d="M408.5,437.182c0,10.148-79.868,18.372-178.4,18.372s-178.4-8.223-178.4-18.372,79.868-18.372,178.4-18.372S408.5,427.078,408.5,437.182Z" transform="translate(-51.69 -418.81)" fill="#ebebeb"/>
    </g>
    <g id="freepik--Floor--inject-5" transform="translate(46.98 368.667)">
      <path id="Path_2345" data-name="Path 2345" d="M46.98,406.391l45.665-.216,45.656-.081,91.321-.144,91.321.144,45.656.081,45.656.216-45.656.225-45.656.081-91.321.144L138.3,406.7l-45.656-.081Z" transform="translate(-46.98 -405.95)" fill="#263238"/>
    </g>
    <g id="freepik--Device--inject-5" transform="translate(138.176 59.812)">
      <path id="Path_2346" data-name="Path 2346" d="M315.846,61.92h-152.1A15.513,15.513,0,0,0,148.36,77.562V390.049a15.522,15.522,0,0,0,15.385,15.642h152.1a15.54,15.54,0,0,0,15.4-15.642V77.562a15.531,15.531,0,0,0-15.4-15.642ZM321.622,380.4c0,8.225-6.172,14.879-13.783,14.879H171.77c-7.629,0-13.8-6.654-13.8-14.879V89.406c-.036-16.756,6.172-17.537,13.8-17.537H199.03c1.583,0,2.879,1.8,2.879,4.023v.961c0,5.217,2.861,5.235,6.37,5.235h63.014c3.545,0,6.388,0,6.388-5.235v-1c0-2.227,1.278-4.023,2.888-4.023h27.252c7.611,0,13.783,2.227,13.783,17.573Z" transform="translate(-148.359 -61.92)" fill="#37474f"/>
      <path id="Path_2347" data-name="Path 2347" d="M322.693,90.531V381.485c0,8.224-6.172,14.877-13.783,14.877H172.841c-7.629,0-13.8-6.653-13.8-14.877V90.531C159,73.777,165.212,73,172.841,73H200.1c1.583,0,2.879,1.8,2.879,4.022v.961c0,5.216,2.861,5.234,6.37,5.234h63.014c3.545,0,6.388,0,6.388-5.234v-1c0-2.227,1.278-4.022,2.888-4.022h27.252C316.522,73,322.693,75.187,322.693,90.531Z" transform="translate(-149.431 -63.027)" fill="#ebebeb"/>
      <path id="Path_2348" data-name="Path 2348" d="M322.689,90.567V213.123H159V90.567C159,73.779,165.208,73,172.837,73H200.1c1.583,0,2.879,1.8,2.879,4.031v.963c0,5.227,2.861,5.245,6.37,5.245h63.014c3.545,0,6.388,0,6.388-5.245v-1c0-2.231,1.278-4.031,2.888-4.031h27.252C316.518,73,322.689,75.191,322.689,90.567Z" transform="translate(-149.427 -63.027)" fill="#45bfec"/>
      <g id="freepik--u5Zjqx--inject-5" transform="translate(40.073 15.286)">
        <path id="Path_2349" data-name="Path 2349" d="M198.793,80.107l-.261.261c-.054,0-.1.1-.153.153a3.509,3.509,0,0,0-2.537-1.053A3.473,3.473,0,0,0,193.3,80.52l-.144-.153-.261-.261h0l.333-.288a3.652,3.652,0,0,1,.774-.495,3.76,3.76,0,0,1,1.017-.342,1.267,1.267,0,0,0,.513-.072h.792a4.056,4.056,0,0,1,.9.225,4.12,4.12,0,0,1,.639.3,4.031,4.031,0,0,1,.6.423l.279.252Z" transform="translate(-192.9 -78.91)" fill="#fff"/>
        <path id="Path_2350" data-name="Path 2350" d="M194.224,81.476c-.135-.144-.27-.279-.414-.414a2.987,2.987,0,0,1,4.238,0l-.414.414a2.411,2.411,0,0,0-3.41,0Z" transform="translate(-192.991 -79.037)" fill="#fff"/>
        <path id="Path_2351" data-name="Path 2351" d="M197.307,82.016l-.414.414a1.179,1.179,0,0,0-.9-.36,1.215,1.215,0,0,0-.9.36l-.414-.414a1.8,1.8,0,0,1,2.627,0Z" transform="translate(-193.079 -79.164)" fill="#fff"/>
        <path id="Path_2352" data-name="Path 2352" d="M196.49,82.957a.369.369,0,0,1-.369.369.378.378,0,1,1,0-.747.369.369,0,0,1,.369.378Z" transform="translate(-193.179 -79.278)" fill="#fff"/>
      </g>
      <path id="Path_2353" data-name="Path 2353" d="M170.9,81a1.089,1.089,0,1,1,1.089,1.089A1.089,1.089,0,0,1,170.9,81Z" transform="translate(-150.62 -63.725)" fill="#fff"/>
      <path id="Path_2354" data-name="Path 2354" d="M174.7,81a1.089,1.089,0,1,1,1.089,1.089A1.089,1.089,0,0,1,174.7,81Z" transform="translate(-151.002 -63.725)" fill="#fff"/>
      <path id="Path_2355" data-name="Path 2355" d="M178.5,81a1.08,1.08,0,1,1,.313.769A1.089,1.089,0,0,1,178.5,81Z" transform="translate(-151.383 -63.725)" fill="#fff"/>
      <path id="Path_2356" data-name="Path 2356" d="M182.3,81a1.08,1.08,0,1,1,.313.769A1.089,1.089,0,0,1,182.3,81Z" transform="translate(-151.764 -63.725)" fill="#fff"/>
      <path id="Path_2357" data-name="Path 2357" d="M186.09,81a1.089,1.089,0,1,1,1.089,1.089A1.089,1.089,0,0,1,186.09,81Z" transform="translate(-152.144 -63.725)" fill="#fff"/>
      <path id="Path_2358" data-name="Path 2358" d="M326.315,83.295H317.48V79.21h8.835Zm-8.385-.45h7.935V79.66h-7.917Z" transform="translate(-165.324 -63.654)" fill="#fff"/>
      <rect id="Rectangle_1356" data-name="Rectangle 1356" width="5.695" height="2.699" transform="translate(152.894 16.248)" fill="#fff"/>
      <rect id="Rectangle_1357" data-name="Rectangle 1357" width="0.783" height="2.186" transform="translate(160.991 16.509)" fill="#fff"/>
      <path id="Path_2359" data-name="Path 2359" d="M175.741,109.691l-4.831-4.525,4.831-4.525.747.792-3.977,3.734,3.977,3.734Z" transform="translate(-150.621 -65.804)" fill="#fff"/>
      <path id="Path_2360" data-name="Path 2360" d="M264.865,183.5a35.348,35.348,0,0,1-10.391,4.354,36.06,36.06,0,1,1,10.391-4.354Z" transform="translate(-154.526 -67.421)" fill="#fff"/>
      <path id="Path_2361" data-name="Path 2361" d="M259.724,151.067A10.967,10.967,0,1,1,248.775,140.1a10.967,10.967,0,0,1,10.949,10.967Z" transform="translate(-157.33 -69.907)" fill="#27d2ff"/>
      <path id="Path_2362" data-name="Path 2362" d="M266.775,183.806v4.5a35.349,35.349,0,0,1-10.391,4.355,35.88,35.88,0,0,1-27.5-4.364v-4.5a18.947,18.947,0,0,1,37.895,0Z" transform="translate(-156.436 -72.44)" fill="#27d2ff"/>
      <rect id="Rectangle_1358" data-name="Rectangle 1358" width="128.62" height="124.877" transform="translate(27.135 137.19)" fill="#fff"/>
      <path id="Path_2363" data-name="Path 2363" d="M225.362,231.266l-3.3,7.863a.423.423,0,0,1-.072.126h0l-.072.081h0a.306.306,0,0,0-.1.063h0c-.045,0-.072.072-.126.081h-.522a.252.252,0,0,1-.126-.081h0l-.1-.063h0a.423.423,0,0,0-.054-.081h0a.405.405,0,0,1-.054-.126l-1.8-4.184-1.8,4.184a.405.405,0,0,1-.054.126h0l-.081.081h0a.162.162,0,0,0-.072.063h0a.668.668,0,0,1-.108.081h0a.189.189,0,0,0-.108,0h-.333a.234.234,0,0,0-.1,0h0a.306.306,0,0,1-.126-.081h0c-.045,0-.054-.054-.1-.063l-.072-.081h0a.167.167,0,0,0-.063-.126l-3.32-7.863a.74.74,0,1,1,1.368-.567l2.636,6.244,1.745-4.139a.738.738,0,0,1,.7-.459.774.774,0,0,1,.7.459l1.736,4.139,2.636-6.244a.747.747,0,0,1,.981-.4.729.729,0,0,1,.153.963Z" transform="translate(-154.808 -79.105)" fill="#263238"/>
      <path id="Path_2364" data-name="Path 2364" d="M229.19,238.843v-7.926a.729.729,0,0,1,.738-.747h4.408a.747.747,0,0,1,.747.747.765.765,0,0,1-.747.756h-3.653v2.465h3.14a.756.756,0,0,1,0,1.5h-3.14v2.474h3.653a.747.747,0,0,1,0,1.493h-4.417a.729.729,0,0,1-.729-.765Z" transform="translate(-156.467 -79.098)" fill="#263238"/>
      <path id="Path_2365" data-name="Path 2365" d="M238.08,238.843v-7.926a.747.747,0,0,1,.738-.747.765.765,0,0,1,.765.747v7.2h3.653a.747.747,0,1,1,0,1.493h-4.417a.738.738,0,0,1-.738-.765Z" transform="translate(-157.359 -79.098)" fill="#263238"/>
      <path id="Path_2366" data-name="Path 2366" d="M245.46,234.688a4.948,4.948,0,0,1,4.948-4.858,5.1,5.1,0,0,1,3.122,1.053.8.8,0,0,1,.135,1.08.792.792,0,0,1-1.08.153,3.383,3.383,0,0,0-2.177-.747,3.6,3.6,0,0,0-2.429.972,3.347,3.347,0,0,0-.981,2.348,3.293,3.293,0,0,0,.981,2.348,3.6,3.6,0,0,0,2.429.972,3.41,3.41,0,0,0,2.177-.738.81.81,0,0,1,1.08.144.792.792,0,0,1-.135,1.08,5.047,5.047,0,0,1-3.122,1.053A4.93,4.93,0,0,1,245.46,234.688Z" transform="translate(-158.099 -79.064)" fill="#263238"/>
      <path id="Path_2367" data-name="Path 2367" d="M264.592,231.279a4.966,4.966,0,0,1,0,6.829,4.5,4.5,0,0,1-3.23,1.44,4.552,4.552,0,0,1-3.3-1.44,5.02,5.02,0,0,1,0-6.829,4.5,4.5,0,0,1,3.3-1.449A4.391,4.391,0,0,1,264.592,231.279Zm-.18,3.41a3.464,3.464,0,0,0-.9-2.357,2.906,2.906,0,0,0-4.318,0,3.419,3.419,0,0,0-.9,2.357,3.365,3.365,0,0,0,.9,2.348,2.888,2.888,0,0,0,4.319,0A3.41,3.41,0,0,0,264.412,234.688Z" transform="translate(-159.229 -79.064)" fill="#263238"/>
      <path id="Path_2368" data-name="Path 2368" d="M277.467,230.917v7.962a.756.756,0,0,1-.756.738.738.738,0,0,1-.747-.738v-5.686l-1.943,2.7a.72.72,0,0,1-.6.315h0a.747.747,0,0,1-.621-.315l-1.934-2.7v5.686a.747.747,0,1,1-1.493,0v-7.962a.747.747,0,0,1,.738-.747h0a.72.72,0,0,1,.594.315l2.7,3.725,2.7-3.725a.72.72,0,0,1,.6-.315h0a.774.774,0,0,1,.765.747Z" transform="translate(-160.498 -79.098)" fill="#263238"/>
      <path id="Path_2369" data-name="Path 2369" d="M281.25,238.843v-7.926a.729.729,0,0,1,.738-.747h4.435a.747.747,0,0,1,.738.747.765.765,0,0,1-.738.756h-3.662v2.465h3.149a.756.756,0,0,1,0,1.5h-3.149v2.474h3.662a.747.747,0,0,1,0,1.493h-4.417a.738.738,0,0,1-.756-.765Z" transform="translate(-161.69 -79.098)" fill="#263238"/>
      <path id="Path_2370" data-name="Path 2370" d="M195.24,264.852v-3.185a.3.3,0,0,1,.3-.3h1.8a.306.306,0,0,1,0,.6h-1.457v.99h1.251a.3.3,0,0,1,0,.594h-1.251v1h1.457a.3.3,0,0,1,0,.594h-1.8a.3.3,0,0,1-.3-.3Z" transform="translate(-153.062 -82.278)" fill="#141414"/>
      <path id="Path_2371" data-name="Path 2371" d="M202.049,261.667v3.185a.306.306,0,0,1-.306.3.3.3,0,0,1-.3-.3v-2.267l-.774,1.08a.288.288,0,0,1-.243.117h0a.306.306,0,0,1-.252-.117l-.765-1.08v2.267a.306.306,0,0,1-.6,0v-3.185a.3.3,0,0,1,.3-.3h0a.3.3,0,0,1,.234.126l1.071,1.493,1.08-1.493a.288.288,0,0,1,.243-.126h0a.315.315,0,0,1,.315.3Z" transform="translate(-153.42 -82.278)" fill="#141414"/>
      <path id="Path_2372" data-name="Path 2372" d="M205.37,264.261h-1.3l-.27.7a.306.306,0,0,1-.279.189.179.179,0,0,1-.1,0,.3.3,0,0,1-.18-.387l1.188-3.176a.306.306,0,0,1,.288-.189.288.288,0,0,1,.288.189l1.2,3.176a.306.306,0,0,1-.18.387.2.2,0,0,1-.108,0,.288.288,0,0,1-.27-.189Zm-.216-.594-.441-1.161-.432,1.161Z" transform="translate(-153.862 -82.281)" fill="#141414"/>
      <path id="Path_2373" data-name="Path 2373" d="M207.39,261.667a.3.3,0,0,1,.3-.3.306.306,0,0,1,.306.3v3.185a.306.306,0,0,1-.306.3.3.3,0,0,1-.3-.3Z" transform="translate(-154.281 -82.278)" fill="#141414"/>
      <path id="Path_2374" data-name="Path 2374" d="M209.18,264.852v-3.185a.3.3,0,0,1,.3-.3.306.306,0,0,1,.306.3v2.888h1.457a.3.3,0,1,1,0,.594h-1.8A.3.3,0,0,1,209.18,264.852Z" transform="translate(-154.46 -82.278)" fill="#141414"/>
      <path id="Path_2375" data-name="Path 2375" d="M195,276.762a1.279,1.279,0,1,1,2.555-.1h0a.135.135,0,0,1-.135.126h-2.168a1.035,1.035,0,0,0,1.026,1.008,1,1,0,0,0,.9-.477.135.135,0,0,1,.171-.045.144.144,0,0,1,.045.189,1.26,1.26,0,0,1-1.071.594,1.3,1.3,0,0,1-1.323-1.3Zm.27-.216h2.006a1.017,1.017,0,0,0-2.006,0Z" transform="translate(-153.038 -83.712)" fill="#263238"/>
      <path id="Path_2376" data-name="Path 2376" d="M202.587,276.516a.819.819,0,1,0-1.628,0v1.458h0a.108.108,0,0,1-.063.063.1.1,0,0,1-.063,0h0v-1.457a.819.819,0,1,0-1.628,0v1.44a.126.126,0,0,1-.054.108h-.162a.135.135,0,0,1-.108-.1v-2.411a.126.126,0,1,1,.252,0v.252a1.061,1.061,0,0,1,.819-.378,1.041,1.041,0,0,0,1.844,0,1.071,1.071,0,0,1,1.08,1.071V278a.131.131,0,0,1-.261,0Z" transform="translate(-153.427 -83.718)" fill="#263238"/>
      <path id="Path_2377" data-name="Path 2377" d="M208.336,276.516a.819.819,0,1,0-1.637,0v1.457h0a.162.162,0,0,1-.072.063.072.072,0,0,1-.063,0h0v-1.457a.819.819,0,1,0-1.628,0v1.44a.135.135,0,0,1-.063.108h-.054a.117.117,0,0,1-.108-.1v-2.411a.117.117,0,0,1,.117-.126.126.126,0,0,1,.135.126v.252a1.044,1.044,0,0,1,.81-.378,1.062,1.062,0,0,1,.945.558,1.1,1.1,0,0,1,.954-.558,1.071,1.071,0,0,1,1.071,1.071V278a.126.126,0,1,1-.252,0Z" transform="translate(-154.012 -83.718)" fill="#263238"/>
      <path id="Path_2378" data-name="Path 2378" d="M212.423,275.565v2.384a.135.135,0,0,1-.135.126.126.126,0,0,1-.126-.126v-.4a1.215,1.215,0,0,1-.99.522,1.323,1.323,0,0,1,0-2.645,1.215,1.215,0,0,1,.99.522v-.387a.126.126,0,0,1,.126-.135A.135.135,0,0,1,212.423,275.565Zm-.261,1.188a1,1,0,1,0-.99,1.062,1.035,1.035,0,0,0,.99-1.062Z" transform="translate(-154.527 -83.711)" fill="#263238"/>
      <path id="Path_2379" data-name="Path 2379" d="M214.216,278.753a.2.2,0,0,0,.2-.2v-3.086a.131.131,0,1,1,.261,0v3.077a.459.459,0,0,1-.459.459.126.126,0,0,1,0-.252Zm.207-4.148a.144.144,0,0,1,.135-.135.135.135,0,0,1,.126.135v.126a.135.135,0,0,1-.126.135.153.153,0,0,1-.135-.135Z" transform="translate(-154.953 -83.616)" fill="#263238"/>
      <path id="Path_2380" data-name="Path 2380" d="M218.223,275.565v2.384a.126.126,0,1,1-.252,0v-.4a1.25,1.25,0,0,1-1,.522,1.323,1.323,0,0,1,0-2.645,1.25,1.25,0,0,1,1,.522v-.387a.126.126,0,1,1,.252,0Zm-.252,1.188a1,1,0,1,0-1,1.062A1.035,1.035,0,0,0,217.971,276.753Z" transform="translate(-155.109 -83.711)" fill="#263238"/>
      <path id="Path_2381" data-name="Path 2381" d="M223.6,276.516a.819.819,0,1,0-1.637,0v1.457h0a.108.108,0,0,1-.063.063.09.09,0,0,1-.063,0h0v-1.457a.819.819,0,1,0-1.628,0v1.44a.135.135,0,0,1-.063.108h-.054a.135.135,0,0,1-.108-.1v-2.411a.13.13,0,0,1,.261,0v.252a1.044,1.044,0,0,1,.81-.378,1.062,1.062,0,0,1,.945.558,1.1,1.1,0,0,1,.954-.558,1.071,1.071,0,0,1,1.071,1.071V278a.126.126,0,1,1-.252,0Z" transform="translate(-155.544 -83.718)" fill="#263238"/>
      <path id="Path_2382" data-name="Path 2382" d="M225.26,276.762a1.279,1.279,0,1,1,2.555-.1h0a.126.126,0,0,1-.126.126h-2.168a1.035,1.035,0,0,0,1.026,1.008.972.972,0,0,0,.846-.477.119.119,0,1,1,.18.144,1.251,1.251,0,0,1-1.062.594A1.3,1.3,0,0,1,225.26,276.762Zm.279-.216h2a1.017,1.017,0,0,0-.99-.855A1.035,1.035,0,0,0,225.539,276.546Z" transform="translate(-156.073 -83.712)" fill="#263238"/>
      <path id="Path_2383" data-name="Path 2383" d="M228.916,277.53a.126.126,0,0,1,.18,0,1.44,1.44,0,0,0,.81.306.783.783,0,0,0,.5-.162.387.387,0,0,0,.2-.324.414.414,0,0,0-.189-.324,1.368,1.368,0,0,0-.531-.18h0a1.4,1.4,0,0,1-.6-.207.558.558,0,0,1-.288-.468.675.675,0,0,1,.288-.522,1.134,1.134,0,0,1,.648-.18,1.457,1.457,0,0,1,.792.288.153.153,0,0,1,0,.189.135.135,0,0,1-.18,0,1.134,1.134,0,0,0-.648-.27.819.819,0,0,0-.5.153.4.4,0,0,0-.162.306.315.315,0,0,0,.144.261,1.494,1.494,0,0,0,.54.189h0a1.8,1.8,0,0,1,.639.207.63.63,0,0,1,0,1.08,1.062,1.062,0,0,1-.657.207,1.574,1.574,0,0,1-.972-.378.117.117,0,0,1-.009-.171Z" transform="translate(-156.437 -83.715)" fill="#263238"/>
      <path id="Path_2384" data-name="Path 2384" d="M234.011,277.183h-2.105a.144.144,0,0,1,0-.189l2.186-2.7h0a.117.117,0,0,1,.18,0,.135.135,0,0,1,0,.063v2.627h.252a.135.135,0,1,1,0,.261h-.252v.648a.135.135,0,0,1-.27,0Zm0-.261v-2.213l-1.8,2.213Z" transform="translate(-156.736 -83.593)" fill="#263238"/>
      <path id="Path_2385" data-name="Path 2385" d="M237.7,274.166a1.88,1.88,0,0,1,1.889,1.889,1.844,1.844,0,0,1-.2.9.954.954,0,0,1-.486.4H238.8a.378.378,0,0,1-.315-.144.45.45,0,0,1-.081-.261v-.243a.9.9,0,0,1-.7.324,1.017,1.017,0,0,1,0-2.024.99.99,0,0,1,.963,1.008v.9h0a.341.341,0,0,0,0,.117.126.126,0,0,0,.1,0h0a.549.549,0,0,0,.315-.279,1.548,1.548,0,0,0,.18-.738,1.628,1.628,0,1,0-1.628,1.628,1.511,1.511,0,0,0,.4-.045c.072,0,.153,0,.153.09a.126.126,0,0,1-.09.162,1.962,1.962,0,0,1-.468.054,1.889,1.889,0,1,1,0-3.779Zm0,2.627a.72.72,0,0,0,.693-.738.693.693,0,1,0-1.377,0,.711.711,0,0,0,.684.738Z" transform="translate(-157.124 -83.58)" fill="#263238"/>
      <path id="Path_2386" data-name="Path 2386" d="M245.734,276.516a.819.819,0,1,0-1.628,0v1.458h0a.108.108,0,0,1-.063.063.1.1,0,0,1-.063,0h-.045v-1.457a.819.819,0,1,0-1.628,0v1.44a.126.126,0,0,1-.054.108H242.2a.135.135,0,0,1-.108-.1v-2.411a.126.126,0,1,1,.252,0v.252a1.062,1.062,0,0,1,.819-.378,1.08,1.08,0,0,0,1.889,0,1.071,1.071,0,0,1,1.071,1.071V278a.117.117,0,0,1-.126.126.126.126,0,0,1-.126-.126Z" transform="translate(-157.761 -83.718)" fill="#263238"/>
      <path id="Path_2387" data-name="Path 2387" d="M249.823,275.565v2.384a.126.126,0,0,1-.126.126.135.135,0,0,1-.135-.126v-.4a1.215,1.215,0,0,1-.99.522,1.323,1.323,0,0,1,0-2.645,1.215,1.215,0,0,1,.99.522v-.387a.131.131,0,1,1,.261,0Zm-.261,1.188a.99.99,0,1,0-.99,1.062A1.035,1.035,0,0,0,249.562,276.753Z" transform="translate(-158.279 -83.711)" fill="#263238"/>
      <path id="Path_2388" data-name="Path 2388" d="M251.37,274.6a.131.131,0,1,1,.261,0v.126a.131.131,0,1,1-.261,0Zm0,.9a.126.126,0,0,1,.126-.135.135.135,0,0,1,.135.135v2.384a.135.135,0,0,1-.135.126.126.126,0,0,1-.126-.126Z" transform="translate(-158.692 -83.614)" fill="#263238"/>
      <path id="Path_2389" data-name="Path 2389" d="M253,274.3a.131.131,0,1,1,.261,0v3.518a.131.131,0,0,1-.261,0Z" transform="translate(-158.856 -83.584)" fill="#263238"/>
      <path id="Path_2390" data-name="Path 2390" d="M254.62,277.77a.27.27,0,1,1-.27.27.27.27,0,0,1,.27-.27Z" transform="translate(-158.991 -83.948)" fill="#263238"/>
      <path id="Path_2391" data-name="Path 2391" d="M255.46,276.753a1.359,1.359,0,0,1,2.2-1.026.126.126,0,0,1,0,.18.135.135,0,0,1-.18,0,1.08,1.08,0,1,0-.684,1.889,1.115,1.115,0,0,0,.684-.225.13.13,0,0,1,.18.189,1.4,1.4,0,0,1-.837.279,1.332,1.332,0,0,1-1.368-1.287Z" transform="translate(-159.103 -83.712)" fill="#263238"/>
      <path id="Path_2392" data-name="Path 2392" d="M260.121,275.43a1.323,1.323,0,1,1-1.251,1.323,1.3,1.3,0,0,1,1.251-1.323Zm0,2.384a1.035,1.035,0,0,0,1-1.062,1,1,0,1,0-1.988,0,1.026,1.026,0,0,0,.99,1.062Z" transform="translate(-159.445 -83.711)" fill="#263238"/>
      <path id="Path_2393" data-name="Path 2393" d="M266.593,276.516a.828.828,0,0,0-.819-.819.81.81,0,0,0-.81.819v1.457h0a.108.108,0,0,1-.063.063.1.1,0,0,1-.063,0h-.045v-1.457a.819.819,0,1,0-1.628,0v1.44a.117.117,0,0,1-.063.108h-.054a.135.135,0,0,1-.108-.1v-2.411a.126.126,0,1,1,.252,0v.252a1.061,1.061,0,0,1,.819-.378,1.08,1.08,0,0,0,1.889,0,1.071,1.071,0,0,1,1.071,1.071V278a.126.126,0,1,1-.252,0Z" transform="translate(-159.853 -83.718)" fill="#263238"/>
      <path id="Path_2394" data-name="Path 2394" d="M194.62,281.7l12.452-.162,12.461-.1,24.912-.072,24.912.072,12.461.1,12.452.162-12.452.171-12.461.09-24.912.081-24.912-.081-12.461-.1Z" transform="translate(-153 -84.316)" fill="#dbdbdb"/>
      <path id="Path_2395" data-name="Path 2395" d="M196.509,297.433h-.666v1.179a.306.306,0,0,1-.6,0v-3.185a.3.3,0,0,1,.3-.3h.972a1.152,1.152,0,1,1,0,2.3Zm-.666-.594h.666a.558.558,0,0,0,0-1.116h-.666Z" transform="translate(-153.062 -85.723)" fill="#141414"/>
      <path id="Path_2396" data-name="Path 2396" d="M200.22,298.01h-1.314l-.261.7a.288.288,0,0,1-.279.189h-.108a.306.306,0,0,1-.171-.387l1.188-3.185a.324.324,0,0,1,.288-.189.315.315,0,0,1,.288.189l1.188,3.185a.306.306,0,0,1-.18.387h-.1a.288.288,0,0,1-.279-.189Zm-.225-.585-.432-1.161-.441,1.161Z" transform="translate(-153.346 -85.724)" fill="#141414"/>
      <path id="Path_2397" data-name="Path 2397" d="M201.989,297.956a.288.288,0,0,1,.4,0,1.7,1.7,0,0,0,1.026.414,1.179,1.179,0,0,0,.675-.2.486.486,0,0,0,.234-.387.342.342,0,0,0-.045-.171.459.459,0,0,0-.162-.162,2.168,2.168,0,0,0-.738-.261h0a2.7,2.7,0,0,1-.7-.207,1.214,1.214,0,0,1-.5-.423.81.81,0,0,1-.117-.441,1,1,0,0,1,.432-.792,1.592,1.592,0,0,1,.9-.279,2.105,2.105,0,0,1,1.179.432.276.276,0,1,1-.306.459,1.6,1.6,0,0,0-.9-.342,1.017,1.017,0,0,0-.6.18.432.432,0,0,0-.207.342.279.279,0,0,0,.045.153.423.423,0,0,0,.144.135,1.745,1.745,0,0,0,.675.243h0a3.463,3.463,0,0,1,.747.225,1.323,1.323,0,0,1,.54.45.9.9,0,0,1,.126.459,1.062,1.062,0,0,1-.468.837,1.709,1.709,0,0,1-1,.306,2.348,2.348,0,0,1-1.377-.54.3.3,0,0,1,.009-.432Z" transform="translate(-153.729 -85.715)" fill="#141414"/>
      <path id="Path_2398" data-name="Path 2398" d="M205.886,297.956a.288.288,0,0,1,.4,0,1.728,1.728,0,0,0,1.035.414,1.179,1.179,0,0,0,.675-.2.468.468,0,0,0,.225-.387.27.27,0,0,0-.045-.171.459.459,0,0,0-.162-.162,2.1,2.1,0,0,0-.738-.261h0a2.779,2.779,0,0,1-.7-.207,1.188,1.188,0,0,1-.495-.423.819.819,0,0,1-.126-.441,1,1,0,0,1,.432-.792,1.619,1.619,0,0,1,.9-.279,2.078,2.078,0,0,1,1.17.432.279.279,0,0,1,.081.378.27.27,0,0,1-.387.081,1.6,1.6,0,0,0-.9-.342,1.071,1.071,0,0,0-.612.18.423.423,0,0,0-.2.342.279.279,0,0,0,0,.153.423.423,0,0,0,.144.135,1.871,1.871,0,0,0,.675.243h0a3.319,3.319,0,0,1,.747.225,1.323,1.323,0,0,1,.54.45.9.9,0,0,1,.126.459,1.053,1.053,0,0,1-.459.837,1.8,1.8,0,0,1-1,.306,2.348,2.348,0,0,1-1.385-.54.3.3,0,0,1,.063-.432Z" transform="translate(-154.117 -85.715)" fill="#141414"/>
      <path id="Path_2399" data-name="Path 2399" d="M214.887,295.575l-1.323,3.149v.045h0a.117.117,0,0,1-.054,0h-.225a.081.081,0,0,1-.054,0h-.045v-.045l-.7-1.673-.711,1.673v.045H211.5a.091.091,0,0,1-.045,0h0v-.045l-1.323-3.149a.288.288,0,0,1,.162-.378.3.3,0,0,1,.387.153l1.053,2.5.693-1.655a.315.315,0,0,1,.288-.189.324.324,0,0,1,.279.189l.693,1.655,1.053-2.5a.306.306,0,0,1,.4-.153.288.288,0,0,1-.243.378Z" transform="translate(-154.553 -85.728)" fill="#141414"/>
      <path id="Path_2400" data-name="Path 2400" d="M219.25,295.586a1.97,1.97,0,0,1,0,2.7,1.765,1.765,0,0,1-2.609,0,1.988,1.988,0,0,1,0-2.7,1.8,1.8,0,0,1,1.323-.576,1.718,1.718,0,0,1,1.287.576Zm-.072,1.368a1.377,1.377,0,0,0-.369-.945,1.177,1.177,0,0,0-1.745,0,1.385,1.385,0,0,0,0,1.88,1.177,1.177,0,0,0,1.745,0,1.367,1.367,0,0,0,.369-.936Z" transform="translate(-155.156 -85.711)" fill="#141414"/>
      <path id="Path_2401" data-name="Path 2401" d="M223.886,298.459a.306.306,0,0,1-.189.378h-.126a.449.449,0,0,1-.216-.054.692.692,0,0,1-.171-.189,1.529,1.529,0,0,1-.108-.648.45.45,0,0,0-.072-.234.387.387,0,0,0-.162-.153,1.1,1.1,0,0,0-.3-.135h-.612v1.188a.3.3,0,0,1-.306.288.288.288,0,0,1-.288-.288v-3.185a.288.288,0,0,1,.288-.3h.972a1.152,1.152,0,0,1,.729,2.042.792.792,0,0,1,.189.2,1.025,1.025,0,0,1,.18.585,1.151,1.151,0,0,0,0,.315.306.306,0,0,1,.189.189Zm-.756-2.168a.567.567,0,0,0-.558-.567h-.639v1.089h.666a.558.558,0,0,0,.531-.522Z" transform="translate(-155.68 -85.723)" fill="#141414"/>
      <path id="Path_2402" data-name="Path 2402" d="M225.14,298.612v-3.185a.288.288,0,0,1,.3-.3h.639a1.889,1.889,0,0,1,0,3.77h-.639a.288.288,0,0,1-.3-.288Zm.594-.306h.342a1.3,1.3,0,0,0,0-2.582h-.342Z" transform="translate(-156.061 -85.723)" fill="#141414"/>
      <path id="Path_2403" data-name="Path 2403" d="M195.763,308.819l-.495.333h-.09a.108.108,0,0,1,0-.216l.558-.27-.558-.261s-.081-.054-.081-.108a.117.117,0,0,1,.108-.108.153.153,0,0,1,.09,0l.495.342-.045-.594a.108.108,0,1,1,.216,0l-.045.594.486-.342h.09a.112.112,0,0,1,.036.216l-.558.261.558.27a.09.09,0,0,1,.072.1.108.108,0,0,1-.108.117.233.233,0,0,1-.09,0l-.486-.333.045.585a.108.108,0,1,1-.216,0Z" transform="translate(-153.045 -87.016)" fill="#263238"/>
      <path id="Path_2404" data-name="Path 2404" d="M198.343,308.819l-.495.333h-.09a.108.108,0,0,1,0-.216l.558-.27-.558-.261c-.045,0-.081-.054-.081-.108a.117.117,0,0,1,.108-.108.153.153,0,0,1,.09,0l.495.342v-.594a.108.108,0,1,1,.216,0l-.045.594.486-.342a.171.171,0,0,1,.09,0,.112.112,0,0,1,.036.216l-.558.261.558.27a.09.09,0,0,1,.072.1.108.108,0,0,1-.108.117h-.09l-.486-.333.045.585a.108.108,0,1,1-.216,0Z" transform="translate(-153.304 -87.016)" fill="#263238"/>
      <path id="Path_2405" data-name="Path 2405" d="M200.923,308.824l-.495.333h-.09a.108.108,0,0,1,0-.216l.558-.27-.558-.261s-.081-.054-.081-.108a.117.117,0,0,1,.108-.108.153.153,0,0,1,.09,0l.495.342-.027-.549a.108.108,0,1,1,.216,0l-.045.594.495-.342a.144.144,0,0,1,.081,0,.112.112,0,0,1,.036.216l-.558.261.558.27a.09.09,0,0,1,.072.1.108.108,0,0,1-.108.117.161.161,0,0,1-.081,0l-.495-.333.045.585a.108.108,0,1,1-.216,0Z" transform="translate(-153.562 -87.021)" fill="#263238"/>
      <path id="Path_2406" data-name="Path 2406" d="M203.5,308.819l-.495.333h-.09a.108.108,0,1,1,0-.216l.558-.27-.558-.261c-.045,0-.081-.054-.081-.108a.117.117,0,0,1,.108-.108.153.153,0,0,1,.09,0l.495.342-.045-.594a.108.108,0,1,1,.216,0l-.045.594.486-.342a.171.171,0,0,1,.09,0,.112.112,0,0,1,.036.216l-.558.261.558.27a.09.09,0,0,1,.072.1.108.108,0,0,1-.108.117h-.09l-.486-.333.045.585a.108.108,0,1,1-.216,0Z" transform="translate(-153.821 -87.016)" fill="#263238"/>
      <path id="Path_2407" data-name="Path 2407" d="M206.083,308.819l-.495.333h-.09a.108.108,0,1,1,0-.216l.558-.27-.558-.261s-.081-.054-.081-.108a.117.117,0,0,1,.108-.108.152.152,0,0,1,.09,0l.495.342v-.594a.108.108,0,1,1,.216,0v.594l.486-.342a.171.171,0,0,1,.09,0,.112.112,0,0,1,.036.216l-.558.261.558.27a.09.09,0,0,1,.072.1.108.108,0,0,1-.108.117h-.09l-.486-.333v.585a.108.108,0,1,1-.216,0Z" transform="translate(-154.08 -87.016)" fill="#263238"/>
      <path id="Path_2408" data-name="Path 2408" d="M208.663,308.819l-.495.333h-.09a.108.108,0,0,1,0-.216l.558-.27-.558-.261c-.045,0-.081-.054-.081-.108a.117.117,0,0,1,.108-.108.152.152,0,0,1,.09,0l.495.342-.045-.594a.108.108,0,1,1,.216,0l-.045.594.486-.342a.171.171,0,0,1,.09,0,.112.112,0,0,1,.036.216l-.558.261.558.27a.09.09,0,0,1,.072.1.108.108,0,0,1-.108.117h-.09l-.486-.333.045.585a.108.108,0,1,1-.216,0Z" transform="translate(-154.339 -87.016)" fill="#263238"/>
      <path id="Path_2409" data-name="Path 2409" d="M211.234,308.819l-.486.333h-.09a.108.108,0,0,1,0-.216l.549-.27-.549-.261s-.081-.054-.081-.108a.117.117,0,0,1,.108-.108.153.153,0,0,1,.09,0l.486.342v-.594a.1.1,0,0,1,.108-.117.108.108,0,0,1,.108.117v.594l.486-.342a.171.171,0,0,1,.09,0,.112.112,0,0,1,.036.216l-.558.261.558.27a.09.09,0,0,1,.072.1.108.108,0,0,1-.108.117h-.09l-.486-.333v.585a.108.108,0,0,1-.108.117.1.1,0,0,1-.108-.117Z" transform="translate(-154.598 -87.016)" fill="#263238"/>
      <path id="Path_2410" data-name="Path 2410" d="M213.823,308.819l-.495.333h-.09a.108.108,0,1,1,0-.216l.558-.27-.558-.261c-.045,0-.081-.054-.081-.108a.117.117,0,0,1,.108-.108.153.153,0,0,1,.09,0l.495.342-.045-.594a.108.108,0,1,1,.216,0l-.045.594.486-.342a.171.171,0,0,1,.09,0,.112.112,0,0,1,.036.216l-.558.261.558.27a.09.09,0,0,1,.072.1.108.108,0,0,1-.108.117h-.09l-.486-.333.045.585a.108.108,0,1,1-.216,0Z" transform="translate(-154.856 -87.016)" fill="#263238"/>
      <path id="Path_2411" data-name="Path 2411" d="M216.4,308.819l-.495.333h-.09a.108.108,0,0,1,0-.216l.549-.27-.549-.261c-.045,0-.081-.054-.081-.108a.117.117,0,0,1,.108-.108.153.153,0,0,1,.09,0l.495.342v-.594a.108.108,0,1,1,.216,0v.594l.486-.342a.171.171,0,0,1,.09,0,.112.112,0,0,1,.036.216l-.558.261.558.27a.09.09,0,0,1,.072.1.108.108,0,0,1-.108.117h-.09l-.486-.333v.585a.108.108,0,1,1-.216,0Z" transform="translate(-155.115 -87.016)" fill="#263238"/>
      <path id="Path_2412" data-name="Path 2412" d="M218.983,308.824l-.495.333h-.09a.108.108,0,0,1,0-.216l.558-.27-.558-.261s-.081-.054-.081-.108a.117.117,0,0,1,.108-.108.153.153,0,0,1,.09,0l.495.342-.081-.549a.108.108,0,1,1,.216,0l-.045.594.486-.342a.17.17,0,0,1,.09,0,.112.112,0,0,1,.036.216l-.558.261.558.27a.09.09,0,0,1,.072.1.108.108,0,0,1-.108.117h-.09l-.486-.333.045.585a.108.108,0,1,1-.216,0Z" transform="translate(-155.374 -87.021)" fill="#263238"/>
      <path id="Path_2413" data-name="Path 2413" d="M221.563,308.819l-.495.333h-.09a.108.108,0,0,1,0-.216l.558-.27-.558-.261c-.045,0-.081-.054-.081-.108a.117.117,0,0,1,.108-.108.153.153,0,0,1,.09,0l.495.342v-.594a.108.108,0,1,1,.216,0l-.045.594.495-.342a.126.126,0,0,1,.081,0,.112.112,0,0,1,.036.216l-.558.261.558.27a.09.09,0,0,1,.072.1.108.108,0,0,1-.108.117.135.135,0,0,1-.081,0l-.495-.333.045.585a.108.108,0,1,1-.216,0Z" transform="translate(-155.633 -87.016)" fill="#263238"/>
      <path id="Path_2414" data-name="Path 2414" d="M194.62,315.462l12.452-.171,12.461-.09,24.912-.081,24.912.081,12.461.09,12.452.171-12.452.162-12.461.09-24.912.081-24.912-.081-12.461-.09Z" transform="translate(-153 -87.76)" fill="#dbdbdb"/>
      <rect id="Rectangle_1359" data-name="Rectangle 1359" width="0.45" height="8.079" transform="translate(67.297 217.833)" fill="#263238"/>
      <rect id="Rectangle_1360" data-name="Rectangle 1360" width="73.289" height="23.041" transform="translate(54.801 250.448)" fill="#149626"/>
      <path id="Path_2415" data-name="Path 2415" d="M236.25,356.417V351.64a.45.45,0,0,1,.9,0v4.328h2.2a.45.45,0,0,1,0,.9H236.7A.45.45,0,0,1,236.25,356.417Z" transform="translate(-157.176 -91.448)" fill="#fff"/>
      <path id="Path_2416" data-name="Path 2416" d="M245.4,351.9a2.969,2.969,0,0,1,.819,2.051,2.933,2.933,0,0,1-.819,2.042,2.636,2.636,0,0,1-1.934.9,2.7,2.7,0,0,1-1.988-.9,2.915,2.915,0,0,1-.8-2.042,2.951,2.951,0,0,1,.8-2.051,2.7,2.7,0,0,1,1.988-.9,2.627,2.627,0,0,1,1.934.9Zm-.108,2.051a2.115,2.115,0,0,0-.549-1.422,1.745,1.745,0,0,0-2.591,0,2.069,2.069,0,0,0-.549,1.422,2,2,0,0,0,.549,1.4,1.8,1.8,0,0,0,1.314.585,1.737,1.737,0,0,0,1.278-.585,2.033,2.033,0,0,0,.549-1.4Z" transform="translate(-157.62 -91.429)" fill="#fff"/>
      <path id="Path_2417" data-name="Path 2417" d="M248.33,353.964a2.951,2.951,0,0,1,2.987-2.924,3.014,3.014,0,0,1,1.853.63.459.459,0,0,1,.081.657.468.468,0,0,1-.648.072,2.114,2.114,0,0,0-1.287-.441,2.033,2.033,0,0,0-1.458.594,1.943,1.943,0,0,0-.6,1.412,1.917,1.917,0,0,0,.6,1.386,2,2,0,0,0,1.457.594,2.232,2.232,0,0,0,1.116-.306v-1.107h-1.161a.468.468,0,0,1-.459-.468.45.45,0,0,1,.459-.45h1.61a.459.459,0,0,1,.468.45v1.943h0a.441.441,0,0,1-.153.2,3.005,3.005,0,0,1-1.8.63,2.942,2.942,0,0,1-3.068-2.87Z" transform="translate(-158.387 -91.433)" fill="#fff"/>
      <path id="Path_2418" data-name="Path 2418" d="M256,351.661a.432.432,0,0,1,.441-.441.45.45,0,0,1,.459.441v4.759a.459.459,0,0,1-.459.45.441.441,0,0,1-.441-.45Z" transform="translate(-159.157 -91.451)" fill="#fff"/>
      <path id="Path_2419" data-name="Path 2419" d="M259.57,356.424a.45.45,0,1,1-.9,0v-4.705h0a.423.423,0,0,1,.18-.369.441.441,0,0,1,.612.1l2.618,3.6V351.71a.45.45,0,0,1,.9,0v4.714a.45.45,0,0,1-.441.45.423.423,0,0,1-.333-.162l-.045-.054-2.591-3.6Z" transform="translate(-159.425 -91.455)" fill="#fff"/>
      <path id="Path_2420" data-name="Path 2420" d="M224.14,375.9a.126.126,0,0,1,.126-.126h1.952a.126.126,0,0,1,.126.126.135.135,0,0,1-.126.135h-1.8v1.493H226a.135.135,0,0,1,0,.27h-1.583v1.619a.131.131,0,1,1-.261,0Z" transform="translate(-155.961 -94.068)" fill="#263238"/>
      <path id="Path_2421" data-name="Path 2421" d="M228.381,377a1.323,1.323,0,1,1-1.251,1.323A1.3,1.3,0,0,1,228.381,377Zm0,2.384a1.071,1.071,0,1,0-1-1.062,1.035,1.035,0,0,0,1,1.089Z" transform="translate(-156.261 -94.191)" fill="#263238"/>
      <path id="Path_2422" data-name="Path 2422" d="M230.883,377.162a.135.135,0,0,1,.1-.162.126.126,0,0,1,.126.135v.513A1.314,1.314,0,0,1,232.17,377a.131.131,0,0,1,0,.261.963.963,0,0,0-.765.432,2.564,2.564,0,0,0-.324.612v1.161a.126.126,0,0,1-.126.135.135.135,0,0,1-.135-.135Z" transform="translate(-156.631 -94.192)" fill="#263238"/>
      <path id="Path_2423" data-name="Path 2423" d="M235.805,379.455a1.242,1.242,0,0,1-1.242,1.242,1.259,1.259,0,0,1-.549-.126.135.135,0,0,1-.054-.171.117.117,0,0,1,.171-.063.9.9,0,0,0,.432.1.981.981,0,0,0,.99-.981v-.324a1.2,1.2,0,0,1-.99.522,1.314,1.314,0,0,1,0-2.627,1.214,1.214,0,0,1,.99.513v-.387a.126.126,0,0,1,.171-.153.117.117,0,0,1,.117.126Zm-.252-1.125a.99.99,0,1,0-.463.935A.99.99,0,0,0,235.553,378.33Z" transform="translate(-156.875 -94.19)" fill="#263238"/>
      <path id="Path_2424" data-name="Path 2424" d="M238.6,377a1.323,1.323,0,1,1-1.251,1.323A1.3,1.3,0,0,1,238.6,377Zm0,2.384a1.071,1.071,0,1,0-.99-1.062,1.035,1.035,0,0,0,.99,1.089Z" transform="translate(-157.286 -94.191)" fill="#263238"/>
      <path id="Path_2425" data-name="Path 2425" d="M242.021,377.032a.144.144,0,0,1-.135.135h-.333v1.925a.2.2,0,0,0,.189.189.135.135,0,0,1,0,.27.45.45,0,0,1-.459-.459v-1.925h-.3c-.126,0-.126-.072-.126-.135s0-.126.126-.126h.333v-.981a.135.135,0,0,1,.126-.135.144.144,0,0,1,.144.135v.954h.3a.135.135,0,0,1,.135.153Z" transform="translate(-157.638 -94.07)" fill="#263238"/>
      <path id="Path_2426" data-name="Path 2426" d="M245.32,378.388v-1.233a.135.135,0,1,1,.27,0v.387a1.223,1.223,0,0,1,1-.513,1.287,1.287,0,0,1,1.278,1.3,1.3,1.3,0,0,1-1.278,1.323,1.233,1.233,0,0,1-1-.522v1.512a.135.135,0,0,1-.27,0Zm.27-.054a1.008,1.008,0,1,0,1.008-1.008A1.008,1.008,0,0,0,245.59,378.334Z" transform="translate(-158.085 -94.194)" fill="#263238"/>
      <path id="Path_2427" data-name="Path 2427" d="M251.463,377.156v2.384a.135.135,0,1,1-.261,0v-.4a1.224,1.224,0,0,1-.99.531,1.323,1.323,0,0,1,0-2.645,1.214,1.214,0,0,1,.99.513v-.387a.126.126,0,0,1,.126-.126.135.135,0,0,1,.135.126Zm-.261,1.2a1,1,0,1,0-.99,1.062A1.035,1.035,0,0,0,251.2,378.353Z" transform="translate(-158.444 -94.195)" fill="#263238"/>
      <path id="Path_2428" data-name="Path 2428" d="M252.786,379.118a.126.126,0,0,1,.189,0,1.385,1.385,0,0,0,.81.306.774.774,0,0,0,.495-.162.405.405,0,0,0,.207-.324.414.414,0,0,0-.189-.324,1.322,1.322,0,0,0-.567-.2h0a1.484,1.484,0,0,1-.594-.207.549.549,0,0,1-.288-.477.666.666,0,0,1,.288-.522,1.17,1.17,0,0,1,.639-.171,1.458,1.458,0,0,1,.792.279.144.144,0,0,1,0,.189.126.126,0,0,1-.18,0,1.161,1.161,0,0,0-.648-.261.774.774,0,0,0-.495.144.414.414,0,0,0-.171.306.306.306,0,0,0,.153.261,1.287,1.287,0,0,0,.54.189h0a1.674,1.674,0,0,1,.639.216.63.63,0,0,1,.3.54.666.666,0,0,1-.3.531,1.107,1.107,0,0,1-.657.216,1.638,1.638,0,0,1-.981-.378A.135.135,0,0,1,252.786,379.118Z" transform="translate(-158.831 -94.196)" fill="#263238"/>
      <path id="Path_2429" data-name="Path 2429" d="M255.685,379.118a.117.117,0,0,1,.18,0,1.412,1.412,0,0,0,.81.306.8.8,0,0,0,.5-.162.369.369,0,0,0,0-.648,1.324,1.324,0,0,0-.567-.2h0a1.485,1.485,0,0,1-.594-.207.549.549,0,0,1-.288-.477.666.666,0,0,1,.288-.522,1.205,1.205,0,0,1,.648-.171,1.457,1.457,0,0,1,.783.279.135.135,0,0,1,0,.189.117.117,0,0,1-.171,0,1.214,1.214,0,0,0-.648-.261.8.8,0,0,0-.5.144.414.414,0,0,0-.171.306.324.324,0,0,0,.153.261,1.287,1.287,0,0,0,.54.189h0a1.8,1.8,0,0,1,.648.216.648.648,0,0,1,.3.54.675.675,0,0,1-.306.531,1.061,1.061,0,0,1-.657.216,1.638,1.638,0,0,1-.981-.378.126.126,0,0,1,.036-.153Z" transform="translate(-159.12 -94.196)" fill="#263238"/>
      <path id="Path_2430" data-name="Path 2430" d="M259.613,379.65l-.054-.054-.99-2.366a.144.144,0,0,1,.063-.171.135.135,0,0,1,.171.072l.9,2.087.6-1.457a.144.144,0,0,1,.261,0l.6,1.457.9-2.087a.126.126,0,0,1,.162-.072.135.135,0,0,1,.072.171l-.99,2.348a.2.2,0,0,1-.045.072h-.063a.144.144,0,0,1-.108-.081h0l-.621-1.466-.612,1.457h0a.135.135,0,0,1-.117.081H259.7Z" transform="translate(-159.414 -94.197)" fill="#263238"/>
      <path id="Path_2431" data-name="Path 2431" d="M264.861,377a1.323,1.323,0,1,1-1.251,1.323A1.3,1.3,0,0,1,264.861,377Zm0,2.384a1.071,1.071,0,1,0-.99-1.062,1.035,1.035,0,0,0,.99,1.089Z" transform="translate(-159.92 -94.191)" fill="#263238"/>
      <path id="Path_2432" data-name="Path 2432" d="M267.4,377.165a.126.126,0,1,1,.252,0v.585l.045-.072a1.287,1.287,0,0,1,1.053-.648.131.131,0,1,1,0,.261.963.963,0,0,0-.765.432,2.177,2.177,0,0,0-.315.612h0V379.5a.126.126,0,1,1-.252,0Z" transform="translate(-160.3 -94.195)" fill="#263238"/>
      <path id="Path_2433" data-name="Path 2433" d="M271.969,379.035a1.278,1.278,0,0,1-1.017.513,1.323,1.323,0,0,1,0-2.645,1.251,1.251,0,0,1,1.017.513v-1.52a.135.135,0,0,1,.27,0v3.518a.135.135,0,0,1-.27,0Zm0-.765v-.09a1.052,1.052,0,1,0,0,.09Z" transform="translate(-160.524 -94.067)" fill="#263238"/>
      <path id="Path_2434" data-name="Path 2434" d="M274.423,378h0a.126.126,0,0,1,.126-.126.9.9,0,1,0-.783-1.341.144.144,0,0,1-.18.045.117.117,0,0,1,0-.171,1.142,1.142,0,0,1,1-.585,1.163,1.163,0,0,1,.135,2.321v.54a.135.135,0,0,1-.135.126.126.126,0,0,1-.126-.126Zm0,1.314a.135.135,0,1,1,.261,0v.117a.135.135,0,0,1-.135.126.126.126,0,0,1-.126-.126Z" transform="translate(-160.917 -94.073)" fill="#263238"/>
      <path id="Path_2435" data-name="Path 2435" d="M257.515,76.843H240.322a1.062,1.062,0,0,1-1.062-1.062h0a1.062,1.062,0,0,1,1.062-1.062h17.193a1.062,1.062,0,0,1,1.062,1.062h0A1.062,1.062,0,0,1,257.515,76.843Z" transform="translate(-157.478 -63.204)" fill="#fff"/>
    </g>
    <g id="freepik--Character--inject-5" transform="translate(299.199 77.362)">
      <path id="Path_2436" data-name="Path 2436" d="M340.27,129.428l-.36.09a.216.216,0,0,1,.063-.108h0Z" transform="translate(-328.61 -86.239)" fill="#263238"/>
      <path id="Path_2437" data-name="Path 2437" d="M371.34,178h0" transform="translate(-331.763 -91.287)" fill="none" stroke="#ff98b9" stroke-linecap="round" stroke-linejoin="round" stroke-width="0"/>
      <rect id="Rectangle_1361" data-name="Rectangle 1361" width="0.009" height="6.334" transform="translate(21.844 71.293)" fill="#dd6a57"/>
      <path id="Path_2438" data-name="Path 2438" d="M351.64,160.83v0Z" transform="translate(-329.787 -89.537)" fill="#dd6a57"/>
      <path id="Path_2439" data-name="Path 2439" d="M371.34,178h0" transform="translate(-331.763 -91.287)" fill="none" stroke="#ff98b9" stroke-linecap="round" stroke-linejoin="round" stroke-width="0"/>
      <path id="Path_2440" data-name="Path 2440" d="M351.8,418.317h-.162V418.2Z" transform="translate(-329.787 -115.874)" fill="#dd6a57"/>
      <path id="Path_2441" data-name="Path 2441" d="M387.964,417.144c-1.979-.9-45.524-40.27-46.235-42.825-.279-.963,5.092-7.638,11.813-15.529,1.448-1.7,18.381-28.79,18.381-28.79l30.508,24.193-20.747,29.951s9.9,22.546,10.4,25.434S389.943,418.017,387.964,417.144Z" transform="translate(-328.791 -107.026)" fill="#dd6a57"/>
      <path id="Path_2442" data-name="Path 2442" d="M388.526,403.776a84.047,84.047,0,0,1,3.6,9.456c.468,2.888-2.141,8.475-4.121,7.6s-45.533-40.27-46.235-42.816c-.225-.792,3.257-5.335,8.178-11.228,8.8,10.22,36.545,42.033,38.579,39.073a3.949,3.949,0,0,0,0-2.087Z" transform="translate(-328.795 -110.717)" fill="#263238"/>
      <path id="Path_2443" data-name="Path 2443" d="M357.98,340.167l30.859,25.461S431.763,305.862,433,284.017c.9-16.8-23.986-48.1-40.918-74.89-1.637-2.6-.639-12.461-.576-14.107l-33.549.063c-.4,3.779-3.032,22.789,2.618,32.047,11.624,19.037,30.392,46.667,31.111,52.65S357.98,340.167,357.98,340.167Z" transform="translate(-330.323 -93.239)" fill="#4a87a6"/>
      <path id="Path_2444" data-name="Path 2444" d="M391.728,371.921c-4.93-4.175-3.455-3.041-8.43-7.2-2.438-2.015-14.647-12.182-17.229-13.693-.063,0-.126.054-.081.1,2,2.222,14.4,12.128,16.9,14.107,5.047,4.031,3.644,2.816,8.736,6.793a.09.09,0,1,0,.108-.108Z" transform="translate(-331.224 -108.987)" fill="#263238"/>
      <path id="Path_2445" data-name="Path 2445" d="M395.129,274.484c-1.125-2.2-2.33-4.354-3.6-6.487-2.519-4.31-5.263-8.475-7.962-12.677q-4.22-6.586-8.457-13.153c-2.537-3.941-5.11-7.872-7.314-12.011a47.019,47.019,0,0,1-4.867-12.947,54.091,54.091,0,0,1-.351-15.151c.108-1.26.225-2.51.342-3.77,0-.216-.351-.261-.378-.045a80.867,80.867,0,0,0-.711,14.89,39.92,39.92,0,0,0,3.437,13.216,91.6,91.6,0,0,0,6.6,11.966q4.049,6.383,8.1,12.713c2.7,4.229,5.515,8.556,8.205,12.875,1.314,2.1,2.6,4.211,3.824,6.361a64.262,64.262,0,0,1,3.419,6.523,10.572,10.572,0,0,1,.945,3.536,8.673,8.673,0,0,1-.684,3.689c-.9,2.312-2.105,4.5-3.2,6.748-2.2,4.435-4.426,8.853-6.73,13.234-4.624,8.79-17.094,29.483-17.751,30.544-.045.081.072.144.126.072,5.3-8.466,11.741-18.327,16.509-27.108q3.6-6.577,6.955-13.261,1.691-3.329,3.311-6.712c.99-2.051,2.132-4.166,2.2-6.5A13.952,13.952,0,0,0,395.129,274.484Z" transform="translate(-330.801 -93.485)" fill="#263238"/>
      <path id="Path_2446" data-name="Path 2446" d="M390.333,195c-2.159,11.084-8.4,42.969-11.822,60.6-5.866-9.375-12.65-19.793-17.94-28.493-5.65-9.258-3.023-28.268-2.618-32.047Z" transform="translate(-330.323 -93.068)" fill="#263238"/>
      <path id="Path_2447" data-name="Path 2447" d="M394.134,445.13c-2.06.657-60.783-.171-62.978-1.619-.846-.549-1.224-9.1-1.386-19.46,0-2.231.495-36.32.495-36.32l39.28.441-1.916,36.3s22.348,10.373,24.607,12.227S396.194,444.473,394.134,445.13Z" transform="translate(-327.593 -112.817)" fill="#dd6a57"/>
      <path id="Path_2448" data-name="Path 2448" d="M383.3,436.627a85.53,85.53,0,0,1,8.925,4.75c2.258,1.853,3.986,7.773,1.925,8.421s-60.783-.162-62.978-1.61c-.693-.441-1.071-6.154-1.269-13.828,13.351,1.862,55.2,7.422,54.764,3.86C384.61,437.887,384.1,437.32,383.3,436.627Z" transform="translate(-327.606 -117.495)" fill="#263238"/>
      <path id="Path_2449" data-name="Path 2449" d="M388.529,195.09s-6.649,32.389-7,33.423a84.3,84.3,0,0,0-9.447,4.687l-2.375,164.643-42.357.279s5.254-87.27,5.1-92.884c-.234-9,3.662-69.852,3.122-71.381-5.533-15.619,3.149-38.687,3.149-38.687Z" transform="translate(-327.35 -93.493)" fill="#4a87a6"/>
      <path id="Path_2450" data-name="Path 2450" d="M368.417,411.687c-11.948-.513-35.088-.3-38.012.207-.063,0-.063.126,0,.135,2.96.477,31.039.531,38.012-.153a.1.1,0,0,0,0-.189Z" transform="translate(-327.652 -115.191)" fill="#263238"/>
      <path id="Path_2451" data-name="Path 2451" d="M337.781,348.474c.675-12.38,1.4-24.759,2.114-37.139s1.413-24.768,2.123-37.148c.351-6.19.684-12.38,1.062-18.57l.567-9.285a80.6,80.6,0,0,0,.4-9.195c-.171-3.347-1.637-6.3-2.474-9.492a37.221,37.221,0,0,1-1.089-9.294c0-6.46,1.3-12.848,2.537-19.154.072-.351.612-.2.54.153a92.44,92.44,0,0,0-2.6,17.643,37.9,37.9,0,0,0,.765,8.844c.6,2.789,1.8,5.4,2.519,8.1s.4,5.794.225,8.691c-.189,3.095-.342,6.19-.5,9.285-.333,6.064-.693,12.128-1.035,18.2-1.413,24.634-2.78,49.276-4.283,73.909-.864,13.864-1.52,27.719-2.663,41.6,0,.1-.171.1-.162,0C336.288,373.234,337.1,360.854,337.781,348.474Z" transform="translate(-328.2 -93.886)" fill="#263238"/>
      <path id="Path_2452" data-name="Path 2452" d="M345.071,215.253c.711-.288,1.5-.378,2.231-.6a18.5,18.5,0,0,0,2.267-.837,17.092,17.092,0,0,0,3.887-2.438,9.069,9.069,0,0,0,2.483-3.752c.306-.765.594-1.538.9-2.312.144-.378.3-.765.45-1.143.054-.153.45-.963.513-1.215a.072.072,0,0,1-.1,0h-.045a.081.081,0,0,1,0-.1c.045-.09.054-.1.153-.126a.1.1,0,0,1,.108.045c.153.252,0,.495-.054.765-.117.513-.234,1.017-.36,1.52-.225.9-.432,1.8-.684,2.645a8.907,8.907,0,0,1-2.483,4.309A13.9,13.9,0,0,1,350,214.606a15.416,15.416,0,0,1-2.51.738,6.829,6.829,0,0,1-2.411.18C344.927,215.469,345,215.3,345.071,215.253Z" transform="translate(-329.119 -93.821)" fill="#263238"/>
      <path id="Path_2453" data-name="Path 2453" d="M383.1,224.879c.072-1.484.162-2.96.27-4.444.234-3.383.531-6.775,1.062-10.113.045-.27.414-.171.4.072-.18,2.627-.441,5.254-.639,7.872s-.468,5.236-.468,7.845c0,.783.072,2.114,1.044,2.321,1.3.27,1.88-1.449,2.177-2.384a43.11,43.11,0,0,0,1.5-7.2c.378-2.762.558-5.551.774-8.322,0-.1.171-.09.18,0,.108,5.5.126,11.246-1.8,16.473a3.068,3.068,0,0,1-2.24,2.213h-.054v.09c0,.027-.063.315-.081.468s-.045.252-.072.387-.081.531-.144.8a.207.207,0,0,1-.4,0,.18.18,0,0,1-.117-.162,4.5,4.5,0,0,1,.333-1.565,1.934,1.934,0,0,1-1.44-1.17A6.847,6.847,0,0,1,383.1,224.879Z" transform="translate(-332.935 -94.586)" fill="#263238"/>
      <path id="Path_2454" data-name="Path 2454" d="M386.266,231.887a78.271,78.271,0,0,0-11.993,6.55c-.153.1,0,.333.126.243,4.049-2.051,8.187-4.031,12.119-6.3a.278.278,0,0,0-.252-.495Z" transform="translate(-332.05 -96.792)" fill="#263238"/>
      <path id="Path_2455" data-name="Path 2455" d="M375.662,327.859c0-.4.126-.549.144-.063.1,2.7.063,6.649.09,9.384v9.645c0,3.212-.117,6.433-.243,9.654l-.2,4.813c-.063,1.116,0,3.311-.108,4.417,0,.495-.153.585-.2.09-.081-1.61-.081-2.9-.135-4.5l-.054-4.831v-9.645c0-3.212.117-6.433.243-9.645S375.428,331.071,375.662,327.859Z" transform="translate(-332.126 -106.609)" fill="#263238"/>
      <path id="Path_2456" data-name="Path 2456" d="M393.423,138.751a.477.477,0,0,1-.351.531l-1.9.18c-1.9-4.714-3.9-8.448-3.356-6.982a26.037,26.037,0,0,1,1.484,7.144l-3.752.288c-1.8-8.34-3.977-14.494-3.779-12.6.792,7.71.468,10.2.081,12.866-9.06.666-20.945,1.386-29.546,1.718-1.188-4.6-2.258-9.591-2.4-9.231-1.062,2.636-1.224,6.433-1.134,9.357-2.744.081-4.93.1-6.3,0,0,0-.8-3.878-.945-5.155a28.26,28.26,0,0,1,.558-9.762,49.344,49.344,0,0,1,3.6-9.132v-.063h0a28.088,28.088,0,0,0,2.051-6.091.179.179,0,0,0,0-.045,27.749,27.749,0,0,0,.522-4.651c.162-5.722,2.969-10.724,7.926-12.353,9.078-9.771,18.741-5.974,21.907,1.278.306.711.612,1.52.9,2.411h0c1.107,3.275,2.15,7.539,3.086,10.8h0a34.545,34.545,0,0,0,1.278,3.8C386.126,119.1,391.74,122.359,393.423,138.751Z" transform="translate(-328.753 -82.175)" fill="#263238"/>
      <path id="Path_2457" data-name="Path 2457" d="M354.022,97.256a10.526,10.526,0,0,0-5.47,8.817,29.493,29.493,0,0,1-1.026,7.126,24.814,24.814,0,0,1-3.536,6.3,18.758,18.758,0,0,0-3.9,10.337,33.871,33.871,0,0,0,1.664,12.911h0a35.538,35.538,0,0,1-.99-13.5c.531-4.5,2.807-7.44,5.11-10.931A19.253,19.253,0,0,0,349.1,109c.162-2.06.045-4.211.747-6.163a11.571,11.571,0,0,1,4.39-5.209A.214.214,0,1,0,354.022,97.256Z" transform="translate(-328.624 -83.01)" fill="#263238"/>
      <path id="Path_2458" data-name="Path 2458" d="M393.474,120.526c-2.456-3.185-4.993-5.893-6.523-9.9-1.386-3.6-2.258-7.476-3.671-11.1,0-.063-.1,0-.081,0,2.213,6.442,2.861,12.992,7.009,18.354,2.249,2.915,4.5,5.614,6.046,9.141a33.982,33.982,0,0,1,2.7,11.7.1.1,0,1,0,.189,0,27.89,27.89,0,0,0-5.668-18.192Z" transform="translate(-332.952 -83.239)" fill="#263238"/>
      <path id="Path_2459" data-name="Path 2459" d="M418.272,103.018l-5.821,26.667c-.261.792.144,1.4.9,1.386L427,130.639a2.222,2.222,0,0,0,1.853-1.475l5.83-26.658c.252-.792-.153-1.4-.9-1.386l-13.648.432a2.222,2.222,0,0,0-1.862,1.466Z" transform="translate(-335.879 -83.401)" fill="#37474f"/>
      <path id="Path_2460" data-name="Path 2460" d="M420.072,102.948l-5.821,26.667c-.261.783.144,1.4.9,1.377l13.657-.432a2.213,2.213,0,0,0,1.844-1.466l5.857-26.667c.252-.783-.153-1.4-.9-1.377l-13.648.432A2.222,2.222,0,0,0,420.072,102.948Z" transform="translate(-336.059 -83.394)" fill="#455a64"/>
      <path id="Path_2461" data-name="Path 2461" d="M424.673,104.243a1.152,1.152,0,1,1-1.143-1.143,1.161,1.161,0,0,1,1.143,1.143Z" transform="translate(-336.881 -83.6)" fill="#263238"/>
      <path id="Path_2462" data-name="Path 2462" d="M371.135,147.859c8.1,16.275,25.938,37.247,33.118,37.184,3.419,0,9.528.639,13.927-3.383,9.582-8.79,17.382-25.353,18.831-34.764.513-3.356-15.871-10.2-18.2-7.431-5.47,6.487-11.7,19.109-12.695,19.055-3.68-.144-18.282-11.84-28.547-20.018C365.161,128.552,367.906,141.372,371.135,147.859Z" transform="translate(-331.468 -86.785)" fill="#dd6a57"/>
      <path id="Path_2463" data-name="Path 2463" d="M443.539,126.887c-1.871-6.73-3.383-8.169-1.952-14.692.945-4.274-1.386-6.712-4.319-3.23-4.8,5.7-4.211,14.89-3.095,17.994Z" transform="translate(-337.987 -84.022)" fill="#dd6a57"/>
      <path id="Path_2464" data-name="Path 2464" d="M441.171,147.144s2.807-9.5,1.52-16.869c-.9-5.092-4.058-15.969-18.507-21.413-3.428-1.3-9.222-.7-4.391,3.437,3.428,2.942,6.5,3.77,8.178,5.848,0,0-7.287,1.628-8.448,5.11a68.379,68.379,0,0,0-2.384,9.321,14.3,14.3,0,0,0,1.709.6s-.774,3.356,1.754,7.944Z" transform="translate(-336.357 -84.117)" fill="#dd6a57"/>
      <path id="Path_2465" data-name="Path 2465" d="M440.367,126.465c-2.105-1.7-6.64-5.245-11.345-6.856-5.236-1.8-15.8-3.815-17.094.063-.9,2.843,3.032,3.968,3.032,3.968s-4.5.081-4.831,2.834c-.261,2.51,2.861,3.2,2.861,3.2s-2.753.522-2.537,2.987c.261,2.96,5.974,1.386,8.826,4.157C419.908,137.45,440.367,126.465,440.367,126.465Z" transform="translate(-335.652 -85.04)" fill="#dd6a57"/>
      <path id="Path_2466" data-name="Path 2466" d="M428.59,126.109a22,22,0,0,0-12.991-1.889c-.108,0-.153.117-.045.117a54.719,54.719,0,0,1,13.028,1.8S428.617,126.127,428.59,126.109Z" transform="translate(-336.191 -85.691)" fill="#263238"/>
      <path id="Path_2467" data-name="Path 2467" d="M426.41,131.986a24.722,24.722,0,0,0-13.09-1.107c-.108,0-.144.126,0,.117a57.994,57.994,0,0,1,13.109,1.044S426.437,131.995,426.41,131.986Z" transform="translate(-335.964 -86.341)" fill="#263238"/>
      <path id="Path_2468" data-name="Path 2468" d="M378.484,162.582l13.5-14.134s-10.077-9.2-17.472-12.794-8.61,1.215-5.542,8.619S378.484,162.582,378.484,162.582Z" transform="translate(-331.367 -86.744)" fill="#27d2ff"/>
      <path id="Path_2469" data-name="Path 2469" d="M378.484,162.582l13.5-14.134s-10.077-9.2-17.472-12.794-8.61,1.215-5.542,8.619S378.484,162.582,378.484,162.582Z" transform="translate(-331.367 -86.744)" fill="#c6d8ff"/>
      <path id="Path_2470" data-name="Path 2470" d="M387.473,176.443l6.343,29.753s-48.907,3.941-61.116,3.887c0,0,6.217-56.815,18.354-71.858,6.073-7.53,13.783-7.5,18.992-2.861,1.323,1.179,17.373,19.721,19.415,27.072C391.252,168.9,387.473,176.443,387.473,176.443Z" transform="translate(-327.887 -86.516)" fill="#7c7c7c"/>
      <path id="Path_2471" data-name="Path 2471" d="M367.631,132.475H362.44A11,11,0,0,1,367.631,132.475Z" transform="translate(-330.87 -86.516)" fill="#27d2ff"/>
      <path id="Path_2472" data-name="Path 2472" d="M372.356,135.611H356.27c.225-.189.459-.369.693-.531h14.755C371.934,135.251,372.15,135.422,372.356,135.611Z" transform="translate(-330.251 -86.808)" fill="#27d2ff"/>
      <path id="Path_2473" data-name="Path 2473" d="M374.609,138.771H353.16l.441-.531h20.567Z" transform="translate(-329.939 -87.125)" fill="#27d2ff"/>
      <path id="Path_2474" data-name="Path 2474" d="M376.821,141.941H351c.1-.18.207-.36.324-.531h25.065Z" transform="translate(-329.722 -87.443)" fill="#27d2ff"/>
      <path id="Path_2475" data-name="Path 2475" d="M378.98,145.091H349.29c.081-.18.171-.36.261-.531h29.006Z" transform="translate(-329.551 -87.759)" fill="#27d2ff"/>
      <path id="Path_2476" data-name="Path 2476" d="M381.079,148.251H347.79c.081-.18.153-.36.225-.531h32.6Z" transform="translate(-329.4 -88.076)" fill="#27d2ff"/>
      <path id="Path_2477" data-name="Path 2477" d="M383.126,151.41H346.59l.2-.54h35.934Z" transform="translate(-329.28 -88.392)" fill="#27d2ff"/>
      <path id="Path_2478" data-name="Path 2478" d="M385.076,154.57H345.49c.063-.189.117-.36.18-.54h39.047Z" transform="translate(-329.17 -88.709)" fill="#27d2ff"/>
      <path id="Path_2479" data-name="Path 2479" d="M386.9,157.73H344.42l.18-.54h41.943Z" transform="translate(-329.062 -89.162)" fill="#27d2ff"/>
      <path id="Path_2480" data-name="Path 2480" d="M388.545,160.94H343.48a1.939,1.939,0,0,1,.153-.54h44.6A2.137,2.137,0,0,1,388.545,160.94Z" transform="translate(-328.968 -89.49)" fill="#27d2ff"/>
      <path id="Path_2481" data-name="Path 2481" d="M389.9,164.05H342.59c.045-.18.1-.36.144-.54h46.928Q389.8,163.78,389.9,164.05Z" transform="translate(-328.879 -89.808)" fill="#27d2ff"/>
      <path id="Path_2482" data-name="Path 2482" d="M390.658,167.2h-48.9l.135-.531h48.664A3.666,3.666,0,0,0,390.658,167.2Z" transform="translate(-328.795 -90.13)" fill="#27d2ff"/>
      <path id="Path_2483" data-name="Path 2483" d="M390.78,169.83v.531H341a2.68,2.68,0,0,1,.126-.531Z" transform="translate(-328.719 -90.453)" fill="#27d2ff"/>
      <path id="Path_2484" data-name="Path 2484" d="M390.516,173a2.62,2.62,0,0,1-.09.531H340.25a2.35,2.35,0,0,1,.117-.531Z" transform="translate(-328.644 -90.777)" fill="#27d2ff"/>
      <path id="Path_2485" data-name="Path 2485" d="M389.86,176.15c-.045.18-.09.36-.144.531H339.54a2.807,2.807,0,0,1,.117-.531Z" transform="translate(-328.573 -91.098)" fill="#27d2ff"/>
      <path id="Path_2486" data-name="Path 2486" d="M388.885,179.31l-.207.531h-49.8a2.227,2.227,0,0,1,.108-.531Z" transform="translate(-328.507 -91.421)" fill="#27d2ff"/>
      <path id="Path_2487" data-name="Path 2487" d="M388.353,183H338.24a2.227,2.227,0,0,1,.108-.531h49.888Z" transform="translate(-328.442 -91.744)" fill="#27d2ff"/>
      <path id="Path_2488" data-name="Path 2488" d="M388.892,186.161H337.61a2.756,2.756,0,0,1,.1-.531h51.057Z" transform="translate(-328.379 -92.066)" fill="#27d2ff"/>
      <path id="Path_2489" data-name="Path 2489" d="M389.448,189.32h-52.4a3.752,3.752,0,0,1,.09-.54h52.182Z" transform="translate(-328.323 -92.388)" fill="#27d2ff"/>
      <path id="Path_2490" data-name="Path 2490" d="M390.031,192.48H336.49a3.752,3.752,0,0,1,.09-.54h53.3Z" transform="translate(-328.267 -92.711)" fill="#27d2ff"/>
      <path id="Path_2491" data-name="Path 2491" d="M390.548,195.64H336a2.82,2.82,0,0,1,.09-.54h54.341Z" transform="translate(-328.218 -93.033)" fill="#27d2ff"/>
      <path id="Path_2492" data-name="Path 2492" d="M391.1,198.8H335.45l.081-.54h55.457Z" transform="translate(-328.163 -93.356)" fill="#27d2ff"/>
      <path id="Path_2493" data-name="Path 2493" d="M391.68,201.94H335a3.757,3.757,0,0,1,.09-.54h56.5Z" transform="translate(-328.117 -93.677)" fill="#27d2ff"/>
      <path id="Path_2494" data-name="Path 2494" d="M392.213,205.111H334.48l.081-.531h57.58Z" transform="translate(-328.065 -94.001)" fill="#27d2ff"/>
      <path id="Path_2495" data-name="Path 2495" d="M392.777,208.271H334l.081-.531H392.66Z" transform="translate(-328.017 -94.324)" fill="#27d2ff"/>
      <path id="Path_2496" data-name="Path 2496" d="M393.339,211.431H333.6c0-.171.054-.351.072-.531h59.55Z" transform="translate(-327.977 -94.647)" fill="#27d2ff"/>
      <path id="Path_2497" data-name="Path 2497" d="M393.866,214.411l-2.231.18H333.2a1.585,1.585,0,0,1,.063-.531h60.531Z" transform="translate(-327.937 -94.969)" fill="#27d2ff"/>
      <path id="Path_2498" data-name="Path 2498" d="M360.233,217.22c-2.771.189-5.524.369-8.178.531H332.81a1.666,1.666,0,0,1,.063-.531Z" transform="translate(-327.898 -95.292)" fill="#27d2ff"/>
      <path id="Path_2499" data-name="Path 2499" d="M394.749,173.4a18.2,18.2,0,0,0,.378-5.4,25.191,25.191,0,0,0-3.662-10.247c-1.053-1.8-2.312-3.455-3.356-5.245a.045.045,0,0,1,.072-.054,37.611,37.611,0,0,1,2.7,3.671.547.547,0,0,0-.063-.126c-.288-.7-.585-1.395-.9-2.078,0-.072.09-.135.126-.063.36.666.7,1.332,1.026,2.006.2.441.369.9.522,1.332a33.714,33.714,0,0,1,2.7,4.912,17.014,17.014,0,0,1,1.269,10.8,19.319,19.319,0,0,1-2.456,5.551.072.072,0,0,1-.126-.063,26.9,26.9,0,0,0,1.8-5.029" transform="translate(-333.444 -88.688)" fill="#263238"/>
      <path id="Path_2500" data-name="Path 2500" d="M361.447,134.519c.369.9,5.875,6.406,10.2,5.524,1.4-.288.171-8.043.171-8.043v-.594l.558-8.3L362,118.514l-1.484-.594v9.339a52.626,52.626,0,0,0,.927,7.26Z" transform="translate(-330.677 -85.087)" fill="#dd6a57"/>
      <path id="Path_2501" data-name="Path 2501" d="M360.587,123.048a16.716,16.716,0,0,0,11.273,8.358l.558-8.3-10.373-4.588-1.484-.594S360.56,120.205,360.587,123.048Z" transform="translate(-330.681 -85.087)" fill="#263238"/>
      <path id="Path_2502" data-name="Path 2502" d="M382.156,107.953c1.52,14.53-7.009,17.094-10.139,17.4-2.843.3-12.6.9-15.583-13.351s3.257-19.6,9.735-20.612S380.636,93.423,382.156,107.953Z" transform="translate(-330.19 -82.408)" fill="#dd6a57"/>
      <path id="Path_2503" data-name="Path 2503" d="M381.281,106.174a9.388,9.388,0,0,1-1-.1,1.61,1.61,0,0,1-1.008-.306.522.522,0,0,1-.063-.63,1.278,1.278,0,0,1,1.233-.432,1.916,1.916,0,0,1,1.251.54.549.549,0,0,1-.414.927Z" transform="translate(-332.544 -83.759)" fill="#263238"/>
      <path id="Path_2504" data-name="Path 2504" d="M370.813,107.379a8.567,8.567,0,0,0,.963-.306,1.6,1.6,0,0,0,.9-.5.513.513,0,0,0-.063-.63,1.314,1.314,0,0,0-1.3-.171,1.925,1.925,0,0,0-1.116.792.549.549,0,0,0,.612.819Z" transform="translate(-331.64 -83.858)" fill="#263238"/>
      <path id="Path_2505" data-name="Path 2505" d="M373.658,111.42s-.072.054-.063.1c.153.981.171,2.132-.675,2.573v.054C374,113.858,373.964,112.329,373.658,111.42Z" transform="translate(-331.921 -84.435)" fill="#263238"/>
      <path id="Path_2506" data-name="Path 2506" d="M372.49,110.4c-1.6.09-1.314,3.284.171,3.2S373.839,110.328,372.49,110.4Z" transform="translate(-331.77 -84.332)" fill="#263238"/>
      <path id="Path_2507" data-name="Path 2507" d="M371.719,110.648c-.261.207-.5.549-.837.621s-.711-.243-1-.54c0,0-.054,0-.054.045.045.612.342,1.224,1.008,1.251s.99-.549,1.089-1.179C371.944,110.729,371.827,110.567,371.719,110.648Z" transform="translate(-331.611 -84.355)" fill="#263238"/>
      <path id="Path_2508" data-name="Path 2508" d="M379.817,110.59a.079.079,0,0,1,.081.081c.054,1,.279,2.123,1.2,2.384v.054C379.979,113.046,379.7,111.544,379.817,110.59Z" transform="translate(-332.611 -84.351)" fill="#263238"/>
      <path id="Path_2509" data-name="Path 2509" d="M380.618,109.358c1.583-.252,1.97,2.942.5,3.167S379.287,109.574,380.618,109.358Z" transform="translate(-332.611 -84.226)" fill="#263238"/>
      <path id="Path_2510" data-name="Path 2510" d="M381.463,109.47c.27.135.558.414.855.4s.576-.4.756-.756h.054c.09.612,0,1.269-.6,1.457s-.981-.306-1.2-.9C381.283,109.6,381.346,109.407,381.463,109.47Z" transform="translate(-332.763 -84.203)" fill="#263238"/>
      <path id="Path_2511" data-name="Path 2511" d="M374.622,120.218c.252.216.5.531.9.54a2.438,2.438,0,0,0,1.053-.3s.063,0,.045.054a1.332,1.332,0,0,1-1.233.594,1.062,1.062,0,0,1-.819-.846C374.514,120.209,374.586,120.182,374.622,120.218Z" transform="translate(-332.084 -85.316)" fill="#263238"/>
      <path id="Path_2512" data-name="Path 2512" d="M378.457,114.707s.351,1.457.423,2.159c0,.063-.162.108-.4.153h0a3.347,3.347,0,0,1-3.347-.9c-.054-.063,0-.144.1-.108a5.056,5.056,0,0,0,3.113.558c0-.2-.693-2.474-.585-2.492a5.893,5.893,0,0,1,1.619.2c-.648-3.059-1.8-5.983-2.384-9a.1.1,0,0,1,.18-.063,51.128,51.128,0,0,1,2.987,9.627C380.23,115.175,378.745,114.8,378.457,114.707Z" transform="translate(-332.141 -83.808)" fill="#263238"/>
      <path id="Path_2513" data-name="Path 2513" d="M378.3,118.065a3.941,3.941,0,0,1-1.395,1.421,1.8,1.8,0,0,1-1.062.216c-.8-.1-.9-.8-.855-1.431a4.192,4.192,0,0,1,.216-.972A5.1,5.1,0,0,0,378.3,118.065Z" transform="translate(-332.128 -85.025)" fill="#263238"/>
      <path id="Path_2514" data-name="Path 2514" d="M376.905,119.594a1.8,1.8,0,0,1-1.062.216c-.8-.1-.9-.8-.855-1.431a1.844,1.844,0,0,1,1.916,1.215Z" transform="translate(-332.128 -85.132)" fill="#ff9abb"/>
      <path id="Path_2515" data-name="Path 2515" d="M357.422,111.292c2.7.441,3.6-5.65,3.6-5.65s11.462-1.466,12.794-10.688a15.727,15.727,0,0,0,7.566,8.9s0-10.175-7.962-12.47c0,0-9.843-4.049-15.781,3.662S355.641,110.995,357.422,111.292Z" transform="translate(-330.072 -82.318)" fill="#263238"/>
      <path id="Path_2516" data-name="Path 2516" d="M374.816,94.71a10.112,10.112,0,0,1-.684,4.211,10.58,10.58,0,0,1-2.294,3.653,10.365,10.365,0,0,1-.8.738l-.4.36-.45.306c-.306.2-.6.4-.9.585a10.82,10.82,0,0,1-.972.477c-.162.072-.324.162-.486.225l-.513.18-1.017.342c-.693.162-1.395.288-2.1.4.666-.261,1.35-.441,2-.7l.963-.423.477-.207.45-.261c.306-.18.6-.351.9-.513a8.932,8.932,0,0,0,.837-.6l.423-.306.378-.342a7.991,7.991,0,0,0,.747-.711,12.524,12.524,0,0,0,3.023-5.4,12.129,12.129,0,0,0,.423-2.015Z" transform="translate(-331.046 -82.759)" fill="#263238"/>
      <path id="Path_2517" data-name="Path 2517" d="M358.9,114.607s-3.266-4.5-5.317-3.329.468,7.737,2.915,8.6a2.474,2.474,0,0,0,3.284-1.386Z" transform="translate(-329.906 -84.401)" fill="#dd6a57"/>
      <path id="Path_2518" data-name="Path 2518" d="M354.52,113.41v.063a6.255,6.255,0,0,1,3.3,3.851,1.368,1.368,0,0,0-2.051-.333s0,.1.045.09a1.512,1.512,0,0,1,1.682.495,7.907,7.907,0,0,1,.828,1.341c.081.153.36.063.3-.108h0C358.6,116.64,356.859,113.59,354.52,113.41Z" transform="translate(-330.075 -84.634)" fill="#263238"/>
      <path id="Path_2519" data-name="Path 2519" d="M358.009,93.989c1.3-.486,2.546-7.782-2.249-11.264s-10.94.495-8.367,6.478C349.021,92.982,355.247,95.015,358.009,93.989Z" transform="translate(-329.3 -81.426)" fill="#263238"/>
      <path id="Path_2520" data-name="Path 2520" d="M348.879,82.4a8.16,8.16,0,0,0-2.762,4.624,4.912,4.912,0,0,0,1.457,4.7,9.843,9.843,0,0,0,4.759,2.33,14.773,14.773,0,0,0,2.744.342,7.773,7.773,0,0,0,2.762-.306,6.6,6.6,0,0,1-2.744.81,12.011,12.011,0,0,1-2.9-.045,9.546,9.546,0,0,1-5.344-2.375,5.739,5.739,0,0,1-1.583-2.618,5.929,5.929,0,0,1,.054-3.023,7.2,7.2,0,0,1,3.554-4.435Z" transform="translate(-329.131 -81.524)" fill="#263238"/>
      <path id="Path_2521" data-name="Path 2521" d="M350.086,139.671c-12.038,18.111-18.84,42.222-17.994,47.531.972,5.839,9.213,25.578,17.706,34.278,2.24,2.294,19.208-16.527,16.914-19.073-4.417-4.912-13.189-19.388-13.576-22.69-.36-3.05,4.085-22.672,5.254-33.828C359.56,135.173,355.682,131.241,350.086,139.671Z" transform="translate(-327.819 -86.811)" fill="#dd6a57"/>
      <path id="Path_2522" data-name="Path 2522" d="M368.165,209.24s9.213,4.049,15.115,6.982c3.293,1.637,8.691,4.948,10.562,7.26,2.789,3.446,12.281,19.676,8.394,22.06-3.518,2.159-9.9-12.812-9.9-12.812s7.773,14.539,3.059,16.365-9.672-16.068-9.672-16.068,7.656,15.124,2.5,16.194c-3.869.882-9.267-15.061-9.267-15.061s6.487,13.045,2.519,14.08c-4.39,1.143-10.3-13.261-10.3-13.261-10.535.9-15.933-2.942-19.442-6.145C350.873,228.062,368.165,209.24,368.165,209.24Z" transform="translate(-329.793 -94.508)" fill="#dd6a57"/>
      <path id="Path_2523" data-name="Path 2523" d="M394.262,229.558c.972,1.673,1.97,3.365,2.8,5.119a58.184,58.184,0,0,1,2.24,5.4,33.1,33.1,0,0,1,1.871,7.341c-.9-4.408-3.779-10.742-4.606-12.5s-1.556-3.6-2.375-5.308C394.172,229.549,394.235,229.522,394.262,229.558Z" transform="translate(-334.054 -96.565)" fill="#263238"/>
      <path id="Path_2524" data-name="Path 2524" d="M387.149,232.738c1.152,2.186,2.375,4.327,3.437,6.568s1.8,4.444,2.7,6.748c.063.18-.054.153-.126,0-.99-2.267-2.069-4.283-3.086-6.532s-1.934-4.5-3.023-6.748C387.077,232.72,387.131,232.7,387.149,232.738Z" transform="translate(-333.339 -96.886)" fill="#263238"/>
      <path id="Path_2525" data-name="Path 2525" d="M380.558,234.357a55.87,55.87,0,0,1,4.5,10.454c.063.18-.09.135-.162,0-1.422-3.5-2.519-6.3-4.435-10.337C380.414,234.366,380.513,234.294,380.558,234.357Z" transform="translate(-332.676 -97.048)" fill="#263238"/>
      <path id="Path_2526" data-name="Path 2526" d="M339.24,158.218l19.181,3.7s2.294-13.45,1.314-21.593-5.677-6.577-10.238,0S339.24,158.218,339.24,158.218Z" transform="translate(-328.543 -86.779)" fill="#27d2ff"/>
      <path id="Path_2527" data-name="Path 2527" d="M339.24,158.218l19.181,3.7s2.294-13.45,1.314-21.593-5.677-6.577-10.238,0S339.24,158.218,339.24,158.218Z" transform="translate(-328.543 -86.779)" fill="#c6d8ff"/>
    </g>
    <g id="freepik--Plant--inject-5" transform="translate(57.203 215.47)">
      <path id="Path_2528" data-name="Path 2528" d="M117.1,332.639a73.514,73.514,0,0,0-2.366,13.351c.126.225.1,1.053,0,.828,0,.738-1.143.6-1.143-.126V345.3c-2.609-3.248-6.4-5.3-9.456-8.1a17.778,17.778,0,0,1-5.182-8.25c-2.537-8.754-.162-17.994-3.212-26.766-2.636-7.521-7.359-14.071-11.354-20.891-4.22-7.2-7.332-14.791-7.647-23.239-.243-6.469.522-15.088,5.452-19.928,5.218-5.146,11.7-1.3,15.7,3.293,11.588,13.306,16.95,30.122,19.118,47.315,1.2,9.519,2.438,19.091,2.15,28.691a77.373,77.373,0,0,1-2.06,15.214Z" transform="translate(-60.184 -235.673)" fill="#15a328"/>
      <path id="Path_2529" data-name="Path 2529" d="M116.115,352.091A164.508,164.508,0,0,0,115.8,325.1a.837.837,0,0,0,0-.09c.144-7.288.72-14.548.432-21.844a129.438,129.438,0,0,0-3.2-23.392c0-.09-.162-.063-.144,0a153.036,153.036,0,0,1,2.537,22.906q.216,6.181-.1,12.353c-.072,1.341-.2,2.7-.288,4.04h0A144.094,144.094,0,0,0,93.353,261.7c-.144-.234-.567,0-.423.261A149.727,149.727,0,0,1,110.582,304.5c-5.578-10.328-14-18.822-20.243-28.745,0-.054-.126,0-.1.054,5.614,11.057,14.89,19.793,20.8,30.652,1.017,4.435,1.862,8.916,2.483,13.423a150.527,150.527,0,0,1,1.35,18.642c-3.4-6.343-6.928-12.416-9.7-19.127a.147.147,0,0,0-.27.117c2.357,6.973,5.533,14.485,9.987,20.432q0,6.622-.369,13.243c-.693,11.768-2.7,23.392-3.6,35.088a.272.272,0,0,0,.54.063,268.66,268.66,0,0,0,4.651-36.249Z" transform="translate(-61.542 -238.274)" fill="#263238"/>
      <path id="Path_2530" data-name="Path 2530" d="M105.125,261.286c0-.081-.162,0-.135.063,2.15,5.947,3.365,11.966,4.921,18.057a.225.225,0,0,0,.441-.072C109.722,273.153,107.518,266.99,105.125,261.286Z" transform="translate(-63.021 -238.239)" fill="#263238"/>
      <path id="Path_2531" data-name="Path 2531" d="M161.079,288.251a91.176,91.176,0,0,1-4.939,10.158c-3.878,7.027-7.908,13.5-8.646,21.656-.324,3.653-.441,7.323-1.556,10.8a32.182,32.182,0,0,1-4.319,8.493c-4.193,6.109-9.438,11.381-13.324,17.724a74.431,74.431,0,0,0-8.862,21.35c-.09.414-.738.3-.648-.108a.4.4,0,0,0,0-.1.1.1,0,0,1,0-.081c-.621-17.553.783-35.241,6.136-52.056a180.166,180.166,0,0,1,8.493-21.638c2.87-6.091,6.442-11.957,11.48-16.509,3.266-2.942,10.346-8.52,15-5.569C162.15,283.806,161.961,286.046,161.079,288.251Z" transform="translate(-64.392 -240.273)" fill="#15a328"/>
      <path id="Path_2532" data-name="Path 2532" d="M142.949,329.7a145.638,145.638,0,0,1-10.2,14.665c-1.7,2.213-3.419,4.418-5.119,6.64-.8,1.044-1.7,2.087-2.438,3.221.468-1.844.9-3.7,1.386-5.542,2.267-8.862,4.444-17.814,7.818-26.334a176.042,176.042,0,0,1,12.182-23.9c.126-.2-.207-.351-.324-.153-3.707,6.1-7.476,12.191-10.589,18.624a97,97,0,0,0-4.5,11.048,171.51,171.51,0,0,1,5.983-23.608c0-.072-.072-.117-.1-.045a80.559,80.559,0,0,0-6.217,24.553h0q-1.143,3.419-2.114,6.9c-2.762,9.816-5.191,19.739-7.44,29.69a106.166,106.166,0,0,1,1.691-19.523c0-.144-.2-.18-.234,0a61.935,61.935,0,0,0-1.691,20.576q-1.278,5.686-2.492,11.363c-1.718,8.1-3.842,16.329-4.849,24.544a.164.164,0,1,0,.324.054c1.206-4.427,1.934-9,2.915-13.5s2.006-9,3.05-13.5q2.294-9.8,4.75-19.55c1.089-2.384,3.185-4.5,4.759-6.5,1.727-2.2,3.455-4.39,5.137-6.622a98.494,98.494,0,0,0,8.448-13.073C143.156,329.672,143,329.609,142.949,329.7Z" transform="translate(-63.895 -241.946)" fill="#263238"/>
      <path id="Path_2533" data-name="Path 2533" d="M145.9,324.866a91.552,91.552,0,0,0-9.9,15.853c0,.072.072.153.117.081,3.356-5.263,6.658-10.571,10.014-15.835A.145.145,0,0,0,145.9,324.866Z" transform="translate(-66.132 -244.617)" fill="#263238"/>
      <path id="Path_2534" data-name="Path 2534" d="M63.432,305.279c2.276,3.923,4.867,8.619,3.9,13.324-.621,2.978-2.8,5.4-3.194,8.43-.9,6.7,5.794,11.138,10.634,14.305,12.047,7.908,28.574,14.953,30.769,31.1.081.576,1.071.432,1-.135a.234.234,0,0,0,0-.1s.063-.054.063-.1a62.015,62.015,0,0,0-.225-24.66c-1.8-8.322-5.4-15.8-9.717-23.113-7.251-12.371-14.935-25.047-25.9-34.521-3.032-2.618-9.249-7.341-11.7-1.421C56.712,294.15,60.643,300.5,63.432,305.279Z" transform="translate(-58.342 -240.675)" fill="#15a328"/>
      <path id="Path_2535" data-name="Path 2535" d="M76.241,334.731c7.989,8.646,20.693,13.5,27.566,23.185-4.076-14.845-10.8-28.205-21.188-39.8a.315.315,0,0,1,.441-.441,78.417,78.417,0,0,1,17.319,25.083,112.065,112.065,0,0,0-7.458-19.073.207.207,0,0,1,.351-.207,72.632,72.632,0,0,1,8.034,21.476c9.069,21.934,9.9,47.684,8.007,70.788a.261.261,0,0,1-.522,0c.522-18.219.225-36.761-4.139-54.557-.09-.378-.2-.738-.288-1.107C96.88,349.639,84.23,344.781,76.1,334.884,76.007,334.776,76.151,334.632,76.241,334.731Z" transform="translate(-60.121 -243.892)" fill="#263238"/>
      <path id="Path_2536" data-name="Path 2536" d="M74.168,328.376c4.193,3.851,8.322,7.782,12.524,11.633,0,0,0,.108-.063.081a61.637,61.637,0,0,1-12.713-11.462.18.18,0,0,1,.252-.252Z" transform="translate(-59.901 -244.968)" fill="#263238"/>
      <path id="Path_2537" data-name="Path 2537" d="M73.434,309.846a132.692,132.692,0,0,0,12.6,17.265.073.073,0,1,1-.108.1A60.846,60.846,0,0,1,73.209,309.98a.135.135,0,0,1,.225-.135Z" transform="translate(-59.833 -243.109)" fill="#263238"/>
      <path id="Path_2538" data-name="Path 2538" d="M94.45,439.259h36.743l-4.957-49.429H100.109Z" transform="translate(-61.964 -251.136)" fill="#455a64"/>
      <path id="Path_2539" data-name="Path 2539" d="M99.72,397.864h27.854l-.8-8.034H100.638Z" transform="translate(-62.493 -251.136)" fill="#263238"/>
      <rect id="Rectangle_1362" data-name="Rectangle 1362" width="34.44" height="7.89" transform="translate(68.077 141.114) rotate(180)" fill="#455a64"/>
    </g>
  </g>
</svg>
