<svg xmlns="http://www.w3.org/2000/svg" width="644.133" height="557.869" viewBox="0 0 644.133 557.869">
  <g id="Online_world-amico" data-name="Online world-amico" transform="translate(-58.812 -24.65)">
    <g id="freepik--World--inject-1--inject-8" transform="translate(98.02 24.65)">
      <g id="freepik--world--inject-1--inject-8-2" data-name="freepik--world--inject-1--inject-8" transform="translate(164.127 110.377)">
        <path id="Path_1980" data-name="Path 1980" d="M397.14,168.271a114.378,114.378,0,1,1-80.478-68.953,114.378,114.378,0,0,1,80.478,68.953Z" transform="translate(-176.567 -96.381)" fill="#429bc6"/>
        <path id="Path_1981" data-name="Path 1981" d="M245.067,107.291c-5.232.092-11.941,1.939-7.078,4.909s7.956,3.262,8,7.109-2.477,7.909-1.246,10.648,3.278,5.924,5.278,5,7.432-7,10.541-6.724,13.7.754,15.234-2.708,3.078-3.231,5.632-7.078,2.4-8.971-.693-9-3.508,1.308-8.679.923-7.571-3.785-12.6-2.893S248.93,107.229,245.067,107.291Z" transform="translate(-144.381 -90.504)" fill="#15a328"/>
        <path id="Path_1982" data-name="Path 1982" d="M256.815,108.72c-5.924,3.17-18.465,7.955-24.205,6.34-2.878-.816-6.294-1.954-9.941-2.631a114.654,114.654,0,0,0-44.24,66.8,37.837,37.837,0,0,0,5.17,8c4.524,5.309,9.233,5.986,14.942,7.094s3.939,4.339,6.755,7.694,4.032,5.355,7.248,7.171-1.139,5.216-2.4,8.925-1.631,5.786,1.016,13.3,10.31,13.634,12.587,16.542-1.539,6.294-.6,12.31.677,22.3,6.524,31.391,9.356,8.048,8.879,1.908S236.1,281.617,239.643,277s10.771-3.385,13.2-11.818,4.016-8.017,7.925-10.879,2.154-5.324,5.786-11.833,4.693-12.649-.677-15.388-8.91-2.4-13.526-8.74a59.119,59.119,0,0,0-18.465-16.08c-6.648-3.6-17.2.8-21.42-.431s-6.894-9.233-6.617-12.31-2.862-3.908-5.894-3.155-4.724-1.169-5.555-5.232,5.478-9.233,10.6-9.571,7.863,1.985,8.879,8.586a12.849,12.849,0,0,0,10.11,11.064c4.724,1.185,1.77-3.724-1.539-7.078s-3.585-6.417-1.062-13.849,8.74-6.848,13.372-13.649,5.524-1.693,10.2-1.016,3.985-1.847,5.709-6.155,7.694-.585,12.556-4.047-5.309-8.863-4.616-13.541,5.324-4.509,2.739-11.525.985-7.278,2.831-9.894S262.755,105.55,256.815,108.72Zm-6.925,17.111c-1.539,3.462-2.862,2.8-5.4,6.586a14.311,14.311,0,0,1-9.048,6.155c-2.554.308-6.755-4.232-6.971-7.048s3.832-3.647,8.417-4.232a25.7,25.7,0,0,0,12.68-5.863C252.861,118.906,251.445,122.384,249.891,125.831Z" transform="translate(-175.564 -90.563)" fill="#15a328"/>
        <path id="Path_1983" data-name="Path 1983" d="M361.853,189.989v.323a8.079,8.079,0,0,0-4.524,4.493c-2.6,6.386-3.078,3.585-9.233,7.925s-3.77,7.694-3.447,12.079-6.74,9.233-10.233,10.771-5.047,11.449-3.893,16.265-4.616,6.771-8.155,11.156-5.54,11.741-7.848,15.265a10.771,10.771,0,0,1-10.664,4.94c-4.185-.708-8.063-7.694-10.31-13.634a34.9,34.9,0,0,1-1.723-19.158c1.308-6.524.846-5.709-.708-15.9a16.25,16.25,0,0,0-12.664-14.2c-3.939-.985-10.448,1.308-13.957-.739s-5-5.016-7.294-14.6,2.462-11.772,6.155-16.927a35.761,35.761,0,0,1,17.573-12.418,19.343,19.343,0,0,1,15.049,1.939c4.016,2,5.909,6.494,8.771,6.8s5.309-1.185,8.171-.631,4.786,1.954,7.571,1.539,1.016-3.678.616-5.447-2.924-1.323-6.278-1.354-4.185-.939-5.37-3.17-3.078-.262-4.724-1.169-1.308,3.185-1.446,4.77-1.37-1.216-1.37-1.216-1.385,2.17-1.985,1.169.785-3.385.585-5.847-3.739-1.877-5.955-3.77a8.463,8.463,0,0,0-8.309-1.154c-3.078,1-3.57.277-4.909,2.939s-7.909,4.462-9.987,4.109-.616-4.616,1.169-8.309,5.463-2.493,7.694-6.263-.846-4.309-2.954-4.909-2.77-2.631-.569-7.432,5.124-3.478,6.34-1.262a7.4,7.4,0,0,0,6.694,3.355c2.816,0,2.154-1.954,2.093-6.155s1.831-6.309,5.57-7.879,9.987-4.109,12.31-6.355,6.632-.769,8.863,1.646,7.2,3.308,12.418,4.186a4.293,4.293,0,0,0,3.693-1.216,113.87,113.87,0,0,1,27.175,65.444Z" transform="translate(-133.448 -84.292)" fill="#15a328"/>
        <path id="Path_1984" data-name="Path 1984" d="M313.823,201.693c-2.785-.477-2.539.446-4.17,2.631s-4.016,4.616-3.585,6.955.646,5.093,2.57,3.416,1.262-3.708,4-4.939S317.993,202.4,313.823,201.693Z" transform="translate(-106.823 -39.707)" fill="#15a328"/>
        <path id="Path_1986" data-name="Path 1986" d="M259.94,266.037C203.328,219.6,205.1,129.425,254.708,100.28h0c-2.093.708-4.185,1.446-6.263,2.277A114.362,114.362,0,1,0,396.43,252.9C380.442,275.009,316.505,312.385,259.94,266.037Z" transform="translate(-176.565 -94.28)" opacity="0.05"/>
      </g>
      <g id="freepik--Icons--inject-1--inject-8" transform="translate(0)">
        <g id="freepik--Contact--inject-1--inject-8" transform="translate(506.825 116.258)">
          <path id="Path_1987" data-name="Path 1987" d="M435.677,101.614c-3.816-2.216-9.094-1.893-14.911,1.462-11.633,6.724-21.066,23.082-21.066,36.5,0,6.74,2.37,11.479,6.155,13.664l7.417,4.309c3.816,2.2,9.079,1.893,14.9-1.539,11.649-6.709,21.081-23.082,21.081-36.5,0-6.709-2.354-11.433-6.155-13.634" transform="translate(-399.7 -100.202)" fill="#00bbf0" opacity="0.94"/>
          <path id="Path_1988" data-name="Path 1988" d="M425.616,105.884c-11.633,6.724-21.066,23.082-21.066,36.515s9.433,18.881,21.066,12.156,21.1-23.082,21.081-36.5S437.249,99.175,425.616,105.884Z" transform="translate(-397.087 -98.687)" fill="#00bbf0"/>
          <path id="Path_1989" data-name="Path 1989" d="M433.946,126.974v1.539A33.762,33.762,0,0,1,422.313,140.7c-4.524,2.616-8.633,2.893-11.633,1.231v-3.17a20.727,20.727,0,0,1,9.479-16.434l3.078-1.77c2.724-1.539,5.355-1.77,7.417-.569S433.946,123.742,433.946,126.974Z" transform="translate(-393.784 -89.954)" fill="#c8a268"/>
          <path id="Path_1991" data-name="Path 1991" d="M413.035,143.594l-7.14-4.139c-3.847-2.185-6.155-6.925-6.155-13.664l7.463,4.339C407.142,136.669,409.373,141.332,413.035,143.594Z" transform="translate(-399.678 -86.416)" fill="#47cef5" opacity="0.31"/>
          <path id="Path_1992" data-name="Path 1992" d="M402.762,116.41l7.478,4.339a39.023,39.023,0,0,0-3.078,14.434h0l-7.463-4.339a39.36,39.36,0,0,1,3.062-14.434Z" transform="translate(-399.7 -91.47)" fill="#47cef5" opacity="0.31"/>
          <path id="Path_1993" data-name="Path 1993" d="M418.009,125.422a4.078,4.078,0,0,1-2.031-.523,5,5,0,0,1-2.2-4.616,13.111,13.111,0,0,1,6.032-10.418h0a4.493,4.493,0,0,1,7.248,4.2,13.1,13.1,0,0,1-6.017,10.418A6.155,6.155,0,0,1,418.009,125.422Z" transform="translate(-392.127 -95.527)" fill="#fff"/>
          <path id="Path_1994" data-name="Path 1994" d="M430.643,119.989c-2.062-1.2-4.616-.985-7.417.569l-3.078,1.77a20.727,20.727,0,0,0-9.479,16.434v3.2c3,1.662,7.109,1.385,11.633-1.231a33.761,33.761,0,0,0,11.633-12.187v-1.539C433.952,123.744,432.721,121.2,430.643,119.989Z" transform="translate(-393.79 -89.956)" fill="#fff"/>
        </g>
        <g id="freepik--Twitter--inject-1--inject-8" transform="translate(414.692 276.134)">
          <path id="Path_1995" data-name="Path 1995" d="M359.86,227.274a37.316,37.316,0,0,0,3.278-15.5,29.143,29.143,0,0,0,2.677-5.263,19.4,19.4,0,0,1-3.077,2.908,14.219,14.219,0,0,0,2.354-5.324,20.327,20.327,0,0,1-3.416,3.708,3.278,3.278,0,0,0-3.909,0,12.71,12.71,0,0,0-5.232,11.818c-4.462,2.277-8.417,1.708-11.064-1.093-1.416,4.032-.739,7.848,1.662,8.6a3.985,3.985,0,0,1-2.431.508c0,3.339,1.723,5.417,4.293,4.616a6.647,6.647,0,0,1-2.416,1.539,3.17,3.17,0,0,0,5.017,2.077,18.619,18.619,0,0,1-7.956,7.555,10.771,10.771,0,0,0,8.232-1.539c5.309-3.078,9.387-8.6,11.987-14.6" transform="translate(-339.64 -204.1)" fill="#3faed8"/>
        </g>
        <g id="freepik--Instagram--inject-1--inject-8" transform="translate(12.618 278.535)">
          <path id="Path_1996" data-name="Path 1996" d="M91.292,207.06c3.816-2.2,9.079-1.893,14.911,1.539,11.633,6.724,21.066,23.082,21.066,36.515,0,6.74-2.385,11.464-6.155,13.649l-7.432,4.309c-3.8,2.2-9.079,1.893-14.9-1.462-11.633-6.724-21.066-23.082-21.066-36.515,0-6.709,2.354-11.433,6.155-13.634" transform="translate(-77.658 -205.66)" fill="#f03131"/>
          <path id="Path_1997" data-name="Path 1997" d="M98.746,211.342c11.633,6.724,21.081,23.082,21.081,36.5s-9.448,18.881-21.081,12.172S77.665,236.932,77.68,223.5,87.128,204.663,98.746,211.342Z" transform="translate(-77.68 -204.141)" fill="#f03131"/>
          <path id="Path_1998" data-name="Path 1998" d="M92.016,221.844c-2.585-1.539-4.616.092-4.616,3.539a11.2,11.2,0,0,0,4.616,8.94c2.585,1.539,4.616-.092,4.616-3.539a11.2,11.2,0,0,0-4.616-8.94Zm0,10.294a7.279,7.279,0,0,1-3.078-5.817c0-2.231,1.354-3.262,3.078-2.293a7.294,7.294,0,0,1,3.078,5.8C95.063,232.076,93.694,233.169,92.016,232.138Z" transform="translate(-72.443 -197.254)" fill="#fff"/>
          <path id="Path_1999" data-name="Path 1999" d="M95.64,224.054c0,.816-.492,1.185-1.093.831a2.6,2.6,0,0,1-1.108-2.093c0-.8.492-1.169,1.108-.816a2.6,2.6,0,0,1,1.093,2.077" transform="translate(-69.189 -196.942)" fill="#fff"/>
          <path id="Path_2000" data-name="Path 2000" d="M102.511,223.036l-16.234-9.387c-1.154-.662-2.077,0-2.077,1.539v21.651a4.939,4.939,0,0,0,2.077,3.955l5.817,3.37,4.832,2.785,5.586,3.216c1.139.662,2.077,0,2.077-1.539V226.991a4.955,4.955,0,0,0-2.077-3.955Zm0,24.513L87,238.593a1.693,1.693,0,0,1-.831-1.446V216.312l15.511,8.956a1.646,1.646,0,0,1,.831,1.446Z" transform="translate(-74.167 -201.494)" fill="#fff"/>
          <path id="Path_2002" data-name="Path 2002" d="M101.24,249.054l7.14-4.155c3.832-2.185,6.155-6.909,6.155-13.649l-7.463,4.324C107.118,242.129,104.872,246.776,101.24,249.054Z" transform="translate(-64.986 -191.873)" opacity="0.2"/>
          <path id="Path_2003" data-name="Path 2003" d="M110.533,221.86,103.07,226.2a39.086,39.086,0,0,1,3.078,14.434h0l7.463-4.324a39.1,39.1,0,0,0-3.078-14.449Z" transform="translate(-64 -196.932)" opacity="0.1"/>
        </g>
        <g id="freepik--Facebook--inject-1--inject-8" transform="translate(388.184 12.975)">
          <path id="Path_2004" data-name="Path 2004" d="M358.387,34.494c-3.8-2.216-9.079-1.893-14.9,1.462-11.649,6.724-21.081,23.082-21.081,36.5,0,6.755,2.385,11.479,6.155,13.664L336,90.429c3.816,2.2,9.079,1.893,14.9-1.462,11.633-6.724,21.081-23.082,21.081-36.515,0-6.709-2.37-11.433-6.155-13.634" transform="translate(-322.395 -33.082)" fill="#00bbf0" opacity="0.6"/>
          <path id="Path_2005" data-name="Path 2005" d="M348.376,38.809c-11.633,6.724-21.066,23.082-21.066,36.5s9.371,18.881,21.066,12.172S369.457,64.4,369.457,50.965,359.948,32.084,348.376,38.809Z" transform="translate(-319.755 -31.55)" fill="#00bbf0"/>
          <path id="Path_2007" data-name="Path 2007" d="M335.76,76.514l-7.155-4.155c-3.832-2.185-6.155-6.909-6.155-13.649l7.479,4.324C329.867,69.589,332.114,74.236,335.76,76.514Z" transform="translate(-322.373 -19.275)" fill="#00bbf0" opacity="0.23"/>
          <path id="Path_2008" data-name="Path 2008" d="M325.493,49.32l7.463,4.339a39.362,39.362,0,0,0-3.078,14.434h0L322.4,63.769a39.1,39.1,0,0,1,3.093-14.449Z" transform="translate(-322.4 -24.334)" fill="#00bbf0" opacity="0.3"/>
          <g id="freepik--facebook--inject-1--inject-8-2" data-name="freepik--facebook--inject-1--inject-8" transform="translate(22.466 11.091)">
            <path id="Path_2009" data-name="Path 2009" d="M339.739,81.283l5.355-3.078V60.279l3.739-2.154.4-6.155-4.139,2.385V50.877c0-1.416.215-2.093,1.246-2.677l2.97-1.677V40.29L345.6,42.444a10.879,10.879,0,0,0-5.786,10.171v4.77L337,59v6.063l2.785-1.539Z" transform="translate(-337 -40.29)" fill="#fff"/>
          </g>
        </g>
        <g id="freepik--Like--inject-1--inject-8" transform="translate(327.713 376.881)">
          <path id="Path_2010" data-name="Path 2010" d="M318.987,270.984c-3.8-2.216-9.079-1.893-14.9,1.462-11.649,6.724-21.081,23.082-21.081,36.5,0,6.755,2.385,11.479,6.155,13.664l7.432,4.309c3.816,2.2,9.079,1.893,14.9-1.539,11.633-6.709,21.081-23.082,21.081-36.5,0-6.709-2.37-11.433-6.155-13.634" transform="translate(-282.995 -269.572)" fill="#00bbf0"/>
          <path id="Path_2011" data-name="Path 2011" d="M308.936,275.268c-11.633,6.709-21.066,23.082-21.066,36.5s9.433,18.881,21.066,12.156,21.081-23.082,21.081-36.5S320.569,268.544,308.936,275.268Z" transform="translate(-280.376 -268.055)" fill="#00bbf0"/>
          <path id="Path_2013" data-name="Path 2013" d="M296.36,312.985l-7.155-4.2c-3.832-2.185-6.155-6.909-6.155-13.664l7.478,4.339C290.467,306.076,292.714,310.723,296.36,312.985Z" transform="translate(-282.973 -255.808)" opacity="0.2"/>
          <path id="Path_2014" data-name="Path 2014" d="M286.078,285.78l7.463,4.339a39.3,39.3,0,0,0-3.078,14.434h0L283,300.214a39.086,39.086,0,0,1,3.078-14.434Z" transform="translate(-283 -260.84)" opacity="0.1"/>
          <path id="Path_2015" data-name="Path 2015" d="M298.38,295.018s3.416-7.848,3.739-8.986a35.03,35.03,0,0,0,0-5.847c0-.754,3.078-2.847,4.109-.692a11.4,11.4,0,0,1,.523,7.263l7.571-4.416c1.539-.939,2.262.385,2.262,1.416a5.74,5.74,0,0,1-1.216,3.262s1.539-.462,1.539,1.539a5.324,5.324,0,0,1-1.831,3.708s.492.385.508,1.8a6.032,6.032,0,0,1-2.124,3.785,4.615,4.615,0,0,1,.339,1.785,5.817,5.817,0,0,1-2.77,4.355L298.5,311.3Z" transform="translate(-274.714 -264.738)" fill="#fff"/>
          <path id="Path_2016" data-name="Path 2016" d="M293.737,311.788,299.2,308.6l-.077-18.973-5.463,3.17Z" transform="translate(-277.257 -258.766)" fill="#fff"/>
        </g>
        <g id="freepik--Play--inject-1--inject-8" transform="translate(170.333 372.354)">
          <path id="Path_2018" data-name="Path 2018" d="M194.072,268.03c3.816-2.2,9.079-1.893,14.911,1.539,11.633,6.724,21.066,23.082,21.066,36.5,0,6.74-2.385,11.464-6.155,13.664l-7.432,4.309c-3.8,2.2-9.079,1.877-14.9-1.539C189.933,315.778,180.5,299.421,180.5,286c0-6.724,2.354-11.433,6.155-13.634" transform="translate(-180.438 -266.63)" fill="#a53fd8"/>
          <path id="Path_2019" data-name="Path 2019" d="M201.526,272.3c11.649,6.724,21.081,23.082,21.081,36.5s-9.448,18.9-21.081,12.172-21.081-23.082-21.066-36.5S189.908,265.67,201.526,272.3Z" transform="translate(-180.46 -265.102)" fill="#a53fd8"/>
          <path id="Path_2021" data-name="Path 2021" d="M204,310.024l7.14-4.139c3.832-2.2,6.155-6.924,6.155-13.664l-7.371,4.278C209.909,303.1,207.662,307.762,204,310.024Z" transform="translate(-167.777 -252.843)" opacity="0.2"/>
          <path id="Path_2022" data-name="Path 2022" d="M213.313,282.84l-7.463,4.324a39.086,39.086,0,0,1,3.078,14.434h0l7.463-4.339A39.084,39.084,0,0,0,213.313,282.84Z" transform="translate(-166.78 -257.897)" opacity="0.1"/>
          <path id="Path_2023" data-name="Path 2023" d="M189.84,278.827v20.42c0,1.539.6,2.647,1.354,2.508l14.141-2.724c.739-.154.431-1.539-.723-3.078l-12.695-17.111C190.763,277.319,189.84,277.3,189.84,278.827Z" transform="translate(-175.406 -260.67)" fill="#fff"/>
        </g>
        <g id="freepik--Music--inject-1--inject-8" transform="translate(0 105.579)">
          <path id="Path_2024" data-name="Path 2024" d="M83.092,94.674c3.816-2.216,9.079-1.893,14.911,1.462,11.633,6.724,21.066,23.082,21.066,36.5,0,6.755-2.37,11.479-6.155,13.664l-7.417,4.309c-3.816,2.2-9.079,1.893-14.911-1.539-11.633-6.709-21.066-23.082-21.066-36.5,0-6.709,2.354-11.433,6.155-13.634" transform="translate(-69.458 -93.262)" fill="#f03131"/>
          <path id="Path_2025" data-name="Path 2025" d="M90.561,99.02c11.633,6.724,21.066,23.082,21.066,36.5s-9.433,18.881-21.081,12.156-21.081-23.082-21.066-36.5S78.928,92.218,90.561,99.02Z" transform="translate(-69.48 -91.73)" fill="#f03131"/>
          <path id="Path_2027" data-name="Path 2027" d="M93,136.654l7.14-4.139c3.847-2.185,6.155-6.909,6.155-13.664l-7.463,4.339C98.955,129.745,96.708,134.469,93,136.654Z" transform="translate(-56.808 -79.476)" opacity="0.2"/>
          <path id="Path_2028" data-name="Path 2028" d="M102.333,109.47l-7.463,4.339a39.086,39.086,0,0,1,3.078,14.434h0l7.463-4.339A39.085,39.085,0,0,0,102.333,109.47Z" transform="translate(-55.8 -84.53)" opacity="0.1"/>
          <path id="Path_2029" data-name="Path 2029" d="M81.493,102.05v20.927a7.233,7.233,0,0,0-1.385-1.062c-1.539-.923-2.878.323-2.878,2.77a7.556,7.556,0,0,0,2.878,6.078c1.539.923,3.493,0,3.493-2.431V109.144l9.233,5.416v15.019a7.909,7.909,0,0,0-1.385-1.062c-1.539-.923-2.354.6-2.354,3.078a7.586,7.586,0,0,0,2.878,6.155c1.539.923,2.878-.323,2.878-2.77h0V109.9Z" transform="translate(-65.305 -88.528)" fill="#fff"/>
        </g>
        <g id="freepik--Image--inject-1--inject-8" transform="translate(497.27 287.413)">
          <path id="Path_2030" data-name="Path 2030" d="M429.467,212.83c-3.816-2.2-9.094-1.893-14.911,1.539-11.633,6.724-21.066,23.082-21.066,36.5,0,6.74,2.37,11.464,6.155,13.664l7.417,4.309c3.816,2.2,9.079,1.877,14.9-1.539,11.649-6.724,21.081-23.082,21.081-36.5,0-6.724-2.354-11.433-6.155-13.634" transform="translate(-393.49 -211.43)" fill="#f03131"/>
          <path id="Path_2031" data-name="Path 2031" d="M419.376,217.114c-11.633,6.724-21.066,23.082-21.066,36.5s9.433,18.9,21.066,12.172,21.1-23.082,21.081-36.5S431.055,210.405,419.376,217.114Z" transform="translate(-390.893 -209.914)" fill="#f03131"/>
          <path id="Path_2033" data-name="Path 2033" d="M406.825,254.824l-7.14-4.139c-3.847-2.2-6.155-6.924-6.155-13.664l7.463,4.339C400.932,247.9,403.178,252.562,406.825,254.824Z" transform="translate(-393.468 -197.643)" opacity="0.2"/>
          <path id="Path_2034" data-name="Path 2034" d="M396.552,227.64l7.478,4.324a39.084,39.084,0,0,0-3.077,14.434h0l-7.463-4.355a39.362,39.362,0,0,1,3.062-14.4Z" transform="translate(-393.49 -202.697)" opacity="0.1"/>
          <path id="Path_2035" data-name="Path 2035" d="M405.19,231.852v26.467c0,.8.554,1.123,1.246.723l18.573-10.771a2.755,2.755,0,0,0,1.246-2.154V219.68c0-.785-.554-1.108-1.246-.723l-18.573,10.771a2.708,2.708,0,0,0-1.246,2.124Zm18.65,15.388-16.234,9.387a.775.775,0,0,1-1.246-.723V232.96a2.739,2.739,0,0,1,1.246-2.154l16.234-9.371c.692-.4,1.246-.077,1.246.708v22.882a2.708,2.708,0,0,1-1.246,2.154Z" transform="translate(-387.186 -207.463)" fill="#fff"/>
          <path id="Path_2036" data-name="Path 2036" d="M405.95,250.729v-7.448l5.909-11.341,6.14,6.74-1.323-3.262,2.431-4.478,5.57,3.816v5.17Z" transform="translate(-386.777 -200.919)" fill="#fff"/>
          <path id="Path_2037" data-name="Path 2037" d="M415.574,224.99c.739-.431,1.354.154,1.354,1.308a3.6,3.6,0,0,1-1.354,2.862c-.754.431-1.354-.154-1.354-1.308A3.539,3.539,0,0,1,415.574,224.99Z" transform="translate(-382.321 -204.201)" fill="#fff"/>
        </g>
        <g id="freepik--speach-bubble--inject-1--inject-8" transform="translate(124.826)">
          <path id="Path_2038" data-name="Path 2038" d="M173.332,82.93l-4.17-7.832,3.432-9.664V59.51L162.33,65.434v5.909l4.416,7.694a.631.631,0,0,0,.308.262h0Z" transform="translate(-144.619 -5.869)" fill="#c8a268"/>
          <path id="Path_2039" data-name="Path 2039" d="M173.332,82.93l-4.17-7.832,3.432-9.664V59.51L162.33,65.434v5.909l4.416,7.694a.631.631,0,0,0,.308.262h0Z" transform="translate(-144.619 -5.869)" fill="#00bbf0"/>
          <path id="Path_2040" data-name="Path 2040" d="M223.635,32.159a6.832,6.832,0,0,0-3.078-5.324l-2.508-1.446a6.786,6.786,0,0,0-6.155,0L153.9,58.9a6.771,6.771,0,0,0-3.078,5.324V94.218a6.786,6.786,0,0,0,3.078,5.34L156.406,101a6.848,6.848,0,0,0,6.155,0l12.31-7.14,4.4,7.694a.646.646,0,0,0,1.185-.108l4.616-13.434,35.392-20.45a6.832,6.832,0,0,0,3.078-5.324Z" transform="translate(-150.82 -24.65)" fill="#3faed8"/>
          <path id="Path_2041" data-name="Path 2041" d="M150.82,81.438a6.786,6.786,0,0,0,3.078,5.34l2.508,1.446a6.924,6.924,0,0,0,5.617.246c-1.446.539-2.554-.277-2.554-2.031V56.449a6.278,6.278,0,0,1,.908-3.078l-8.648-5a6.155,6.155,0,0,0-.908,3.078Z" transform="translate(-150.82 -11.871)" opacity="0.2"/>
          <path id="Path_2042" data-name="Path 2042" d="M223.226,31.34c-.354-1.308-1.539-1.723-2.97-.908l-58.012,33.53a6.017,6.017,0,0,0-2.216,2.231l-8.648-5a6.371,6.371,0,0,1,2.17-2.293l58-33.515a6.878,6.878,0,0,1,6.155,0l2.508,1.446A6.755,6.755,0,0,1,223.226,31.34Z" transform="translate(-150.518 -24.647)" fill="#fff" opacity="0.2"/>
          <path id="Path_2043" data-name="Path 2043" d="M168.9,54.126a9.048,9.048,0,0,0-4.109,7.109c0,2.616,1.831,3.678,4.109,2.37a9.079,9.079,0,0,0,4.093-7.109C172.992,53.88,171.161,52.818,168.9,54.126Z" transform="translate(-143.293 -9.071)" fill="#fff"/>
          <path id="Path_2044" data-name="Path 2044" d="M178.729,48.436a9.094,9.094,0,0,0-4.109,7.109c0,2.616,1.847,3.678,4.109,2.37a9.094,9.094,0,0,0,4.17-7.109C182.9,48.19,180.991,47.128,178.729,48.436Z" transform="translate(-137.997 -12.137)" fill="#fff"/>
          <path id="Path_2045" data-name="Path 2045" d="M188.569,42.746a9.048,9.048,0,0,0-4.109,7.109c0,2.616,1.831,3.678,4.109,2.37a9.079,9.079,0,0,0,4.093-7.109C192.662,42.5,190.831,41.438,188.569,42.746Z" transform="translate(-132.695 -15.203)" fill="#fff"/>
        </g>
        <g id="freepik--Letter--inject-1--inject-8" transform="translate(433.66 137.456)">
          <path id="Path_2046" data-name="Path 2046" d="M352.944,155.882l26.636-15.388a2.247,2.247,0,0,0,.908-1.77V114.781c0-.677-.4-.985-.908-.692l-26.636,15.388a2.2,2.2,0,0,0-.923,1.754V155.2C351.99,155.867,352.436,156.174,352.944,155.882Z" transform="translate(-351.99 -113.978)" fill="#00bbf0"/>
          <path id="Path_2047" data-name="Path 2047" d="M352,155.147v-.477l11.018-18.25L352.154,130.4a.769.769,0,0,1,.077-.2l13.541,5.647c.277.123.646-.092.939-.554l13.526-21.235a.185.185,0,0,1,.077,0l-10.848,18.558,11,5.54v.462a2.447,2.447,0,0,1-.277,1.093l-11.279-6.155-1.539,2.739c-.646,1.077-1.539,1.539-2.139,1.231l-1.539-.893-11.264,19.142a.846.846,0,0,1-.431-.631Z" transform="translate(-352 -113.936)" fill="#fff"/>
        </g>
        <g id="freepik--Money--inject-1--inject-8" transform="translate(122.065 269.76)">
          <path id="Path_2048" data-name="Path 2048" d="M159.772,207.516a17.4,17.4,0,0,1,2.216,2.8,23.96,23.96,0,0,1,1.708,3.216,21.725,21.725,0,0,1,1.108,3.231,13.293,13.293,0,0,1,.446,2.862.954.954,0,0,1-.185.646.292.292,0,0,1-.4.092l-3.555-2.062a1.785,1.785,0,0,1-.615-.554,5.707,5.707,0,0,1-.477-.846l-.262-.631a6.589,6.589,0,0,0-.492-1,7.327,7.327,0,0,0-.831-1.093,4.618,4.618,0,0,0-1.185-.954,5.712,5.712,0,0,0-1-.462,1.692,1.692,0,0,0-.846-.092.831.831,0,0,0-.6.4,1.97,1.97,0,0,0-.231,1.077,3.6,3.6,0,0,0,.262,1.354,5.679,5.679,0,0,0,.877,1.4,15.675,15.675,0,0,0,1.539,1.723c.677.646,1.539,1.446,2.508,2.37a24.623,24.623,0,0,1,2.6,2.862,15.479,15.479,0,0,1,1.862,3.078,15.832,15.832,0,0,1,1.123,3.539,21.729,21.729,0,0,1,.369,4.155,12.7,12.7,0,0,1-.431,3.478,5.908,5.908,0,0,1-1.231,2.293,3.462,3.462,0,0,1-1.908,1.077,5.2,5.2,0,0,1-2.447-.154v3.431a1.231,1.231,0,0,1-.215.785.354.354,0,0,1-.523.092L155.4,243.57a1.385,1.385,0,0,1-.523-.677,2.77,2.77,0,0,1-.215-1.046v-3.585a16.544,16.544,0,0,1-2.277-2.847,23.643,23.643,0,0,1-1.8-3.293,20.141,20.141,0,0,1-1.154-3.4A15.569,15.569,0,0,1,149,225.5a1.046,1.046,0,0,1,.169-.646.308.308,0,0,1,.4-.092l3.57,2.062a2.185,2.185,0,0,1,.6.508,6.572,6.572,0,0,1,.431.769,4.964,4.964,0,0,0,.323.816,9.594,9.594,0,0,0,.585,1.231,7.921,7.921,0,0,0,.923,1.323,4.97,4.97,0,0,0,1.37,1.139,5.17,5.17,0,0,0,2.416.831c.646,0,.969-.477.969-1.446a3.154,3.154,0,0,0-.354-1.416,9.232,9.232,0,0,0-1.062-1.539c-.477-.539-1.077-1.154-1.816-1.847s-1.539-1.539-2.6-2.462a16.773,16.773,0,0,1-4.093-5.924,19.758,19.758,0,0,1-1.293-7.386,12.405,12.405,0,0,1,.354-3.078,7,7,0,0,1,1.031-2.293,3.662,3.662,0,0,1,1.631-1.323,4.063,4.063,0,0,1,2.185-.246v-3.57a1.277,1.277,0,0,1,.215-.8.385.385,0,0,1,.523-.092l3.555,2.062a1.431,1.431,0,0,1,.523.692,2.693,2.693,0,0,1,.215,1.031Z" transform="translate(-148.998 -199.958)" fill="#1aa92d"/>
        </g>
        <g id="freepik--Pin--inject-1--inject-8" transform="translate(269.507 24.067)">
          <path id="Path_2049" data-name="Path 2049" d="M272.081,44.167l-4.909-2.785h0c-2.324-1.539-5.57-1.539-9.233.569-7.125,4.109-12.88,14.541-12.88,23.3v1.985c0,8.756,11.772,18.281,11.772,18.281l4.816,2.724s-2.893-3.293-2.57-3.97c3.078-6.478,11.741-24.759,11.741-31.9v-2a15.679,15.679,0,0,0-.554-4.278l.554.323Zm-14.064,20c-3.555,2.047-6.447.385-6.447-3.724,1.923-.292,6.74-8.509,6.447-11.156,3.555-2.047,6.432-.385,6.432,3.724a14.249,14.249,0,0,1-6.432,11.233Z" transform="translate(-245.06 -40.291)" fill="#f03131" opacity="0.82"/>
          <path id="Path_2051" data-name="Path 2051" d="M274.225,52.289c0-8.756-5.77-12.526-12.88-8.417s-12.895,14.541-12.895,23.3v2c0,6.74,7.694,14.557,11.156,17.8a1.739,1.739,0,0,0,2.739-.508c3.078-6.155,11.879-24.928,11.879-32.176Zm-12.88,13.849c-3.57,2.062-6.447.4-6.447-3.708a14.2,14.2,0,0,1,6.447-11.156c3.555-2.062,6.432-.4,6.432,3.708a14.218,14.218,0,0,1-6.432,11.2Z" transform="translate(-243.234 -39.257)" fill="#f03131"/>
        </g>
      </g>
      <g id="freepik--Lines--inject-1--inject-8" transform="translate(21.186 30.876)" opacity="0.8">
        <path id="Path_2052" data-name="Path 2052" d="M444.716,135.071a.585.585,0,0,1-.369-.139L349.235,57.547a.574.574,0,1,1,.723-.892l95.127,77.4a.569.569,0,0,1-.369,1.016Z" transform="translate(58.635 -38.353)" fill="#15a328"/>
        <path id="Path_2053" data-name="Path 2053" d="M410.349,256.95h0a.585.585,0,0,1-.539-.6l5.555-120.456a.577.577,0,1,1,1.154.046l-5.6,120.44A.569.569,0,0,1,410.349,256.95Z" transform="translate(91.387 4.11)" fill="#15a328"/>
        <path id="Path_2054" data-name="Path 2054" d="M426.851,261.057a.539.539,0,0,1-.508-.308L363.361,142.263a.585.585,0,0,1,.246-.769.569.569,0,0,1,.769.231l62.967,118.486a.554.554,0,0,1-.231.769.569.569,0,0,1-.262.077Z" transform="translate(66.329 7.39)" fill="#15a328"/>
        <path id="Path_2055" data-name="Path 2055" d="M373.587,126.029a.554.554,0,0,1-.554-.462.585.585,0,0,1,.446-.677l47.21-9.356a.554.554,0,0,1,.662.446.585.585,0,0,1-.446.677l-47.148,9.356Z" transform="translate(71.567 -6.567)" fill="#15a328"/>
        <path id="Path_2056" data-name="Path 2056" d="M368.629,142.038a.569.569,0,0,1-.523-.339l-30.9-71a.569.569,0,1,1,1.046-.446l30.976,70.984a.554.554,0,0,1-.292.754A.615.615,0,0,1,368.629,142.038Z" transform="translate(52.481 -31.148)" fill="#15a328"/>
        <path id="Path_2057" data-name="Path 2057" d="M265.583,62.4a.585.585,0,0,1-.569-.477.554.554,0,0,1,.477-.662L366.558,44.722a.577.577,0,0,1,.185,1.139L265.676,62.387Z" transform="translate(13.778 -44.716)" fill="#15a328"/>
        <path id="Path_2058" data-name="Path 2058" d="M400.458,150.676a.631.631,0,0,1-.308-.092L264.63,63.627a.572.572,0,0,1,.631-.954L400.75,149.63a.569.569,0,0,1-.323,1.046Z" transform="translate(13.359 -35.092)" fill="#15a328"/>
        <path id="Path_2059" data-name="Path 2059" d="M352.639,234.893h0a.585.585,0,0,1-.508-.646l10.387-92.327a.569.569,0,0,1,.646-.508.554.554,0,0,1,.492.631L353.27,234.37a.569.569,0,0,1-.631.523Z" transform="translate(60.309 7.379)" fill="#15a328"/>
        <path id="Path_2060" data-name="Path 2060" d="M312.421,314.642a.579.579,0,0,1-.292-1.077l129.258-75.246a.569.569,0,1,1,.569.985L312.7,314.565a.693.693,0,0,1-.277.077Z" transform="translate(38.606 59.549)" fill="#15a328"/>
        <path id="Path_2061" data-name="Path 2061" d="M419.264,235.946H419.1L358.452,218.3a.585.585,0,0,1-.385-.708.569.569,0,0,1,.708-.4l60.643,17.65a.563.563,0,0,1-.154,1.108Z" transform="translate(63.498 48.197)" fill="#15a328"/>
        <path id="Path_2062" data-name="Path 2062" d="M311.451,295.621a.6.6,0,0,1-.354-.108.585.585,0,0,1-.108-.8l45.84-61.551a.569.569,0,0,1,.8-.123.585.585,0,0,1,.123.816l-45.84,61.551a.585.585,0,0,1-.462.215Z" transform="translate(38.401 56.689)" fill="#15a328"/>
        <path id="Path_2063" data-name="Path 2063" d="M213.4,292.891a.538.538,0,0,1-.446-.231L162.4,227.923a.57.57,0,1,1,.892-.708l50.564,64.736a.585.585,0,0,1-.462.939Z" transform="translate(-41.015 53.495)" fill="#15a328"/>
        <path id="Path_2064" data-name="Path 2064" d="M106.689,236.84a.585.585,0,0,1-.523-.354.569.569,0,0,1,.323-.754L161.331,213.9a.585.585,0,0,1,.431,1.077L106.95,236.809Z" transform="translate(-70.924 46.425)" fill="#15a328"/>
        <path id="Path_2065" data-name="Path 2065" d="M157.587,219.135a.554.554,0,0,1-.554-.431l-16.757-68.737a.569.569,0,0,1,.415-.692.585.585,0,0,1,.692.431l16.757,68.722a.569.569,0,0,1-.415.692Z" transform="translate(6.213 11.611)" fill="#c8a268"/>
        <path id="Path_2066" data-name="Path 2066" d="M96.37,248.134a.538.538,0,0,1-.262,0,.569.569,0,0,1-.246-.769l52.319-104.314a.585.585,0,0,1,.769-.262.6.6,0,0,1,.262.785L96.878,247.781A.539.539,0,0,1,96.37,248.134Z" transform="translate(-76.486 8.094)" fill="#15a328"/>
        <path id="Path_2067" data-name="Path 2067" d="M95.746,252.887a.569.569,0,0,1-.569-.523L83.251,127.722a.569.569,0,0,1,.523-.631.554.554,0,0,1,.616.523L96.315,252.256a.569.569,0,0,1-.508.631Z" transform="translate(-83.248 -0.336)" fill="#15a328"/>
        <path id="Path_2068" data-name="Path 2068" d="M231.193,312.856a.523.523,0,0,1-.292-.077L104.982,240.087a.575.575,0,0,1,.569-1l125.934,72.707a.569.569,0,0,1-.292,1.062Z" transform="translate(-71.695 59.966)" fill="#15a328"/>
        <path id="Path_2069" data-name="Path 2069" d="M139.929,153.28a.616.616,0,0,1-.231,0,.585.585,0,0,1-.292-.754l33.53-76.616a.569.569,0,0,1,.754-.292.554.554,0,0,1,.292.754l-33.515,76.616a.585.585,0,0,1-.539.292Z" transform="translate(-53.254 -28.094)" fill="#15a328"/>
        <path id="Path_2070" data-name="Path 2070" d="M266.013,61.634h-.138l-63.629-15.7a.585.585,0,0,1-.431-.692.6.6,0,0,1,.708-.431L266.151,60.5a.577.577,0,0,1-.138,1.139Z" transform="translate(-19.911 -44.67)" fill="#15a328"/>
        <path id="Path_2071" data-name="Path 2071" d="M92.2,125.576a.554.554,0,0,1-.462-.231.585.585,0,0,1,.123-.816L177.4,62.748a.6.6,0,0,1,.816.123.585.585,0,0,1-.138.816L92.6,125.468a.554.554,0,0,1-.4.108Z" transform="translate(-78.733 -35.059)" fill="#15a328"/>
        <path id="Path_2072" data-name="Path 2072" d="M139.338,133.942a.431.431,0,0,1-.231,0L99.283,115.184a.569.569,0,0,1,.477-1.031l39.824,18.635a.569.569,0,0,1,.277.769.585.585,0,0,1-.523.385Z" transform="translate(-74.767 -7.325)" fill="#15a328"/>
        <path id="Path_2073" data-name="Path 2073" d="M146.294,168.431a.616.616,0,0,1-.477-.246.569.569,0,0,1,.138-.8L290.6,64.087a.574.574,0,1,1,.662.939l-144.645,103.3a.508.508,0,0,1-.323.108Z" transform="translate(-49.941 -34.336)" fill="#15a328"/>
        <path id="Path_2074" data-name="Path 2074" d="M328.212,287.245h0l-118.748-.077a.554.554,0,0,1,0-1.108h0l118.748.092a.554.554,0,1,1,0,1.092Z" transform="translate(-16.194 85.316)" fill="#15a328"/>
      </g>
    </g>
    <g id="freepik--Plants--inject-1--inject-8" transform="translate(58.812 546.044)">
      <g id="freepik--plants--inject-1--inject-8-2" data-name="freepik--plants--inject-1--inject-8" transform="translate(0 0)">
        <path id="Path_2077" data-name="Path 2077" d="M68.058,384.55h0a.277.277,0,0,0,.154-.354c-5.586-13.726-16.188-19.466-21.02-20.573a.277.277,0,0,0-.339.215.292.292,0,0,0,.231.369c4.724,1.077,15.126,6.709,20.62,20.22a.277.277,0,0,0,.354.123Z" transform="translate(-42.469 -363.615)" fill="#fff"/>
        <path id="Path_2079" data-name="Path 2079" d="M69.328,393.795h0a.277.277,0,0,0,.2-.339c-4.309-16.126-21.3-18.465-25.267-18.158a.262.262,0,0,0,0,.523c3.893-.277,20.512,2,24.713,17.773a.277.277,0,0,0,.354.2Z" transform="translate(-44 -357.333)" fill="#fff"/>
        <path id="Path_2080" data-name="Path 2080" d="M48.322,383.423a.246.246,0,0,0,.139-.077,14.187,14.187,0,0,1,11.572-3.262.246.246,0,0,0,.292-.215.261.261,0,0,0-.215-.308,14.68,14.68,0,0,0-12.079,3.416.246.246,0,0,0,0,.369.262.262,0,0,0,.292.077Z" transform="translate(-41.874 -355.132)" fill="#fff"/>
      </g>
      <g id="freepik--plants--inject-1--inject-8-3" data-name="freepik--plants--inject-1--inject-8" transform="translate(618.623 14.204)">
        <path id="Path_2097" data-name="Path 2097" d="M447.068,391.364h0a.261.261,0,0,1-.185-.323c4.293-16.126,21.281-18.465,25.251-18.173a.27.27,0,0,1-.031.539c-3.893-.292-20.512,2-24.713,17.773a.277.277,0,0,1-.323.185Z" transform="translate(-446.874 -372.845)" fill="#fff"/>
        <path id="Path_2098" data-name="Path 2098" d="M463.454,380.955a.231.231,0,0,1-.138,0,14.1,14.1,0,0,0-11.572-3.262.262.262,0,0,1-.292-.231.246.246,0,0,1,.216-.292,14.634,14.634,0,0,1,12.018,3.4.277.277,0,0,1,0,.385.262.262,0,0,1-.231,0Z" transform="translate(-444.41 -370.623)" fill="#fff"/>
      </g>
    </g>
    <g id="freepik--character-2--inject-1--inject-8" transform="translate(575.767 386.872)">
      <g id="freepik--Character--inject-1--inject-8">
        <path id="Path_2259" data-name="Path 2259" d="M440.247,381.86a7.34,7.34,0,0,0,.2,3.339,7.479,7.479,0,0,0,2.693,3.247,13.261,13.261,0,0,1,2.247,2.724,11.541,11.541,0,0,0,2.339,2.924,4.708,4.708,0,0,0,3.785.277c.985-.415,1.323-.8,1.262-2.385s-4.863-2.124-4.863-2.124Z" transform="translate(-390.75 -248.972)" fill="#37474f"/>
        <path id="Path_2260" data-name="Path 2260" d="M452.111,387.92c.4.154.508.939.569,2.493,0,1.169.539,2.893-1.077,3.631a3.955,3.955,0,0,1-4.278-.908,52.285,52.285,0,0,0-3.416-4.278c-1.354-1.539-2.785-1.954-3.385-4.893-.385-1.877-.077-2.647,1.185-3.185,1.739-.754,4.478,1.677,5.832,2.062S451.619,387.767,452.111,387.92Z" transform="translate(-390.627 -249.632)" fill="#455a64"/>
        <path id="Path_2261" data-name="Path 2261" d="M446.416,382.1l-.231-.092a4.617,4.617,0,0,0-3.77,2.477c-.231.508.492.908.908.508a4.8,4.8,0,0,1,3.77-2.447A1.939,1.939,0,0,0,446.416,382.1Z" transform="translate(-389.549 -248.891)" fill="#fafafa"/>
        <path id="Path_2262" data-name="Path 2262" d="M446.949,382.64a4.478,4.478,0,0,0-3.493,2.447c-.231.523.477.923.908.523a4.616,4.616,0,0,1,3.078-2.354C447.4,383.04,447.133,382.825,446.949,382.64Z" transform="translate(-388.989 -248.552)" fill="#fafafa"/>
        <path id="Path_2263" data-name="Path 2263" d="M441.348,386.238s.138-3.478,4.847-3.97l.262.154a4.124,4.124,0,0,0-2.308-1.785,3.232,3.232,0,0,0-3.632,1.046C439.7,382.744,440.533,385.56,441.348,386.238Z" transform="translate(-390.728 -249.734)" fill="#fafafa"/>
        <path id="Path_2264" data-name="Path 2264" d="M449.8,383.74v2.985a4.616,4.616,0,0,1-4.816.123c-.092-.185-.339-3.078-.339-3.078Z" transform="translate(-388.321 -247.959)" fill="#ffa8a7"/>
        <path id="Path_2265" data-name="Path 2265" d="M424.226,396.99c-.277,1.323.2,2.016,1.908,2.985a9.448,9.448,0,0,0,7.171.508c2.8-.816,4.139-2.047,5.309-2.339s4.047-.308,5.2-.646,1.123-.923,1.123-2.308Z" transform="translate(-399.365 -241.79)" fill="#37474f"/>
        <path id="Path_2266" data-name="Path 2266" d="M443.774,390.85s.539,1.662.831,3.078a8.479,8.479,0,0,1,.169,3.939c-.4.877-1.985,1.431-4.416,1.416a14.358,14.358,0,0,0-5.74,2,8.772,8.772,0,0,1-5.463.754c-2.185-.246-4.432-1.539-4.786-2.416s-.431-1.539,4.616-3.755c0,0,5.94-2.185,8.417-4.924Z" transform="translate(-399.324 -244.129)" fill="#455a64"/>
        <path id="Path_2267" data-name="Path 2267" d="M433.949,399.951s-.446-4.4-4.016-5.647c-3.231-1.139-6.047,1.246-5.724,3.324C424.409,399.027,428.348,402.213,433.949,399.951Z" transform="translate(-399.348 -242.427)" fill="#fafafa"/>
        <path id="Path_2268" data-name="Path 2268" d="M428.51,393.873a4.2,4.2,0,0,1,2.447,1.077c1.016.877,1.046,1.446,1.046,1.446a.539.539,0,0,0,.939-.446,3.355,3.355,0,0,0-3.154-2.662A1.2,1.2,0,0,0,428.51,393.873Z" transform="translate(-397.017 -242.827)" fill="#fafafa"/>
        <path id="Path_2269" data-name="Path 2269" d="M429.84,393.218a3.724,3.724,0,0,1,2.462.985c1.031.862,1.031,1.539,1.031,1.539a.554.554,0,0,0,.939-.446,3.37,3.37,0,0,0-3.155-2.677,1.185,1.185,0,0,0-1.277.6Z" transform="translate(-396.3 -243.189)" fill="#fafafa"/>
        <path id="Path_2270" data-name="Path 2270" d="M431.16,392.49a3.647,3.647,0,0,1,2.524.816,2.423,2.423,0,0,1,1.139,1.539c.246.339,1,.092.892-.523a3.355,3.355,0,0,0-3.339-2.447,1.185,1.185,0,0,0-1.216.615Z" transform="translate(-395.589 -243.583)" fill="#fafafa"/>
        <path id="Path_2271" data-name="Path 2271" d="M439.14,389.51v2.216c0,.8-.954,2.016-3.431,1.939-1.739,0-2.939-.539-2.878-1.97v-2.062Z" transform="translate(-394.69 -244.851)" fill="#ffa8a7"/>
        <path id="Path_2272" data-name="Path 2272" d="M456.178,343.168c.523-19.5-1.031-24.174-6.232-27.7l-2,11.295s2.354,13.31,2.108,17.758a61.553,61.553,0,0,1-1.539,11.91,2.417,2.417,0,0,1-1.031,1.339,14.159,14.159,0,0,0-2.862,2.708c-.769.816-1.431,1.031-1.339,1.277a1.293,1.293,0,0,0,1.647.585,8.663,8.663,0,0,0,1.877-1.016,11.893,11.893,0,0,1-1.924,3.308c-1.846,2.262-1.939,3.662,1.816,3.693,2.339,0,4.216-1.416,5.97-6.586a41.923,41.923,0,0,0,1.647-5.8,104.152,104.152,0,0,0,1.862-12.772Z" transform="translate(-389.062 -284.742)" fill="#ffa8a7"/>
        <path id="Path_2273" data-name="Path 2273" d="M453.372,338.242A40.369,40.369,0,0,1,452.356,344a8.879,8.879,0,0,1-5.416-1.077l.693-5.37Z" transform="translate(-387.087 -272.846)" fill="#263238"/>
        <path id="Path_2274" data-name="Path 2274" d="M446.826,314.765c2.8-.292,6.155,3.693,7.417,8.356s1.539,20.758-.2,27.406a8.156,8.156,0,0,1-5.74-.693,71.517,71.517,0,0,0-.477-11.356c-.723-3.708-2.462-12.51-2.077-13.849S446.826,314.765,446.826,314.765Z" transform="translate(-387.758 -285.13)" fill="#37474f"/>
        <path id="Path_2275" data-name="Path 2275" d="M459.758,385.488c-.231-5.786-.846-5.909-1.785-10.448.477-5.509.923-10.156,1.108-16.142.215-6.448,0-14.218,0-21.081-7.063-.477-24.744-6.324-26.959,4.786-.646,8.971.246,26.729.354,38.962s0,24.267.754,37.392a7.955,7.955,0,0,0,6.848-.508,224.841,224.841,0,0,0,3.878-23.313c.692-6.155-.308-6.663,0-11.541s.769-10.2,1.154-14.988.862-8.771,1.077-13.418a3.323,3.323,0,0,0,.569-.292c.369,5.678.508,10.571.892,16.388s.862,10.187,1.539,16.834c.569,6.155.816,14.265,1.97,21.681,1.677.8,4.139,1.539,5.74.185C458.3,403.276,460,391.274,459.758,385.488Z" transform="translate(-395.196 -273.759)" fill="#c8a268"/>
        <g id="Group_492" data-name="Group 492" transform="translate(36.692 62.097)" opacity="0.3">
          <path id="Path_2276" data-name="Path 2276" d="M459.758,385.488c-.231-5.786-.846-5.909-1.785-10.448.477-5.509.923-10.156,1.108-16.142.215-6.448,0-14.218,0-21.081-7.063-.477-24.744-6.324-26.959,4.786-.646,8.971.246,26.729.354,38.962s0,24.267.754,37.392a7.955,7.955,0,0,0,6.848-.508,224.841,224.841,0,0,0,3.878-23.313c.692-6.155-.308-6.663,0-11.541s.769-10.2,1.154-14.988.862-8.771,1.077-13.418a3.323,3.323,0,0,0,.569-.292c.369,5.678.508,10.571.892,16.388s.862,10.187,1.539,16.834c.569,6.155.816,14.265,1.97,21.681,1.677.8,4.139,1.539,5.74.185C458.3,403.276,460,391.274,459.758,385.488Z" transform="translate(-431.889 -335.855)"/>
        </g>
        <g id="Group_493" data-name="Group 493" transform="translate(50.959 75.291)" opacity="0.2">
          <path id="Path_2277" data-name="Path 2277" d="M441.16,350.585a53.03,53.03,0,0,0,9.833-6.155,27.9,27.9,0,0,1-7.047,6.463c0,1.539-1.323,13.772-1.339,13.541-.354-2.739-.446-9.694-.892-13.849C441.529,350.508,441.345,350.6,441.16,350.585Z" transform="translate(-441.16 -344.43)"/>
        </g>
        <path id="Path_2278" data-name="Path 2278" d="M458.386,319.02c-.8-2.416-3.847-5.032-6.894-4.462A90.1,90.1,0,0,0,438.12,317.9c-2.8,1-5.355,3.416-5.586,12.618,0,0-.939,21.435-.954,25.575a33.853,33.853,0,0,0,18.358,1.816c8.4-1.831,9.417-5.324,9.417-5.324s.108-15.388-.138-22.066C459,324.852,458.924,320.667,458.386,319.02Z" transform="translate(-395.363 -285.276)" fill="#455a64"/>
        <path id="Path_2279" data-name="Path 2279" d="M437.54,312.873l.908,8.586,7.694.015-.892-9.725Z" transform="translate(-392.152 -286.746)" fill="#ffa8a7"/>
        <path id="Path_2280" data-name="Path 2280" d="M436.36,318.27c.554-1.169.985-2.724,2.062-2.924a14.451,14.451,0,0,0,5.647-.215,4.847,4.847,0,0,0,2.37-1.662,2.6,2.6,0,0,1,2.77.508c1.123,1.185,4.478,3.17,5.355,6.678s1.539,9.987-2.447,11.233c-5.94,1.831-10.156-.954-11.572-5.863C438.991,320.639,439.422,319.239,436.36,318.27Z" transform="translate(-392.787 -285.926)" fill="#37474f"/>
        <path id="Path_2281" data-name="Path 2281" d="M439.37,316.81c.969,1.323,2,7.109,4.309,9.371s7.294,1.708,8.2-.585a3.709,3.709,0,0,1-3.693,3.278,7.2,7.2,0,0,1-7.509-5.586C439.8,319.857,439.924,318.364,439.37,316.81Z" transform="translate(-391.166 -284.02)" fill="#263238"/>
        <path id="Path_2282" data-name="Path 2282" d="M434.126,306s-1.954,3.078-1.708,3.4,1.723.539,1.723.539Z" transform="translate(-394.923 -289.844)" fill="#f28f8f"/>
        <path id="Path_2283" data-name="Path 2283" d="M438.919,300.57c-4.062.954-5.2,2.77-5.432,9.233-.246,6.771.492,8.894,1.4,9.787.615.6,3.955.631,5.617.123,2.093-.615,6.817-2.416,8.971-5.878,2.539-4.062,3.078-9.494.246-11.664C445.751,299.154,440.611,300.185,438.919,300.57Z" transform="translate(-394.361 -293.031)" fill="#ffa8a7"/>
        <path id="Path_2284" data-name="Path 2284" d="M433.963,306.056a5.016,5.016,0,0,0,2.708.523c-.185,0-.123.769-.092.862a1.415,1.415,0,0,0,.492.8,1.539,1.539,0,0,0,1.831.323c-.554.446-.138,1.831,0,2.385s.323,1.385,1.077,1.693c0,0,.585-2.524,2.708-2.247s2.477,2.97,1.169,4.616-2.554,1.077-2.554,1.077a11.079,11.079,0,0,0,1.77,5.57A9.587,9.587,0,0,0,454.2,315.6c2.431-5.77,2.493-10.91-1.185-12.31a4.955,4.955,0,0,0-2.462-5.263,4.832,4.832,0,0,0-5,0,5.555,5.555,0,0,1-.677-1.046,3.522,3.522,0,0,0-1.37-1.092,5.4,5.4,0,0,0-5.017.538,3.478,3.478,0,0,0-1.431,2.339,6.648,6.648,0,0,0-4.124.969,3.77,3.77,0,0,0-.754,4.709,4.386,4.386,0,0,0,1.785,1.616Z" transform="translate(-395.315 -295.501)" fill="#263238"/>
        <path id="Path_2285" data-name="Path 2285" d="M445.709,301.879l2.4-1.539a1.426,1.426,0,0,0-2.4,1.539Z" transform="translate(-387.872 -293.247)" fill="#263238"/>
        <path id="Path_2286" data-name="Path 2286" d="M417.009,332.637c1.308.585,16.788,12.033,19.2,10.695s14.849-15.8,14.849-15.8a10.017,10.017,0,0,0,0-10.848A8.4,8.4,0,0,0,444,320.373c-2.216,3.078-10.156,13.449-10.156,13.449-2.216-1.108-10.141-4.124-11.926-5.139a5.818,5.818,0,0,1-1.385-.862c-.877-.862-.739-2.954-.723-4.093v-1.539c0-.477.2-2.247-.969-1.739a1.632,1.632,0,0,0-.554.477,2.476,2.476,0,0,0-.415.8c-.231.677-.154,1.431-.354,2.139a.709.709,0,0,1-.154.277.585.585,0,0,1-.369.108c-1.693,0-3.308-2.447-4.093-3.708A3.461,3.461,0,0,0,411.608,319a2.308,2.308,0,0,0-2.662,1.016,5.417,5.417,0,0,0-.846,3.77,7.509,7.509,0,0,0,2.231,4.709,22.743,22.743,0,0,0,6.678,4.139Z" transform="translate(-408.044 -284.09)" fill="#ffa8a7"/>
        <path id="Path_2287" data-name="Path 2287" d="M423.616,326.856l-3.878-1.616a6.432,6.432,0,0,0-3.077,5.632l3.755,2.493Z" transform="translate(-403.402 -279.478)" fill="#263238"/>
        <path id="Path_2288" data-name="Path 2288" d="M445.657,316.53a9.233,9.233,0,0,0-5.986,1.616c-2.216,1.939-11.956,15.249-11.956,15.249l-5.417-1.831a7.571,7.571,0,0,0-3.185,6.509s3.816,2.831,5.893,4.047a12.31,12.31,0,0,0,5.063,1.939c.908,0,14.6-14.988,14.6-14.988a11.971,11.971,0,0,0,2.478-6.986,13.542,13.542,0,0,0-1.493-5.555Z" transform="translate(-402.084 -284.186)" fill="#37474f"/>
      </g>
    </g>
    <g id="freepik--character-1--inject-1--inject-8" transform="translate(103.937 397.76)">
      <g id="freepik--character--inject-1--inject-8-2" data-name="freepik--character--inject-1--inject-8">
        <path id="Path_2289" data-name="Path 2289" d="M67.019,318c-3.4.662-4.955,1.831-6.894,6.555s-6.155,16.126-6.155,19.373c0,2.493,8.586,14.064,8.2,13.849-.123,0,4.878-5.847,4.878-5.847l-5.186-8.2,4.109-8Z" transform="translate(-53.97 -291.709)" fill="#ffa8a7"/>
        <path id="Path_2290" data-name="Path 2290" d="M71.737,383.8a7.263,7.263,0,0,1-.2,3.324,7.432,7.432,0,0,1-2.693,3.231,13.048,13.048,0,0,0-2.216,2.708,11.772,11.772,0,0,1-2.339,2.908,4.617,4.617,0,0,1-3.755.262c-.985-.4-1.323-.785-1.262-2.354S64.12,391.8,64.12,391.8Z" transform="translate(-51.117 -256.257)" fill="#455a64"/>
        <path id="Path_2291" data-name="Path 2291" d="M59.915,389.838c-.415.154-.523.923-.585,2.462,0,1.169-.539,2.878,1.077,3.616a3.924,3.924,0,0,0,4.247-.892,51.76,51.76,0,0,1,3.447-4.263c1.354-1.462,2.754-1.954,3.355-4.847.4-1.877.092-2.647-1.169-3.185-1.723-.739-4.447,1.677-5.8,2.047S60.315,389.684,59.915,389.838Z" transform="translate(-51.128 -256.909)" fill="#c8a268"/>
        <path id="Path_2292" data-name="Path 2292" d="M59.915,389.838c-.415.154-.523.923-.585,2.462,0,1.169-.539,2.878,1.077,3.616a3.924,3.924,0,0,0,4.247-.892,51.76,51.76,0,0,1,3.447-4.263c1.354-1.462,2.754-1.954,3.355-4.847.4-1.877.092-2.647-1.169-3.185-1.723-.739-4.447,1.677-5.8,2.047S60.315,389.684,59.915,389.838Z" transform="translate(-51.128 -256.909)" opacity="0.2"/>
        <path id="Path_2293" data-name="Path 2293" d="M62.852,384.027l.231-.077a4.432,4.432,0,0,1,3.739,2.462c.231.508-.477.892-.893.508a4.77,4.77,0,0,0-3.739-2.447A1.984,1.984,0,0,1,62.852,384.027Z" transform="translate(-49.541 -256.176)" fill="#fafafa"/>
        <path id="Path_2294" data-name="Path 2294" d="M62.078,384.58a4.447,4.447,0,0,1,3.478,2.447c.231.508-.492.892-.908.508A4.616,4.616,0,0,0,61.57,385.2,3.861,3.861,0,0,1,62.078,384.58Z" transform="translate(-49.875 -255.837)" fill="#fafafa"/>
        <path id="Path_2295" data-name="Path 2295" d="M68.418,388.154s-.138-3.447-4.816-3.939l-.262.154a4,4,0,0,1,2.293-1.77,3.17,3.17,0,0,1,3.6,1.031C70.049,384.676,69.218,387.492,68.418,388.154Z" transform="translate(-48.922 -257.01)" fill="#fafafa"/>
        <path id="Path_2296" data-name="Path 2296" d="M88.7,399.95c.262,1.308-.215,1.985-1.893,2.97a9.417,9.417,0,0,1-7.125.492c-2.785-.8-4.124-2.031-5.278-2.308s-4.032-.323-5.17-.662-1.123-.908-1.123-2.293Z" transform="translate(-46.352 -248.526)" fill="#455a64"/>
        <path id="Path_2297" data-name="Path 2297" d="M69.247,393.84s-.539,1.646-.831,3.078a8.2,8.2,0,0,0-.169,3.924c.4.862,1.97,1.416,4.386,1.4a14.126,14.126,0,0,1,5.693,1.985,8.725,8.725,0,0,0,5.447.754c2.154-.246,4.4-1.539,4.739-2.4s.446-1.539-4.616-3.724c0,0-5.894-2.185-8.356-4.909Z" transform="translate(-46.365 -250.848)" fill="#c8a268"/>
        <g id="Group_494" data-name="Group 494" transform="translate(21.72 142.992)" opacity="0.2">
          <path id="Path_2298" data-name="Path 2298" d="M69.247,393.84s-.539,1.646-.831,3.078a8.2,8.2,0,0,0-.169,3.924c.4.862,1.97,1.416,4.386,1.4a14.126,14.126,0,0,1,5.693,1.985,8.725,8.725,0,0,0,5.447.754c2.154-.246,4.4-1.539,4.739-2.4s.446-1.539-4.616-3.724c0,0-5.894-2.185-8.356-4.909Z" transform="translate(-68.085 -393.84)"/>
        </g>
        <path id="Path_2299" data-name="Path 2299" d="M75.2,402.89s.431-4.37,3.985-5.617c3.2-1.139,6,1.246,5.693,3.308C84.663,401.982,80.755,405.136,75.2,402.89Z" transform="translate(-42.532 -249.157)" fill="#fafafa"/>
        <path id="Path_2300" data-name="Path 2300" d="M78.743,396.848a4.124,4.124,0,0,0-2.416,1.077c-1.031.862-1.062,1.446-1.062,1.446a.539.539,0,0,1-.923-.446,3.354,3.354,0,0,1,3.078-2.662,1.169,1.169,0,0,1,1.323.585Z" transform="translate(-42.997 -249.562)" fill="#fafafa"/>
        <path id="Path_2301" data-name="Path 2301" d="M77.422,396.218a3.616,3.616,0,0,0-2.447.969c-1.016.862-1.031,1.539-1.031,1.539a.539.539,0,0,1-.923-.431,3.354,3.354,0,0,1,3.078-2.662,1.17,1.17,0,0,1,1.323.585Z" transform="translate(-43.707 -249.901)" fill="#fafafa"/>
        <path id="Path_2302" data-name="Path 2302" d="M76.158,395.475a3.632,3.632,0,0,0-2.508.8,2.354,2.354,0,0,0-1.123,1.539.539.539,0,0,1-.892-.508,3.324,3.324,0,0,1,3.308-2.431,1.185,1.185,0,0,1,1.216.6Z" transform="translate(-44.459 -250.297)" fill="#fafafa"/>
        <path id="Path_2303" data-name="Path 2303" d="M59.68,385.67v2.97a4.616,4.616,0,0,0,4.786.123c.077-.185.323-3.078.323-3.078Z" transform="translate(-50.894 -255.249)" fill="#ffa8a7"/>
        <path id="Path_2304" data-name="Path 2304" d="M68.84,392.51v2.2c0,.816.939,2.016,3.4,1.923,1.723,0,2.924-.523,2.862-1.954v-2.047Z" transform="translate(-45.958 -251.564)" fill="#ffa8a7"/>
        <path id="Path_2305" data-name="Path 2305" d="M57.684,387.209a24.62,24.62,0,0,1,1.446-8.986s-.923-7.694-1.539-17.173c-.862-13.849,2.247-18.358,5.093-24.821,0,0,22.4-1.539,22.728,8.617.431,13.664.154,38.193-.169,42.624s-.339.339-1.416,9.233c-.846,7.094-2.6,26.159-2.6,26.159a6.647,6.647,0,0,1-6.263-.123s-1.97-23.282-1.754-28.344a57.244,57.244,0,0,1,.6-7.832s-2.831-20.25-3.2-23.5c0,0-.4,5.817-.739,10.248s-.292,8-1.231,17.157c-.739,7.186-2.508,22.7-2.508,22.7a5.971,5.971,0,0,1-5.278-.385S57.545,392.272,57.684,387.209Z" transform="translate(-52.098 -281.932)" fill="#455a64"/>
        <path id="Path_2306" data-name="Path 2306" d="M68.748,356.334l-.462-4.893a18.343,18.343,0,0,1-7.386-2.8,10.033,10.033,0,0,0,5.832,3.632l.969,4.77.246,9.494Z" transform="translate(-50.236 -275.201)" fill="#37474f"/>
        <path id="Path_2307" data-name="Path 2307" d="M73.786,316.535l-1.139,9.356-8.217-.754.939-10.387Z" transform="translate(-48.334 -293.46)" fill="#ffa8a7"/>
        <path id="Path_2308" data-name="Path 2308" d="M59.749,322.592c.908-2.462,2.985-5.047,6.155-4.462l2.324.431c.077,2.154,4.139,3.278,8.186,1.97,1.216.339,2.339.708,3.339,1.062,2.908,1.031,5.432,6.555,5.493,14.6s-1.37,20.85-1.37,20.85-5.263,7.4-16.28,3.816c-8.032-2.616-9.387-4.878-9.387-4.878s2.8-6.678,4.755-12.172C58.579,332.163,58.41,326.193,59.749,322.592Z" transform="translate(-51.686 -291.684)" fill="#ffa8a7"/>
        <path id="Path_2309" data-name="Path 2309" d="M60.293,322.592c.908-2.462,2.985-5.047,6.155-4.462l2.324.431c.077,2.154,4.139,3.278,8.186,1.97,1.216.339,2.339.708,3.339,1.062,2.908,1.031,5.432,6.555,5.493,14.6s.339,32.1.339,32.1-2.339-1.616-4.062-9.125a12.557,12.557,0,0,1-16.049,10.664c-8.032-2.6-8.309-6.078-8.817-9.925.4-3.078,3.247-10.264,6.355-16.142C59.123,332.163,58.954,326.193,60.293,322.592Z" transform="translate(-52.23 -291.684)" fill="#c8a268"/>
        <path id="Path_2310" data-name="Path 2310" d="M82.514,312.095a7.2,7.2,0,0,0-.631-6.955c-2.754-4.339-8.079-5.078-14.388-3.385A11.156,11.156,0,0,0,59.6,311.91c-.308,4.616,12.6,8.048,12.31,11.218Z" transform="translate(-50.939 -300.914)" fill="#263238"/>
        <path id="Path_2311" data-name="Path 2311" d="M74.67,309.32s1.754,2.816,1.539,3.078a4.246,4.246,0,0,1-1.416.569Z" transform="translate(-42.817 -296.385)" fill="#f28f8f"/>
        <path id="Path_2312" data-name="Path 2312" d="M75.194,311.869a2.154,2.154,0,1,1,2.154-2.154A2.154,2.154,0,0,1,75.194,311.869Zm0-4a1.847,1.847,0,1,0,1.316.535,1.862,1.862,0,0,0-1.316-.535Z" transform="translate(-43.695 -297.334)" fill="#263238"/>
        <path id="Path_2313" data-name="Path 2313" d="M75.537,303.839c1.739.969,4.77,2.739,5.37,9.233s-.923,9.017-1.862,9.864c-.631.585-3.816.708-5.478.154a17.358,17.358,0,0,1-8.525-6.571c-2.37-4.139-2.739-9.587.185-11.633a10.771,10.771,0,0,1,10.31-1.046Z" transform="translate(-49.024 -299.798)" fill="#ffa8a7"/>
        <path id="Path_2314" data-name="Path 2314" d="M70.778,315.35,70.47,316.7a9.771,9.771,0,0,0,4.339-.185,7.452,7.452,0,0,1-1.539-.185A10.448,10.448,0,0,1,70.778,315.35Z" transform="translate(-45.08 -293.137)" fill="#f28f8f"/>
        <path id="Path_2315" data-name="Path 2315" d="M71.259,312.725a6.663,6.663,0,0,0,4.278-5.37c.646-4.278-4.616-6.155-4.616-6.155Z" transform="translate(-44.838 -300.76)" fill="#263238"/>
        <path id="Path_2316" data-name="Path 2316" d="M77.92,304.674s1.385,6.155-.569,9.987c0,0-1.031-2.416-3.078-1.785a2.785,2.785,0,0,0-.6,4.847,2.093,2.093,0,0,0,2.693,0,13.849,13.849,0,0,1-3.078,4.924s-5.417,3.17-10.771-2.816c-4.816-5.447-3.431-15.142,3.462-17.173A12.741,12.741,0,0,1,77.92,304.674Z" transform="translate(-50.899 -300.341)" fill="#263238"/>
        <path id="Path_2317" data-name="Path 2317" d="M85.74,333.468c1.185-1.354,1.385-4.37,2.985-6.447s1.293-4.155,2.293-3.231.262,4.324.262,4.324a20.3,20.3,0,0,1,2,5.2c.154,1.754-4.493,6.155-4.493,6.155Z" transform="translate(-36.853 -288.711)" fill="#ffa8a7"/>
        <path id="Path_2318" data-name="Path 2318" d="M89.31,326.642s1.893,2.631,10.387-.8c2.339-.954.754,4.093-2.124,6.155s-5.986,2.539-8.663,4.339C88.91,336.09,89.31,326.642,89.31,326.642Z" transform="translate(-35.145 -287.548)" fill="#ffa8a7"/>
        <path id="Path_2319" data-name="Path 2319" d="M72.168,320.16c3.662.662,5.509,1.046,7.54,5.847,2.4,5.694,7.417,16.342,7.417,16.342l6.586-7.048s.954-1.339,2.739,1.539.985,3.755.985,3.755-7.694,10.248-9.048,11.541-3.708.292-5.216-1.754-9.556-14.957-9.556-14.957S68.737,325.315,72.168,320.16Z" transform="translate(-44.824 -290.545)" fill="#ffa8a7"/>
        <path id="Path_2320" data-name="Path 2320" d="M60.592,306c-1.539,3.739-2.816,19.527-.123,24.621S70.794,339.1,75.7,337.33c3.078-1.077,7.078-3.632,4.616-7.309a12.664,12.664,0,0,0-2.354-2.477,6.064,6.064,0,0,1-1.677-2.447c-1.093-2.385.385-9.325.477-9.556s-.8,2.97-6.386,1.37C67.824,316.248,60.592,306,60.592,306Z" transform="translate(-51.313 -298.174)" fill="#263238"/>
      </g>
    </g>
  </g>
</svg>
