<svg xmlns="http://www.w3.org/2000/svg" width="40" height="40" viewBox="0 0 40 40">
  <g id="Group_646" data-name="Group 646" transform="translate(-940 -1101)">
    <g id="vuesax_outline_discount-shape" data-name="vuesax/outline/discount-shape" transform="translate(576 785)">
      <g id="discount-shape" transform="translate(364 316)">
        <path id="Vector" d="M18.75,37.47a4.005,4.005,0,0,1-2.9-1.2L13.2,33.613a1.988,1.988,0,0,0-1.047-.436H8.39a4.1,4.1,0,0,1-4.1-4.1v-3.77a1.99,1.99,0,0,0-.436-1.047L1.2,21.606a4.081,4.081,0,0,1-1.2-2.9,4.01,4.01,0,0,1,1.2-2.9l2.651-2.653a1.99,1.99,0,0,0,.436-1.047V8.342a4.1,4.1,0,0,1,4.1-4.1h3.767A1.988,1.988,0,0,0,13.2,3.8l2.651-2.653a4.215,4.215,0,0,1,5.791,0L24.3,3.8a1.988,1.988,0,0,0,1.047.436H29.11a4.1,4.1,0,0,1,4.1,4.1v3.77a1.99,1.99,0,0,0,.436,1.047L36.3,15.812a4.081,4.081,0,0,1,1.2,2.9,4.01,4.01,0,0,1-1.2,2.9l-2.651,2.653a1.99,1.99,0,0,0-.436,1.047v3.77a4.1,4.1,0,0,1-4.1,4.1H25.343a1.988,1.988,0,0,0-1.047.436l-2.651,2.653A4.005,4.005,0,0,1,18.75,37.47ZM5.7,22.409a4.507,4.507,0,0,1,1.2,2.9v3.77A1.482,1.482,0,0,0,8.39,30.559h3.767a4.5,4.5,0,0,1,2.9,1.2L17.7,34.416a1.517,1.517,0,0,0,2.093,0l2.651-2.653a4.5,4.5,0,0,1,2.9-1.2H29.11a1.482,1.482,0,0,0,1.483-1.484v-3.77a4.507,4.507,0,0,1,1.2-2.9l2.651-2.653a1.475,1.475,0,0,0,0-2.094L31.8,15.009a4.507,4.507,0,0,1-1.2-2.9V8.342A1.482,1.482,0,0,0,29.11,6.859H25.343a4.5,4.5,0,0,1-2.9-1.2L19.8,3A1.517,1.517,0,0,0,17.7,3L15.052,5.655a4.5,4.5,0,0,1-2.9,1.2H8.39A1.482,1.482,0,0,0,6.907,8.342v3.77a4.507,4.507,0,0,1-1.2,2.9L3.052,17.662a1.475,1.475,0,0,0,0,2.094Z" transform="translate(1.25 1.28)" fill="#12b428"/>
        <path id="Vector-2" data-name="Vector" d="M0,0H40V40H0Z" fill="none" opacity="0"/>
      </g>
    </g>
    <path id="Vector-3" data-name="Vector" d="M3.554,8.694a1.173,1.173,0,0,1-.838-.348L.344,5.974A1.185,1.185,0,0,1,2.02,4.3L3.554,5.831,9.041.344A1.185,1.185,0,1,1,10.718,2.02L4.392,8.346A1.173,1.173,0,0,1,3.554,8.694Z" transform="translate(954.469 1116.652)" fill="#12b428"/>
  </g>
</svg>
